<mxfile host="app.diagrams.net" agent="Mozilla/5.0 (Windows NT 10.0; Win64; x64) AppleWebKit/537.36 (KHTML, like Gecko) Chrome/134.0.0.0 Safari/537.36 Edg/134.0.0.0" version="26.2.8" pages="4">
  <diagram name="ワークエコシステム図" id="IH3cQlrn1M3DnT7kyekj">
    <mxGraphModel grid="1" page="1" gridSize="10" guides="1" tooltips="1" connect="1" arrows="1" fold="1" pageScale="1" pageWidth="827" pageHeight="1169" math="0" shadow="0">
      <root>
        <mxCell id="0" />
        <mxCell id="1" parent="0" />
        <mxCell id="V0FD5MonbIdQYGrvUsWd-1" value="" style="ellipse;whiteSpace=wrap;html=1;aspect=fixed;dashed=1;" vertex="1" parent="1">
          <mxGeometry x="-662.5" y="-787.5" width="2255" height="2255" as="geometry" />
        </mxCell>
        <mxCell id="V0FD5MonbIdQYGrvUsWd-2" value="" style="group;movable=1;resizable=1;rotatable=1;deletable=1;editable=1;locked=0;connectable=1;" connectable="0" vertex="1" parent="1">
          <mxGeometry x="-5" y="-100" width="1580" height="1430" as="geometry" />
        </mxCell>
        <mxCell id="V0FD5MonbIdQYGrvUsWd-3" value="" style="group;movable=1;resizable=1;rotatable=1;deletable=1;editable=1;locked=0;connectable=1;" connectable="0" vertex="1" parent="V0FD5MonbIdQYGrvUsWd-2">
          <mxGeometry x="-300" y="-350" width="1880" height="1780" as="geometry" />
        </mxCell>
        <mxCell id="V0FD5MonbIdQYGrvUsWd-4" value="" style="ellipse;whiteSpace=wrap;html=1;aspect=fixed;dashed=1;movable=1;resizable=1;rotatable=1;deletable=1;editable=1;locked=0;connectable=1;" vertex="1" parent="V0FD5MonbIdQYGrvUsWd-3">
          <mxGeometry y="80" width="1520" height="1520" as="geometry" />
        </mxCell>
        <mxCell id="V0FD5MonbIdQYGrvUsWd-5" value="" style="ellipse;whiteSpace=wrap;html=1;aspect=fixed;dashed=1;movable=1;resizable=1;rotatable=1;deletable=1;editable=1;locked=0;connectable=1;" vertex="1" parent="V0FD5MonbIdQYGrvUsWd-3">
          <mxGeometry x="300" y="350" width="900" height="900" as="geometry" />
        </mxCell>
        <mxCell id="V0FD5MonbIdQYGrvUsWd-6" value="" style="ellipse;whiteSpace=wrap;html=1;aspect=fixed;dashed=1;movable=1;resizable=1;rotatable=1;deletable=1;editable=1;locked=0;connectable=1;" vertex="1" parent="V0FD5MonbIdQYGrvUsWd-3">
          <mxGeometry x="440" y="490" width="620" height="620" as="geometry" />
        </mxCell>
        <mxCell id="V0FD5MonbIdQYGrvUsWd-7" value="&lt;span style=&quot;color: rgba(0, 0, 0, 0); font-family: monospace; font-size: 0px; text-align: start; text-wrap-mode: nowrap;&quot;&gt;%3CmxGraphModel%3E%3Croot%3E%3CmxCell%20id%3D%220%22%2F%3E%3CmxCell%20id%3D%221%22%20parent%3D%220%22%2F%3E%3CmxCell%20id%3D%222%22%20value%3D%22%22%20style%3D%22curved%3D1%3BendArrow%3Dclassic%3Bhtml%3D1%3Brounded%3D0%3BfillColor%3D%23f5f5f5%3BstrokeColor%3D%23666666%3BstrokeWidth%3D3%3Bmovable%3D1%3Bresizable%3D1%3Brotatable%3D1%3Bdeletable%3D1%3Beditable%3D1%3Blocked%3D0%3Bconnectable%3D1%3BexitX%3D0.5%3BexitY%3D0%3BexitDx%3D0%3BexitDy%3D0%3BexitPerimeter%3D0%3BentryX%3D0%3BentryY%3D0.3333333333333333%3BentryDx%3D0%3BentryDy%3D0%3BentryPerimeter%3D0%3Bdashed%3D1%3B%22%20edge%3D%221%22%20parent%3D%221%22%3E%3CmxGeometry%20width%3D%2250%22%20height%3D%2250%22%20relative%3D%221%22%20as%3D%22geometry%22%3E%3CmxPoint%20x%3D%22645%22%20y%3D%22450%22%20as%3D%22sourcePoint%22%2F%3E%3CmxPoint%20x%3D%22690%22%20y%3D%22320%22%20as%3D%22targetPoint%22%2F%3E%3CArray%20as%3D%22points%22%3E%3CmxPoint%20x%3D%22630%22%20y%3D%22370%22%2F%3E%3CmxPoint%20x%3D%22660%22%20y%3D%22320%22%2F%3E%3C%2FArray%3E%3C%2FmxGeometry%3E%3C%2FmxCell%3E%3C%2Froot%3E%3C%2FmxGraphModel%3E&lt;/span&gt;" style="ellipse;whiteSpace=wrap;html=1;aspect=fixed;movable=1;resizable=1;rotatable=1;deletable=1;editable=1;locked=0;connectable=1;fillColor=#bac8d3;strokeColor=#23445d;" vertex="1" parent="V0FD5MonbIdQYGrvUsWd-3">
          <mxGeometry x="880" y="130" width="1000" height="1000" as="geometry" />
        </mxCell>
        <mxCell id="V0FD5MonbIdQYGrvUsWd-8" value="&lt;span style=&quot;color: rgba(0, 0, 0, 0); font-family: monospace; font-size: 0px; text-align: start; text-wrap-mode: nowrap;&quot;&gt;%3CmxGraphModel%3E%3Croot%3E%3CmxCell%20id%3D%220%22%2F%3E%3CmxCell%20id%3D%221%22%20parent%3D%220%22%2F%3E%3CmxCell%20id%3D%222%22%20value%3D%22%22%20style%3D%22curved%3D1%3BendArrow%3Dclassic%3Bhtml%3D1%3Brounded%3D0%3BfillColor%3D%23f5f5f5%3BstrokeColor%3D%23666666%3BstrokeWidth%3D3%3Bmovable%3D1%3Bresizable%3D1%3Brotatable%3D1%3Bdeletable%3D1%3Beditable%3D1%3Blocked%3D0%3Bconnectable%3D1%3BexitX%3D0.5%3BexitY%3D0%3BexitDx%3D0%3BexitDy%3D0%3BexitPerimeter%3D0%3BentryX%3D0%3BentryY%3D0.3333333333333333%3BentryDx%3D0%3BentryDy%3D0%3BentryPerimeter%3D0%3Bdashed%3D1%3B%22%20edge%3D%221%22%20parent%3D%221%22%3E%3CmxGeometry%20width%3D%2250%22%20height%3D%2250%22%20relative%3D%221%22%20as%3D%22geometry%22%3E%3CmxPoint%20x%3D%22645%22%20y%3D%22450%22%20as%3D%22sourcePoint%22%2F%3E%3CmxPoint%20x%3D%22690%22%20y%3D%22320%22%20as%3D%22targetPoint%22%2F%3E%3CArray%20as%3D%22points%22%3E%3CmxPoint%20x%3D%22630%22%20y%3D%22370%22%2F%3E%3CmxPoint%20x%3D%22660%22%20y%3D%22320%22%2F%3E%3C%2FArray%3E%3C%2FmxGeometry%3E%3C%2FmxCell%3E%3C%2Froot%3E%3C%2FmxGraphModel%3E&lt;/span&gt;" style="ellipse;whiteSpace=wrap;html=1;aspect=fixed;movable=1;resizable=1;rotatable=1;deletable=1;editable=1;locked=0;connectable=1;fillColor=#fa6800;strokeColor=#C73500;fontColor=#000000;" vertex="1" parent="V0FD5MonbIdQYGrvUsWd-3">
          <mxGeometry x="880" y="340" width="670" height="670" as="geometry" />
        </mxCell>
        <mxCell id="V0FD5MonbIdQYGrvUsWd-9" value="&lt;span style=&quot;color: rgba(0, 0, 0, 0); font-family: monospace; font-size: 0px; text-align: start; text-wrap-mode: nowrap;&quot;&gt;%3CmxGraphModel%3E%3Croot%3E%3CmxCell%20id%3D%220%22%2F%3E%3CmxCell%20id%3D%221%22%20parent%3D%220%22%2F%3E%3CmxCell%20id%3D%222%22%20value%3D%22%22%20style%3D%22curved%3D1%3BendArrow%3Dclassic%3Bhtml%3D1%3Brounded%3D0%3BfillColor%3D%23f5f5f5%3BstrokeColor%3D%23666666%3BstrokeWidth%3D3%3Bmovable%3D1%3Bresizable%3D1%3Brotatable%3D1%3Bdeletable%3D1%3Beditable%3D1%3Blocked%3D0%3Bconnectable%3D1%3BexitX%3D0.5%3BexitY%3D0%3BexitDx%3D0%3BexitDy%3D0%3BexitPerimeter%3D0%3BentryX%3D0%3BentryY%3D0.3333333333333333%3BentryDx%3D0%3BentryDy%3D0%3BentryPerimeter%3D0%3Bdashed%3D1%3B%22%20edge%3D%221%22%20parent%3D%221%22%3E%3CmxGeometry%20width%3D%2250%22%20height%3D%2250%22%20relative%3D%221%22%20as%3D%22geometry%22%3E%3CmxPoint%20x%3D%22645%22%20y%3D%22450%22%20as%3D%22sourcePoint%22%2F%3E%3CmxPoint%20x%3D%22690%22%20y%3D%22320%22%20as%3D%22targetPoint%22%2F%3E%3CArray%20as%3D%22points%22%3E%3CmxPoint%20x%3D%22630%22%20y%3D%22370%22%2F%3E%3CmxPoint%20x%3D%22660%22%20y%3D%22320%22%2F%3E%3C%2FArray%3E%3C%2FmxGeometry%3E%3C%2FmxCell%3E%3C%2Froot%3E%3C%2FmxGraphModel%3E&lt;/span&gt;" style="ellipse;whiteSpace=wrap;html=1;aspect=fixed;movable=1;resizable=1;rotatable=1;deletable=1;editable=1;locked=0;connectable=1;fillColor=#f0a30a;strokeColor=#BD7000;fontColor=#000000;" vertex="1" parent="V0FD5MonbIdQYGrvUsWd-3">
          <mxGeometry x="880" y="550" width="380" height="380" as="geometry" />
        </mxCell>
        <mxCell id="V0FD5MonbIdQYGrvUsWd-10" value="" style="group;movable=1;resizable=1;rotatable=1;deletable=1;editable=1;locked=0;connectable=1;" connectable="0" vertex="1" parent="V0FD5MonbIdQYGrvUsWd-3">
          <mxGeometry x="590" y="640" width="610" height="610" as="geometry" />
        </mxCell>
        <mxCell id="V0FD5MonbIdQYGrvUsWd-11" value="&lt;span style=&quot;color: rgba(0, 0, 0, 0); font-family: monospace; font-size: 0px; text-align: start; text-wrap-mode: nowrap;&quot;&gt;%3CmxGraphModel%3E%3Croot%3E%3CmxCell%20id%3D%220%22%2F%3E%3CmxCell%20id%3D%221%22%20parent%3D%220%22%2F%3E%3CmxCell%20id%3D%222%22%20value%3D%22%22%20style%3D%22curved%3D1%3BendArrow%3Dclassic%3Bhtml%3D1%3Brounded%3D0%3BfillColor%3D%23f5f5f5%3BstrokeColor%3D%23666666%3BstrokeWidth%3D3%3Bmovable%3D1%3Bresizable%3D1%3Brotatable%3D1%3Bdeletable%3D1%3Beditable%3D1%3Blocked%3D0%3Bconnectable%3D1%3BexitX%3D0.5%3BexitY%3D0%3BexitDx%3D0%3BexitDy%3D0%3BexitPerimeter%3D0%3BentryX%3D0%3BentryY%3D0.3333333333333333%3BentryDx%3D0%3BentryDy%3D0%3BentryPerimeter%3D0%3Bdashed%3D1%3B%22%20edge%3D%221%22%20parent%3D%221%22%3E%3CmxGeometry%20width%3D%2250%22%20height%3D%2250%22%20relative%3D%221%22%20as%3D%22geometry%22%3E%3CmxPoint%20x%3D%22645%22%20y%3D%22450%22%20as%3D%22sourcePoint%22%2F%3E%3CmxPoint%20x%3D%22690%22%20y%3D%22320%22%20as%3D%22targetPoint%22%2F%3E%3CArray%20as%3D%22points%22%3E%3CmxPoint%20x%3D%22630%22%20y%3D%22370%22%2F%3E%3CmxPoint%20x%3D%22660%22%20y%3D%22320%22%2F%3E%3C%2FArray%3E%3C%2FmxGeometry%3E%3C%2FmxCell%3E%3C%2Froot%3E%3C%2FmxGraphModel%3E&lt;/span&gt;" style="ellipse;whiteSpace=wrap;html=1;aspect=fixed;movable=1;resizable=1;rotatable=1;deletable=1;editable=1;locked=0;connectable=1;fillColor=#e3c800;fontColor=#000000;strokeColor=#B09500;" vertex="1" parent="V0FD5MonbIdQYGrvUsWd-10">
          <mxGeometry x="295" y="40" width="170" height="170" as="geometry" />
        </mxCell>
        <mxCell id="V0FD5MonbIdQYGrvUsWd-12" value="ワーク参加者" style="shape=umlActor;verticalLabelPosition=bottom;verticalAlign=top;html=1;outlineConnect=0;movable=1;resizable=1;rotatable=1;deletable=1;editable=1;locked=0;connectable=1;" vertex="1" parent="V0FD5MonbIdQYGrvUsWd-10">
          <mxGeometry x="345" y="60" width="30" height="60" as="geometry" />
        </mxCell>
        <mxCell id="V0FD5MonbIdQYGrvUsWd-13" value="ワーク参加者" style="shape=umlActor;verticalLabelPosition=bottom;verticalAlign=top;html=1;outlineConnect=0;movable=1;resizable=1;rotatable=1;deletable=1;editable=1;locked=0;connectable=1;" vertex="1" parent="V0FD5MonbIdQYGrvUsWd-10">
          <mxGeometry x="395" y="90" width="30" height="60" as="geometry" />
        </mxCell>
        <mxCell id="V0FD5MonbIdQYGrvUsWd-14" value="" style="group;movable=1;resizable=1;rotatable=1;deletable=1;editable=1;locked=0;connectable=1;" connectable="0" vertex="1" parent="V0FD5MonbIdQYGrvUsWd-10">
          <mxGeometry width="320" height="360" as="geometry" />
        </mxCell>
        <mxCell id="V0FD5MonbIdQYGrvUsWd-15" value="" style="ellipse;whiteSpace=wrap;html=1;aspect=fixed;movable=1;resizable=1;rotatable=1;deletable=1;editable=1;locked=0;connectable=1;fillColor=#f8cecc;strokeColor=#b85450;" vertex="1" parent="V0FD5MonbIdQYGrvUsWd-14">
          <mxGeometry width="320" height="320" as="geometry" />
        </mxCell>
        <mxCell id="V0FD5MonbIdQYGrvUsWd-16" value="部員" style="shape=umlActor;verticalLabelPosition=bottom;verticalAlign=top;html=1;outlineConnect=0;movable=1;resizable=1;rotatable=1;deletable=1;editable=1;locked=0;connectable=1;" vertex="1" parent="V0FD5MonbIdQYGrvUsWd-14">
          <mxGeometry x="55" y="170" width="30" height="60" as="geometry" />
        </mxCell>
        <mxCell id="V0FD5MonbIdQYGrvUsWd-17" value="部員" style="shape=umlActor;verticalLabelPosition=bottom;verticalAlign=top;html=1;outlineConnect=0;movable=1;resizable=1;rotatable=1;deletable=1;editable=1;locked=0;connectable=1;" vertex="1" parent="V0FD5MonbIdQYGrvUsWd-14">
          <mxGeometry x="145" y="170" width="30" height="60" as="geometry" />
        </mxCell>
        <mxCell id="V0FD5MonbIdQYGrvUsWd-18" value="企画リーダー" style="shape=umlActor;verticalLabelPosition=bottom;verticalAlign=top;html=1;outlineConnect=0;movable=1;resizable=1;rotatable=1;deletable=1;editable=1;locked=0;connectable=1;" vertex="1" parent="V0FD5MonbIdQYGrvUsWd-14">
          <mxGeometry x="145" y="40" width="30" height="60" as="geometry" />
        </mxCell>
        <mxCell id="V0FD5MonbIdQYGrvUsWd-19" value="部員" style="shape=umlActor;verticalLabelPosition=bottom;verticalAlign=top;html=1;outlineConnect=0;movable=1;resizable=1;rotatable=1;deletable=1;editable=1;locked=0;connectable=1;" vertex="1" parent="V0FD5MonbIdQYGrvUsWd-14">
          <mxGeometry x="235" y="170" width="30" height="60" as="geometry" />
        </mxCell>
        <mxCell id="V0FD5MonbIdQYGrvUsWd-20" value="" style="shape=flexArrow;endArrow=classic;html=1;rounded=0;fillColor=#FFE599;width=7.2727272727272725;endSize=5.090909090909091;endWidth=5.19742883379247;movable=1;resizable=1;rotatable=1;deletable=1;editable=1;locked=0;connectable=1;" edge="1" parent="V0FD5MonbIdQYGrvUsWd-14">
          <mxGeometry width="50" height="50" relative="1" as="geometry">
            <mxPoint x="225" y="200.20999999999998" as="sourcePoint" />
            <mxPoint x="195" y="199.77999999999997" as="targetPoint" />
          </mxGeometry>
        </mxCell>
        <mxCell id="V0FD5MonbIdQYGrvUsWd-21" value="" style="shape=flexArrow;endArrow=classic;html=1;rounded=0;fillColor=#FFE599;width=7.2727272727272725;endSize=5.090909090909091;endWidth=5.19742883379247;movable=1;resizable=1;rotatable=1;deletable=1;editable=1;locked=0;connectable=1;" edge="1" parent="V0FD5MonbIdQYGrvUsWd-14">
          <mxGeometry width="50" height="50" relative="1" as="geometry">
            <mxPoint x="128.5" y="200.18" as="sourcePoint" />
            <mxPoint x="98.5" y="199.75" as="targetPoint" />
          </mxGeometry>
        </mxCell>
        <mxCell id="V0FD5MonbIdQYGrvUsWd-22" value="" style="shape=flexArrow;endArrow=classic;html=1;rounded=0;fillColor=#FFE599;width=7.2727272727272725;endSize=5.090909090909091;endWidth=5.19742883379247;movable=1;resizable=1;rotatable=1;deletable=1;editable=1;locked=0;connectable=1;" edge="1" parent="V0FD5MonbIdQYGrvUsWd-14">
          <mxGeometry width="50" height="50" relative="1" as="geometry">
            <mxPoint x="85" y="150.43" as="sourcePoint" />
            <mxPoint x="105" y="130" as="targetPoint" />
          </mxGeometry>
        </mxCell>
        <mxCell id="V0FD5MonbIdQYGrvUsWd-23" value="" style="shape=flexArrow;endArrow=classic;html=1;rounded=0;fillColor=#FFE599;width=7.2727272727272725;endSize=5.090909090909091;endWidth=5.19742883379247;movable=1;resizable=1;rotatable=1;deletable=1;editable=1;locked=0;connectable=1;" edge="1" parent="V0FD5MonbIdQYGrvUsWd-14">
          <mxGeometry width="50" height="50" relative="1" as="geometry">
            <mxPoint x="215" y="130.43" as="sourcePoint" />
            <mxPoint x="235" y="150" as="targetPoint" />
          </mxGeometry>
        </mxCell>
        <mxCell id="V0FD5MonbIdQYGrvUsWd-24" value="&lt;b style=&quot;&quot;&gt;&lt;font style=&quot;font-size: 24px;&quot;&gt;部室&lt;br&gt;（企画・運営する）&lt;/font&gt;&lt;/b&gt;" style="text;html=1;align=center;verticalAlign=middle;whiteSpace=wrap;rounded=0;movable=1;resizable=1;rotatable=1;deletable=1;editable=1;locked=0;connectable=1;" vertex="1" parent="V0FD5MonbIdQYGrvUsWd-14">
          <mxGeometry x="50.62" y="270" width="218.75" height="40" as="geometry" />
        </mxCell>
        <mxCell id="V0FD5MonbIdQYGrvUsWd-25" value="ワーク観覧者" style="shape=umlActor;verticalLabelPosition=bottom;verticalAlign=top;html=1;outlineConnect=0;movable=1;resizable=1;rotatable=1;deletable=1;editable=1;locked=0;connectable=1;" vertex="1" parent="V0FD5MonbIdQYGrvUsWd-10">
          <mxGeometry x="542" width="30" height="60" as="geometry" />
        </mxCell>
        <mxCell id="V0FD5MonbIdQYGrvUsWd-26" value="ワーク観覧者" style="shape=umlActor;verticalLabelPosition=bottom;verticalAlign=top;html=1;outlineConnect=0;movable=1;resizable=1;rotatable=1;deletable=1;editable=1;locked=0;connectable=1;" vertex="1" parent="V0FD5MonbIdQYGrvUsWd-10">
          <mxGeometry x="415" y="550" width="30" height="60" as="geometry" />
        </mxCell>
        <mxCell id="V0FD5MonbIdQYGrvUsWd-27" value="ワーク観覧者" style="shape=umlActor;verticalLabelPosition=bottom;verticalAlign=top;html=1;outlineConnect=0;movable=1;resizable=1;rotatable=1;deletable=1;editable=1;locked=0;connectable=1;" vertex="1" parent="V0FD5MonbIdQYGrvUsWd-3">
          <mxGeometry x="935" y="440" width="30" height="60" as="geometry" />
        </mxCell>
        <mxCell id="V0FD5MonbIdQYGrvUsWd-28" value="ワーク観覧者" style="shape=umlActor;verticalLabelPosition=bottom;verticalAlign=top;html=1;outlineConnect=0;movable=1;resizable=1;rotatable=1;deletable=1;editable=1;locked=0;connectable=1;" vertex="1" parent="V0FD5MonbIdQYGrvUsWd-3">
          <mxGeometry x="485" y="400" width="30" height="60" as="geometry" />
        </mxCell>
        <mxCell id="V0FD5MonbIdQYGrvUsWd-29" value="ワーク観覧者" style="shape=umlActor;verticalLabelPosition=bottom;verticalAlign=top;html=1;outlineConnect=0;movable=1;resizable=1;rotatable=1;deletable=1;editable=1;locked=0;connectable=1;" vertex="1" parent="V0FD5MonbIdQYGrvUsWd-3">
          <mxGeometry x="365" y="840" width="30" height="60" as="geometry" />
        </mxCell>
        <mxCell id="V0FD5MonbIdQYGrvUsWd-30" value="" style="curved=1;endArrow=classic;html=1;rounded=0;entryX=1;entryY=1;entryDx=0;entryDy=0;entryPerimeter=0;strokeWidth=3;fillColor=#f5f5f5;strokeColor=#666666;dashed=1;movable=1;resizable=1;rotatable=1;deletable=1;editable=1;locked=0;connectable=1;" edge="1" parent="V0FD5MonbIdQYGrvUsWd-3">
          <mxGeometry width="50" height="50" relative="1" as="geometry">
            <mxPoint x="1125" y="790" as="sourcePoint" />
            <mxPoint x="1060" y="760" as="targetPoint" />
            <Array as="points">
              <mxPoint x="1120" y="790" />
            </Array>
          </mxGeometry>
        </mxCell>
        <mxCell id="V0FD5MonbIdQYGrvUsWd-31" value="" style="curved=1;endArrow=classic;html=1;rounded=0;fillColor=#f5f5f5;strokeColor=#666666;strokeWidth=3;movable=1;resizable=1;rotatable=1;deletable=1;editable=1;locked=0;connectable=1;dashed=1;" edge="1" parent="V0FD5MonbIdQYGrvUsWd-3">
          <mxGeometry width="50" height="50" relative="1" as="geometry">
            <mxPoint x="930" y="880" as="sourcePoint" />
            <mxPoint x="955" y="790" as="targetPoint" />
            <Array as="points">
              <mxPoint x="915" y="840" />
              <mxPoint x="935" y="790" />
            </Array>
          </mxGeometry>
        </mxCell>
        <mxCell id="V0FD5MonbIdQYGrvUsWd-32" value="" style="curved=1;endArrow=classic;html=1;rounded=0;fillColor=#f5f5f5;strokeColor=#666666;strokeWidth=3;movable=1;resizable=1;rotatable=1;deletable=1;editable=1;locked=0;connectable=1;dashed=1;" edge="1" parent="V0FD5MonbIdQYGrvUsWd-3" target="V0FD5MonbIdQYGrvUsWd-11">
          <mxGeometry width="50" height="50" relative="1" as="geometry">
            <mxPoint x="805" y="690" as="sourcePoint" />
            <mxPoint x="935" y="673.6842105263158" as="targetPoint" />
            <Array as="points">
              <mxPoint x="855" y="640" />
            </Array>
          </mxGeometry>
        </mxCell>
        <mxCell id="V0FD5MonbIdQYGrvUsWd-33" value="ワーク観覧者" style="shape=umlActor;verticalLabelPosition=bottom;verticalAlign=top;html=1;outlineConnect=0;movable=1;resizable=1;rotatable=1;deletable=1;editable=1;locked=0;connectable=1;" vertex="1" parent="V0FD5MonbIdQYGrvUsWd-3">
          <mxGeometry x="1045" y="580" width="30" height="60" as="geometry" />
        </mxCell>
        <mxCell id="V0FD5MonbIdQYGrvUsWd-34" value="&lt;font style=&quot;font-size: 20px;&quot;&gt;&lt;b style=&quot;&quot;&gt;合宿&lt;/b&gt;&lt;/font&gt;" style="text;html=1;align=center;verticalAlign=middle;whiteSpace=wrap;rounded=0;movable=1;resizable=1;rotatable=1;deletable=1;editable=1;locked=0;connectable=1;" vertex="1" parent="V0FD5MonbIdQYGrvUsWd-3">
          <mxGeometry x="915" y="850" width="130" height="30" as="geometry" />
        </mxCell>
        <mxCell id="V0FD5MonbIdQYGrvUsWd-35" value="ワーク観覧者" style="shape=umlActor;verticalLabelPosition=bottom;verticalAlign=top;html=1;outlineConnect=0;movable=1;resizable=1;rotatable=1;deletable=1;editable=1;locked=0;connectable=1;" vertex="1" parent="V0FD5MonbIdQYGrvUsWd-3">
          <mxGeometry x="1145" y="780" width="30" height="60" as="geometry" />
        </mxCell>
        <mxCell id="V0FD5MonbIdQYGrvUsWd-36" value="&lt;font style=&quot;font-size: 20px;&quot;&gt;&lt;b style=&quot;&quot;&gt;発表会&lt;/b&gt;&lt;/font&gt;" style="text;html=1;align=center;verticalAlign=middle;whiteSpace=wrap;rounded=0;movable=1;resizable=1;rotatable=1;deletable=1;editable=1;locked=0;connectable=1;" vertex="1" parent="V0FD5MonbIdQYGrvUsWd-3">
          <mxGeometry x="1025" y="930" width="130" height="30" as="geometry" />
        </mxCell>
        <mxCell id="V0FD5MonbIdQYGrvUsWd-37" value="&lt;span style=&quot;color: rgba(0, 0, 0, 0); font-family: monospace; font-size: 0px; text-align: start; text-wrap-mode: nowrap;&quot;&gt;%3CmxGraphModel%3E%3Croot%3E%3CmxCell%20id%3D%220%22%2F%3E%3CmxCell%20id%3D%221%22%20parent%3D%220%22%2F%3E%3CmxCell%20id%3D%222%22%20value%3D%22%22%20style%3D%22curved%3D1%3BendArrow%3Dclassic%3Bhtml%3D1%3Brounded%3D0%3BfillColor%3D%23f5f5f5%3BstrokeColor%3D%23666666%3BstrokeWidth%3D3%3Bmovable%3D1%3Bresizable%3D1%3Brotatable%3D1%3Bdeletable%3D1%3Beditable%3D1%3Blocked%3D0%3Bconnectable%3D1%3BexitX%3D0.5%3BexitY%3D0%3BexitDx%3D0%3BexitDy%3D0%3BexitPerimeter%3D0%3BentryX%3D0%3BentryY%3D0.3333333333333333%3BentryDx%3D0%3BentryDy%3D0%3BentryPerimeter%3D0%3Bdashed%3D1%3B%22%20edge%3D%221%22%20parent%3D%221%22%3E%3CmxGeometry%20width%3D%2250%22%20height%3D%2250%22%20relative%3D%221%22%20as%3D%22geometry%22%3E%3CmxPoint%20x%3D%22645%22%20y%3D%22450%22%20as%3D%22sourcePoint%22%2F%3E%3CmxPoint%20x%3D%22690%22%20y%3D%22320%22%20as%3D%22targetPoint%22%2F%3E%3CArray%20as%3D%22points%22%3E%3CmxPoint%20x%3D%22630%22%20y%3D%22370%22%2F%3E%3CmxPoint%20x%3D%22660%22%20y%3D%22320%22%2F%3E%3C%2FArray%3E%3C%2FmxGeometry%3E%3C%2FmxCell%3E%3C%2Froot%3E%3C%2FmxGraphModel%3E&lt;/span&gt;" style="ellipse;whiteSpace=wrap;html=1;aspect=fixed;movable=1;resizable=1;rotatable=1;deletable=1;editable=1;locked=0;connectable=1;fillColor=#dae8fc;strokeColor=#6c8ebf;" vertex="1" parent="V0FD5MonbIdQYGrvUsWd-3">
          <mxGeometry x="665" y="990" width="320" height="320" as="geometry" />
        </mxCell>
        <mxCell id="V0FD5MonbIdQYGrvUsWd-38" value="&lt;font style=&quot;font-size: 20px;&quot;&gt;&lt;b style=&quot;&quot;&gt;公演・展示&lt;/b&gt;&lt;/font&gt;" style="text;html=1;align=center;verticalAlign=middle;whiteSpace=wrap;rounded=0;movable=1;resizable=1;rotatable=1;deletable=1;editable=1;locked=0;connectable=1;" vertex="1" parent="V0FD5MonbIdQYGrvUsWd-3">
          <mxGeometry x="1150" y="1010" width="130" height="30" as="geometry" />
        </mxCell>
        <mxCell id="V0FD5MonbIdQYGrvUsWd-39" value="観客" style="shape=umlActor;verticalLabelPosition=bottom;verticalAlign=top;html=1;outlineConnect=0;movable=1;resizable=1;rotatable=1;deletable=1;editable=1;locked=0;connectable=1;" vertex="1" parent="V0FD5MonbIdQYGrvUsWd-3">
          <mxGeometry x="1132" y="420" width="30" height="60" as="geometry" />
        </mxCell>
        <mxCell id="V0FD5MonbIdQYGrvUsWd-40" value="観客" style="shape=umlActor;verticalLabelPosition=bottom;verticalAlign=top;html=1;outlineConnect=0;movable=1;resizable=1;rotatable=1;deletable=1;editable=1;locked=0;connectable=1;" vertex="1" parent="V0FD5MonbIdQYGrvUsWd-3">
          <mxGeometry x="1280" y="400" width="30" height="60" as="geometry" />
        </mxCell>
        <mxCell id="V0FD5MonbIdQYGrvUsWd-41" value="観客" style="shape=umlActor;verticalLabelPosition=bottom;verticalAlign=top;html=1;outlineConnect=0;movable=1;resizable=1;rotatable=1;deletable=1;editable=1;locked=0;connectable=1;" vertex="1" parent="V0FD5MonbIdQYGrvUsWd-3">
          <mxGeometry x="1385" y="490" width="30" height="60" as="geometry" />
        </mxCell>
        <mxCell id="V0FD5MonbIdQYGrvUsWd-42" value="観客" style="shape=umlActor;verticalLabelPosition=bottom;verticalAlign=top;html=1;outlineConnect=0;movable=1;resizable=1;rotatable=1;deletable=1;editable=1;locked=0;connectable=1;" vertex="1" parent="V0FD5MonbIdQYGrvUsWd-3">
          <mxGeometry x="1385" y="630" width="30" height="60" as="geometry" />
        </mxCell>
        <mxCell id="V0FD5MonbIdQYGrvUsWd-43" value="観客" style="shape=umlActor;verticalLabelPosition=bottom;verticalAlign=top;html=1;outlineConnect=0;movable=1;resizable=1;rotatable=1;deletable=1;editable=1;locked=0;connectable=1;" vertex="1" parent="V0FD5MonbIdQYGrvUsWd-3">
          <mxGeometry x="1365" y="810" width="30" height="60" as="geometry" />
        </mxCell>
        <mxCell id="V0FD5MonbIdQYGrvUsWd-44" value="観客" style="shape=umlActor;verticalLabelPosition=bottom;verticalAlign=top;html=1;outlineConnect=0;movable=1;resizable=1;rotatable=1;deletable=1;editable=1;locked=0;connectable=1;" vertex="1" parent="V0FD5MonbIdQYGrvUsWd-3">
          <mxGeometry x="1280" y="880" width="30" height="60" as="geometry" />
        </mxCell>
        <mxCell id="V0FD5MonbIdQYGrvUsWd-45" value="観客" style="shape=umlActor;verticalLabelPosition=bottom;verticalAlign=top;html=1;outlineConnect=0;movable=1;resizable=1;rotatable=1;deletable=1;editable=1;locked=0;connectable=1;" vertex="1" parent="V0FD5MonbIdQYGrvUsWd-3">
          <mxGeometry x="1280" y="580" width="30" height="60" as="geometry" />
        </mxCell>
        <mxCell id="V0FD5MonbIdQYGrvUsWd-46" value="" style="group;movable=1;resizable=1;rotatable=1;deletable=1;editable=1;locked=0;connectable=1;" connectable="0" vertex="1" parent="V0FD5MonbIdQYGrvUsWd-3">
          <mxGeometry x="545" y="190" width="250" height="290" as="geometry" />
        </mxCell>
        <mxCell id="V0FD5MonbIdQYGrvUsWd-47" value="&lt;span style=&quot;color: rgba(0, 0, 0, 0); font-family: monospace; font-size: 0px; text-align: start; text-wrap-mode: nowrap;&quot;&gt;%3CmxGraphModel%3E%3Croot%3E%3CmxCell%20id%3D%220%22%2F%3E%3CmxCell%20id%3D%221%22%20parent%3D%220%22%2F%3E%3CmxCell%20id%3D%222%22%20value%3D%22%22%20style%3D%22curved%3D1%3BendArrow%3Dclassic%3Bhtml%3D1%3Brounded%3D0%3BfillColor%3D%23f5f5f5%3BstrokeColor%3D%23666666%3BstrokeWidth%3D3%3Bmovable%3D1%3Bresizable%3D1%3Brotatable%3D1%3Bdeletable%3D1%3Beditable%3D1%3Blocked%3D0%3Bconnectable%3D1%3BexitX%3D0.5%3BexitY%3D0%3BexitDx%3D0%3BexitDy%3D0%3BexitPerimeter%3D0%3BentryX%3D0%3BentryY%3D0.3333333333333333%3BentryDx%3D0%3BentryDy%3D0%3BentryPerimeter%3D0%3Bdashed%3D1%3B%22%20edge%3D%221%22%20parent%3D%221%22%3E%3CmxGeometry%20width%3D%2250%22%20height%3D%2250%22%20relative%3D%221%22%20as%3D%22geometry%22%3E%3CmxPoint%20x%3D%22645%22%20y%3D%22450%22%20as%3D%22sourcePoint%22%2F%3E%3CmxPoint%20x%3D%22690%22%20y%3D%22320%22%20as%3D%22targetPoint%22%2F%3E%3CArray%20as%3D%22points%22%3E%3CmxPoint%20x%3D%22630%22%20y%3D%22370%22%2F%3E%3CmxPoint%20x%3D%22660%22%20y%3D%22320%22%2F%3E%3C%2FArray%3E%3C%2FmxGeometry%3E%3C%2FmxCell%3E%3C%2Froot%3E%3C%2FmxGraphModel%3E&lt;/span&gt;" style="ellipse;whiteSpace=wrap;html=1;aspect=fixed;movable=1;resizable=1;rotatable=1;deletable=1;editable=1;locked=0;connectable=1;fillColor=#ffe6cc;strokeColor=#d79b00;" vertex="1" parent="V0FD5MonbIdQYGrvUsWd-46">
          <mxGeometry width="250" height="250" as="geometry" />
        </mxCell>
        <mxCell id="V0FD5MonbIdQYGrvUsWd-48" value="ワーク参加者" style="shape=umlActor;verticalLabelPosition=bottom;verticalAlign=top;html=1;outlineConnect=0;movable=1;resizable=1;rotatable=1;deletable=1;editable=1;locked=0;connectable=1;" vertex="1" parent="V0FD5MonbIdQYGrvUsWd-46">
          <mxGeometry x="60" y="40" width="30" height="60" as="geometry" />
        </mxCell>
        <mxCell id="V0FD5MonbIdQYGrvUsWd-49" value="ワーク参加者" style="shape=umlActor;verticalLabelPosition=bottom;verticalAlign=top;html=1;outlineConnect=0;movable=1;resizable=1;rotatable=1;deletable=1;editable=1;locked=0;connectable=1;" vertex="1" parent="V0FD5MonbIdQYGrvUsWd-46">
          <mxGeometry x="110" y="150" width="30" height="60" as="geometry" />
        </mxCell>
        <mxCell id="V0FD5MonbIdQYGrvUsWd-50" value="ワーク参加者" style="shape=umlActor;verticalLabelPosition=bottom;verticalAlign=top;html=1;outlineConnect=0;movable=1;resizable=1;rotatable=1;deletable=1;editable=1;locked=0;connectable=1;" vertex="1" parent="V0FD5MonbIdQYGrvUsWd-46">
          <mxGeometry x="160" y="40" width="30" height="60" as="geometry" />
        </mxCell>
        <mxCell id="V0FD5MonbIdQYGrvUsWd-51" value="" style="curved=1;endArrow=classic;html=1;rounded=0;entryX=1;entryY=1;entryDx=0;entryDy=0;entryPerimeter=0;strokeWidth=3;fillColor=#f5f5f5;strokeColor=#666666;dashed=1;movable=1;resizable=1;rotatable=1;deletable=1;editable=1;locked=0;connectable=1;" edge="1" parent="V0FD5MonbIdQYGrvUsWd-46">
          <mxGeometry width="50" height="50" relative="1" as="geometry">
            <mxPoint x="300" y="180" as="sourcePoint" />
            <mxPoint x="175" y="160" as="targetPoint" />
            <Array as="points">
              <mxPoint x="235" y="190" />
            </Array>
          </mxGeometry>
        </mxCell>
        <mxCell id="V0FD5MonbIdQYGrvUsWd-52" value="" style="curved=1;endArrow=classic;html=1;rounded=0;fillColor=#f5f5f5;strokeColor=#666666;strokeWidth=3;movable=1;resizable=1;rotatable=1;deletable=1;editable=1;locked=0;connectable=1;entryX=0;entryY=0.3333333333333333;entryDx=0;entryDy=0;entryPerimeter=0;dashed=1;" edge="1" parent="V0FD5MonbIdQYGrvUsWd-46">
          <mxGeometry width="50" height="50" relative="1" as="geometry">
            <mxPoint x="25" y="260" as="sourcePoint" />
            <mxPoint x="70" y="170" as="targetPoint" />
            <Array as="points">
              <mxPoint x="10" y="220" />
              <mxPoint x="40" y="170" />
            </Array>
          </mxGeometry>
        </mxCell>
        <mxCell id="V0FD5MonbIdQYGrvUsWd-53" value="&lt;font style=&quot;font-size: 14px;&quot;&gt;&lt;b&gt;ワーク&lt;/b&gt;&lt;/font&gt;&lt;b style=&quot;font-size: 14px; background-color: transparent; color: light-dark(rgb(0, 0, 0), rgb(255, 255, 255));&quot;&gt;（現地）&lt;/b&gt;" style="text;html=1;align=center;verticalAlign=middle;whiteSpace=wrap;rounded=0;movable=1;resizable=1;rotatable=1;deletable=1;editable=1;locked=0;connectable=1;" vertex="1" parent="V0FD5MonbIdQYGrvUsWd-46">
          <mxGeometry x="60" y="250" width="130" height="30" as="geometry" />
        </mxCell>
        <mxCell id="V0FD5MonbIdQYGrvUsWd-54" value="ワーク観覧者" style="shape=umlActor;verticalLabelPosition=bottom;verticalAlign=top;html=1;outlineConnect=0;movable=1;resizable=1;rotatable=1;deletable=1;editable=1;locked=0;connectable=1;" vertex="1" parent="V0FD5MonbIdQYGrvUsWd-3">
          <mxGeometry x="825" y="170" width="30" height="60" as="geometry" />
        </mxCell>
        <mxCell id="V0FD5MonbIdQYGrvUsWd-55" value="ワーク観覧者" style="shape=umlActor;verticalLabelPosition=bottom;verticalAlign=top;html=1;outlineConnect=0;movable=1;resizable=1;rotatable=1;deletable=1;editable=1;locked=0;connectable=1;" vertex="1" parent="V0FD5MonbIdQYGrvUsWd-3">
          <mxGeometry x="645" y="1280" width="30" height="60" as="geometry" />
        </mxCell>
        <mxCell id="V0FD5MonbIdQYGrvUsWd-56" value="" style="curved=1;endArrow=classic;html=1;rounded=0;entryX=1;entryY=1;entryDx=0;entryDy=0;entryPerimeter=0;strokeWidth=3;fillColor=#f5f5f5;strokeColor=#666666;dashed=1;movable=1;resizable=1;rotatable=1;deletable=1;editable=1;locked=0;connectable=1;" edge="1" parent="V0FD5MonbIdQYGrvUsWd-3">
          <mxGeometry width="50" height="50" relative="1" as="geometry">
            <mxPoint x="1300" y="710" as="sourcePoint" />
            <mxPoint x="1205" y="730" as="targetPoint" />
            <Array as="points" />
          </mxGeometry>
        </mxCell>
        <mxCell id="V0FD5MonbIdQYGrvUsWd-57" value="&lt;b style=&quot;&quot;&gt;&lt;font style=&quot;font-size: 24px;&quot;&gt;運動場&lt;br&gt;（活動・記録する）&lt;/font&gt;&lt;/b&gt;" style="text;html=1;align=center;verticalAlign=middle;whiteSpace=wrap;rounded=0;movable=1;resizable=1;rotatable=1;deletable=1;editable=1;locked=0;connectable=1;" vertex="1" parent="V0FD5MonbIdQYGrvUsWd-3">
          <mxGeometry x="650.63" y="1530" width="218.75" height="40" as="geometry" />
        </mxCell>
        <mxCell id="V0FD5MonbIdQYGrvUsWd-58" value="" style="group;movable=1;resizable=1;rotatable=1;deletable=1;editable=1;locked=0;connectable=1;" connectable="0" vertex="1" parent="V0FD5MonbIdQYGrvUsWd-3">
          <mxGeometry x="29.999999999999886" width="380" height="440" as="geometry" />
        </mxCell>
        <mxCell id="V0FD5MonbIdQYGrvUsWd-59" value="&lt;span style=&quot;color: rgba(0, 0, 0, 0); font-family: monospace; font-size: 0px; text-align: start; text-wrap-mode: nowrap;&quot;&gt;%3CmxGraphModel%3E%3Croot%3E%3CmxCell%20id%3D%220%22%2F%3E%3CmxCell%20id%3D%221%22%20parent%3D%220%22%2F%3E%3CmxCell%20id%3D%222%22%20value%3D%22%22%20style%3D%22curved%3D1%3BendArrow%3Dclassic%3Bhtml%3D1%3Brounded%3D0%3BfillColor%3D%23f5f5f5%3BstrokeColor%3D%23666666%3BstrokeWidth%3D3%3Bmovable%3D1%3Bresizable%3D1%3Brotatable%3D1%3Bdeletable%3D1%3Beditable%3D1%3Blocked%3D0%3Bconnectable%3D1%3BexitX%3D0.5%3BexitY%3D0%3BexitDx%3D0%3BexitDy%3D0%3BexitPerimeter%3D0%3BentryX%3D0%3BentryY%3D0.3333333333333333%3BentryDx%3D0%3BentryDy%3D0%3BentryPerimeter%3D0%3Bdashed%3D1%3B%22%20edge%3D%221%22%20parent%3D%221%22%3E%3CmxGeometry%20width%3D%2250%22%20height%3D%2250%22%20relative%3D%221%22%20as%3D%22geometry%22%3E%3CmxPoint%20x%3D%22645%22%20y%3D%22450%22%20as%3D%22sourcePoint%22%2F%3E%3CmxPoint%20x%3D%22690%22%20y%3D%22320%22%20as%3D%22targetPoint%22%2F%3E%3CArray%20as%3D%22points%22%3E%3CmxPoint%20x%3D%22630%22%20y%3D%22370%22%2F%3E%3CmxPoint%20x%3D%22660%22%20y%3D%22320%22%2F%3E%3C%2FArray%3E%3C%2FmxGeometry%3E%3C%2FmxCell%3E%3C%2Froot%3E%3C%2FmxGraphModel%3E&lt;/span&gt;" style="ellipse;whiteSpace=wrap;html=1;aspect=fixed;movable=1;resizable=1;rotatable=1;deletable=1;editable=1;locked=0;connectable=1;fillColor=#bac8d3;strokeColor=#23445d;" vertex="1" parent="V0FD5MonbIdQYGrvUsWd-58">
          <mxGeometry y="90" width="320" height="320" as="geometry" />
        </mxCell>
        <mxCell id="V0FD5MonbIdQYGrvUsWd-60" value="" style="curved=1;endArrow=classic;html=1;rounded=0;strokeWidth=3;fillColor=#f5f5f5;strokeColor=#666666;dashed=1;movable=1;resizable=1;rotatable=1;deletable=1;editable=1;locked=0;connectable=1;" edge="1" parent="V0FD5MonbIdQYGrvUsWd-58">
          <mxGeometry width="50" height="50" relative="1" as="geometry">
            <mxPoint x="360" y="210" as="sourcePoint" />
            <mxPoint x="270" y="220" as="targetPoint" />
            <Array as="points">
              <mxPoint x="330" y="240" />
            </Array>
          </mxGeometry>
        </mxCell>
        <mxCell id="V0FD5MonbIdQYGrvUsWd-61" value="" style="curved=1;endArrow=classic;html=1;rounded=0;fillColor=#f5f5f5;strokeColor=#666666;strokeWidth=3;movable=1;resizable=1;rotatable=1;deletable=1;editable=1;locked=0;connectable=1;entryX=0;entryY=0.3333333333333333;entryDx=0;entryDy=0;entryPerimeter=0;dashed=1;" edge="1" parent="V0FD5MonbIdQYGrvUsWd-58">
          <mxGeometry width="50" height="50" relative="1" as="geometry">
            <mxPoint x="39" y="410" as="sourcePoint" />
            <mxPoint x="84" y="320" as="targetPoint" />
            <Array as="points">
              <mxPoint x="24" y="370" />
              <mxPoint x="54" y="320" />
            </Array>
          </mxGeometry>
        </mxCell>
        <mxCell id="V0FD5MonbIdQYGrvUsWd-62" value="" style="curved=1;endArrow=classic;html=1;rounded=0;fillColor=#f5f5f5;strokeColor=#666666;strokeWidth=3;movable=1;resizable=1;rotatable=1;deletable=1;editable=1;locked=0;connectable=1;dashed=1;" edge="1" parent="V0FD5MonbIdQYGrvUsWd-58">
          <mxGeometry width="50" height="50" relative="1" as="geometry">
            <mxPoint y="20" as="sourcePoint" />
            <mxPoint x="80" y="183.68421052631584" as="targetPoint" />
            <Array as="points">
              <mxPoint y="150" />
            </Array>
          </mxGeometry>
        </mxCell>
        <mxCell id="V0FD5MonbIdQYGrvUsWd-63" value="赤の他人" style="shape=umlActor;verticalLabelPosition=bottom;verticalAlign=top;html=1;outlineConnect=0;movable=1;resizable=1;rotatable=1;deletable=1;editable=1;locked=0;connectable=1;" vertex="1" parent="V0FD5MonbIdQYGrvUsWd-58">
          <mxGeometry x="245.0000000000001" y="-10" width="30" height="60" as="geometry" />
        </mxCell>
        <mxCell id="V0FD5MonbIdQYGrvUsWd-64" value="" style="group" connectable="0" vertex="1" parent="V0FD5MonbIdQYGrvUsWd-58">
          <mxGeometry x="105" y="190" width="115" height="107.5" as="geometry" />
        </mxCell>
        <mxCell id="V0FD5MonbIdQYGrvUsWd-65" value="&lt;font style=&quot;font-size: 14px;&quot;&gt;&lt;b style=&quot;&quot;&gt;ワーク・アーカイブ&lt;br&gt;(Notion データベース)&lt;/b&gt;&lt;/font&gt;" style="sketch=0;outlineConnect=0;fontColor=#232F3E;gradientColor=none;strokeColor=#232F3E;fillColor=#ffffff;dashed=0;verticalLabelPosition=bottom;verticalAlign=top;align=center;html=1;fontSize=12;fontStyle=0;aspect=fixed;shape=mxgraph.aws4.resourceIcon;resIcon=mxgraph.aws4.archive;" vertex="1" parent="V0FD5MonbIdQYGrvUsWd-64">
          <mxGeometry y="1.7338709677419355" width="102.14076246334312" height="102.14076246334312" as="geometry" />
        </mxCell>
        <mxCell id="V0FD5MonbIdQYGrvUsWd-66" value="" style="shape=datastore;html=1;labelPosition=center;verticalLabelPosition=bottom;align=center;verticalAlign=top;" vertex="1" parent="V0FD5MonbIdQYGrvUsWd-64">
          <mxGeometry x="11.129032258064516" y="8.669354838709678" width="89.03225806451613" height="90.16129032258065" as="geometry" />
        </mxCell>
        <mxCell id="V0FD5MonbIdQYGrvUsWd-67" value="" style="shape=image;verticalLabelPosition=bottom;labelBackgroundColor=default;verticalAlign=top;aspect=fixed;imageAspect=0;image=https://upload.wikimedia.org/wikipedia/commons/thumb/e/e9/Notion-logo.svg/1024px-Notion-logo.svg.png;" vertex="1" parent="V0FD5MonbIdQYGrvUsWd-64">
          <mxGeometry width="105.54545454545455" height="105.54545454545455" as="geometry" />
        </mxCell>
        <mxCell id="V0FD5MonbIdQYGrvUsWd-68" value="アーカイブ・リーダー" style="shape=umlActor;verticalLabelPosition=bottom;verticalAlign=top;html=1;outlineConnect=0;movable=1;resizable=1;rotatable=1;deletable=1;editable=1;locked=0;connectable=1;" vertex="1" parent="V0FD5MonbIdQYGrvUsWd-58">
          <mxGeometry x="145.0000000000001" y="100" width="30" height="60" as="geometry" />
        </mxCell>
        <mxCell id="V0FD5MonbIdQYGrvUsWd-69" value="赤の他人" style="shape=umlActor;verticalLabelPosition=bottom;verticalAlign=top;html=1;outlineConnect=0;movable=1;resizable=1;rotatable=1;deletable=1;editable=1;locked=0;connectable=1;" vertex="1" parent="V0FD5MonbIdQYGrvUsWd-3">
          <mxGeometry x="1735" y="490" width="30" height="60" as="geometry" />
        </mxCell>
        <mxCell id="V0FD5MonbIdQYGrvUsWd-70" value="ワーク観覧者" style="shape=umlActor;verticalLabelPosition=bottom;verticalAlign=top;html=1;outlineConnect=0;movable=1;resizable=1;rotatable=1;deletable=1;editable=1;locked=0;connectable=1;" vertex="1" parent="V0FD5MonbIdQYGrvUsWd-3">
          <mxGeometry x="404.9999999999999" y="110" width="30" height="60" as="geometry" />
        </mxCell>
        <mxCell id="V0FD5MonbIdQYGrvUsWd-71" value="赤の他人" style="shape=umlActor;verticalLabelPosition=bottom;verticalAlign=top;html=1;outlineConnect=0;movable=1;resizable=1;rotatable=1;deletable=1;editable=1;locked=0;connectable=1;" vertex="1" parent="V0FD5MonbIdQYGrvUsWd-3">
          <mxGeometry x="1635" y="630" width="30" height="60" as="geometry" />
        </mxCell>
        <mxCell id="V0FD5MonbIdQYGrvUsWd-72" value="赤の他人" style="shape=umlActor;verticalLabelPosition=bottom;verticalAlign=top;html=1;outlineConnect=0;movable=1;resizable=1;rotatable=1;deletable=1;editable=1;locked=0;connectable=1;" vertex="1" parent="V0FD5MonbIdQYGrvUsWd-3">
          <mxGeometry x="1425" y="1540" width="30" height="60" as="geometry" />
        </mxCell>
        <mxCell id="V0FD5MonbIdQYGrvUsWd-73" value="赤の他人" style="shape=umlActor;verticalLabelPosition=bottom;verticalAlign=top;html=1;outlineConnect=0;movable=1;resizable=1;rotatable=1;deletable=1;editable=1;locked=0;connectable=1;" vertex="1" parent="V0FD5MonbIdQYGrvUsWd-3">
          <mxGeometry x="1025" y="1600" width="30" height="60" as="geometry" />
        </mxCell>
        <mxCell id="V0FD5MonbIdQYGrvUsWd-74" value="赤の他人" style="shape=umlActor;verticalLabelPosition=bottom;verticalAlign=top;html=1;outlineConnect=0;movable=1;resizable=1;rotatable=1;deletable=1;editable=1;locked=0;connectable=1;" vertex="1" parent="V0FD5MonbIdQYGrvUsWd-3">
          <mxGeometry x="1132" y="1720" width="30" height="60" as="geometry" />
        </mxCell>
        <mxCell id="V0FD5MonbIdQYGrvUsWd-75" value="&lt;b style=&quot;font-size: 14px;&quot;&gt;ワーク（オンライン）&lt;/b&gt;" style="text;html=1;align=center;verticalAlign=middle;whiteSpace=wrap;rounded=0;movable=1;resizable=1;rotatable=1;deletable=1;editable=1;locked=0;connectable=1;" vertex="1" parent="V0FD5MonbIdQYGrvUsWd-3">
          <mxGeometry x="725" y="1310" width="210" height="30" as="geometry" />
        </mxCell>
        <mxCell id="V0FD5MonbIdQYGrvUsWd-76" value="&lt;font style=&quot;font-size: 14px;&quot;&gt;&lt;b&gt;ワーク（オンライン）&lt;/b&gt;&lt;/font&gt;" style="text;html=1;align=center;verticalAlign=middle;whiteSpace=wrap;rounded=0;movable=1;resizable=1;rotatable=1;deletable=1;editable=1;locked=0;connectable=1;" vertex="1" parent="V0FD5MonbIdQYGrvUsWd-3">
          <mxGeometry x="954.9999999999999" y="360" width="190" height="30" as="geometry" />
        </mxCell>
        <mxCell id="V0FD5MonbIdQYGrvUsWd-77" value="ワーク観覧者" style="shape=umlActor;verticalLabelPosition=bottom;verticalAlign=top;html=1;outlineConnect=0;movable=1;resizable=1;rotatable=1;deletable=1;editable=1;locked=0;connectable=1;" vertex="1" parent="V0FD5MonbIdQYGrvUsWd-3">
          <mxGeometry x="105" y="920" width="30" height="60" as="geometry" />
        </mxCell>
        <mxCell id="V0FD5MonbIdQYGrvUsWd-78" value="" style="group;movable=1;resizable=1;rotatable=1;deletable=1;editable=1;locked=0;connectable=1;" connectable="0" vertex="1" parent="V0FD5MonbIdQYGrvUsWd-3">
          <mxGeometry x="1075" y="1280" width="380" height="440" as="geometry" />
        </mxCell>
        <mxCell id="V0FD5MonbIdQYGrvUsWd-79" value="&lt;span style=&quot;color: rgba(0, 0, 0, 0); font-family: monospace; font-size: 0px; text-align: start; text-wrap-mode: nowrap;&quot;&gt;%3CmxGraphModel%3E%3Croot%3E%3CmxCell%20id%3D%220%22%2F%3E%3CmxCell%20id%3D%221%22%20parent%3D%220%22%2F%3E%3CmxCell%20id%3D%222%22%20value%3D%22%22%20style%3D%22curved%3D1%3BendArrow%3Dclassic%3Bhtml%3D1%3Brounded%3D0%3BfillColor%3D%23f5f5f5%3BstrokeColor%3D%23666666%3BstrokeWidth%3D3%3Bmovable%3D1%3Bresizable%3D1%3Brotatable%3D1%3Bdeletable%3D1%3Beditable%3D1%3Blocked%3D0%3Bconnectable%3D1%3BexitX%3D0.5%3BexitY%3D0%3BexitDx%3D0%3BexitDy%3D0%3BexitPerimeter%3D0%3BentryX%3D0%3BentryY%3D0.3333333333333333%3BentryDx%3D0%3BentryDy%3D0%3BentryPerimeter%3D0%3Bdashed%3D1%3B%22%20edge%3D%221%22%20parent%3D%221%22%3E%3CmxGeometry%20width%3D%2250%22%20height%3D%2250%22%20relative%3D%221%22%20as%3D%22geometry%22%3E%3CmxPoint%20x%3D%22645%22%20y%3D%22450%22%20as%3D%22sourcePoint%22%2F%3E%3CmxPoint%20x%3D%22690%22%20y%3D%22320%22%20as%3D%22targetPoint%22%2F%3E%3CArray%20as%3D%22points%22%3E%3CmxPoint%20x%3D%22630%22%20y%3D%22370%22%2F%3E%3CmxPoint%20x%3D%22660%22%20y%3D%22320%22%2F%3E%3C%2FArray%3E%3C%2FmxGeometry%3E%3C%2FmxCell%3E%3C%2Froot%3E%3C%2FmxGraphModel%3E&lt;/span&gt;" style="ellipse;whiteSpace=wrap;html=1;aspect=fixed;movable=1;resizable=1;rotatable=1;deletable=1;editable=1;locked=0;connectable=1;fillColor=#bac8d3;strokeColor=#23445d;" vertex="1" parent="V0FD5MonbIdQYGrvUsWd-78">
          <mxGeometry y="90" width="320" height="320" as="geometry" />
        </mxCell>
        <mxCell id="V0FD5MonbIdQYGrvUsWd-80" value="" style="curved=1;endArrow=classic;html=1;rounded=0;strokeWidth=3;fillColor=#f5f5f5;strokeColor=#666666;dashed=1;movable=1;resizable=1;rotatable=1;deletable=1;editable=1;locked=0;connectable=1;" edge="1" parent="V0FD5MonbIdQYGrvUsWd-78">
          <mxGeometry width="50" height="50" relative="1" as="geometry">
            <mxPoint x="360" y="210" as="sourcePoint" />
            <mxPoint x="270" y="220" as="targetPoint" />
            <Array as="points">
              <mxPoint x="330" y="240" />
            </Array>
          </mxGeometry>
        </mxCell>
        <mxCell id="V0FD5MonbIdQYGrvUsWd-81" value="" style="curved=1;endArrow=classic;html=1;rounded=0;fillColor=#f5f5f5;strokeColor=#666666;strokeWidth=3;movable=1;resizable=1;rotatable=1;deletable=1;editable=1;locked=0;connectable=1;entryX=0;entryY=0.3333333333333333;entryDx=0;entryDy=0;entryPerimeter=0;dashed=1;" edge="1" parent="V0FD5MonbIdQYGrvUsWd-78">
          <mxGeometry width="50" height="50" relative="1" as="geometry">
            <mxPoint x="39" y="410" as="sourcePoint" />
            <mxPoint x="84" y="320" as="targetPoint" />
            <Array as="points">
              <mxPoint x="24" y="370" />
              <mxPoint x="54" y="320" />
            </Array>
          </mxGeometry>
        </mxCell>
        <mxCell id="V0FD5MonbIdQYGrvUsWd-82" value="" style="curved=1;endArrow=classic;html=1;rounded=0;fillColor=#f5f5f5;strokeColor=#666666;strokeWidth=3;movable=1;resizable=1;rotatable=1;deletable=1;editable=1;locked=0;connectable=1;dashed=1;" edge="1" parent="V0FD5MonbIdQYGrvUsWd-78">
          <mxGeometry width="50" height="50" relative="1" as="geometry">
            <mxPoint y="20" as="sourcePoint" />
            <mxPoint x="80" y="183.68421052631584" as="targetPoint" />
            <Array as="points">
              <mxPoint y="150" />
            </Array>
          </mxGeometry>
        </mxCell>
        <mxCell id="V0FD5MonbIdQYGrvUsWd-83" value="&lt;font style=&quot;font-size: 14px;&quot;&gt;&lt;b style=&quot;&quot;&gt;ワーク・アーカイブ&lt;br&gt;（アーカイブブック）&lt;/b&gt;&lt;/font&gt;" style="sketch=0;outlineConnect=0;fontColor=#232F3E;gradientColor=none;strokeColor=#232F3E;fillColor=#ffffff;dashed=0;verticalLabelPosition=bottom;verticalAlign=top;align=center;html=1;fontSize=12;fontStyle=0;aspect=fixed;shape=mxgraph.aws4.resourceIcon;resIcon=mxgraph.aws4.archive;" vertex="1" parent="V0FD5MonbIdQYGrvUsWd-78">
          <mxGeometry x="85" y="175" width="150" height="150" as="geometry" />
        </mxCell>
        <mxCell id="V0FD5MonbIdQYGrvUsWd-84" value="" style="html=1;verticalLabelPosition=bottom;align=center;labelBackgroundColor=#ffffff;verticalAlign=top;strokeWidth=2;strokeColor=#0080F0;shadow=0;dashed=0;shape=mxgraph.ios7.icons.book;" vertex="1" parent="V0FD5MonbIdQYGrvUsWd-78">
          <mxGeometry x="100" y="190" width="120" height="130" as="geometry" />
        </mxCell>
        <mxCell id="V0FD5MonbIdQYGrvUsWd-85" value="アーカイブ・リーダー" style="shape=umlActor;verticalLabelPosition=bottom;verticalAlign=top;html=1;outlineConnect=0;movable=1;resizable=1;rotatable=1;deletable=1;editable=1;locked=0;connectable=1;" vertex="1" parent="V0FD5MonbIdQYGrvUsWd-78">
          <mxGeometry x="145" y="100" width="30" height="60" as="geometry" />
        </mxCell>
        <mxCell id="V0FD5MonbIdQYGrvUsWd-86" value="" style="group" connectable="0" vertex="1" parent="V0FD5MonbIdQYGrvUsWd-3">
          <mxGeometry x="1565" y="430" width="150" height="140" as="geometry" />
        </mxCell>
        <mxCell id="V0FD5MonbIdQYGrvUsWd-87" value="&lt;font style=&quot;font-size: 14px;&quot;&gt;&lt;b style=&quot;&quot;&gt;企画アーカイブ&lt;br&gt;（アーカイブブック）&lt;/b&gt;&lt;/font&gt;" style="sketch=0;outlineConnect=0;fontColor=#232F3E;gradientColor=none;strokeColor=#232F3E;fillColor=#ffffff;dashed=0;verticalLabelPosition=bottom;verticalAlign=top;align=center;html=1;fontSize=12;fontStyle=0;aspect=fixed;shape=mxgraph.aws4.resourceIcon;resIcon=mxgraph.aws4.archive;" vertex="1" parent="V0FD5MonbIdQYGrvUsWd-86">
          <mxGeometry width="140" height="140" as="geometry" />
        </mxCell>
        <mxCell id="V0FD5MonbIdQYGrvUsWd-88" value="" style="html=1;verticalLabelPosition=bottom;align=center;labelBackgroundColor=#ffffff;verticalAlign=top;strokeWidth=2;strokeColor=#0080F0;shadow=0;dashed=0;shape=mxgraph.ios7.icons.book;" vertex="1" parent="V0FD5MonbIdQYGrvUsWd-86">
          <mxGeometry x="15" y="14" width="120" height="121.33333333333334" as="geometry" />
        </mxCell>
        <mxCell id="V0FD5MonbIdQYGrvUsWd-89" value="赤の他人" style="shape=umlActor;verticalLabelPosition=bottom;verticalAlign=top;html=1;outlineConnect=0;movable=1;resizable=1;rotatable=1;deletable=1;editable=1;locked=0;connectable=1;" vertex="1" parent="V0FD5MonbIdQYGrvUsWd-3">
          <mxGeometry x="1575" y="320" width="30" height="60" as="geometry" />
        </mxCell>
        <mxCell id="V0FD5MonbIdQYGrvUsWd-90" value="" style="shape=image;verticalLabelPosition=bottom;labelBackgroundColor=default;verticalAlign=top;aspect=fixed;imageAspect=0;image=https://static.vecteezy.com/system/resources/previews/018/930/718/original/discord-logo-discord-icon-transparent-free-png.png;" vertex="1" parent="V0FD5MonbIdQYGrvUsWd-3">
          <mxGeometry x="729.9999999999999" y="1055" width="190" height="190" as="geometry" />
        </mxCell>
        <mxCell id="V0FD5MonbIdQYGrvUsWd-91" value="ワーク参加者" style="shape=umlActor;verticalLabelPosition=bottom;verticalAlign=top;html=1;outlineConnect=0;movable=1;resizable=1;rotatable=1;deletable=1;editable=1;locked=0;connectable=1;" vertex="1" parent="V0FD5MonbIdQYGrvUsWd-3">
          <mxGeometry x="704" y="1110" width="30" height="60" as="geometry" />
        </mxCell>
        <mxCell id="V0FD5MonbIdQYGrvUsWd-92" value="ワーク参加者" style="shape=umlActor;verticalLabelPosition=bottom;verticalAlign=top;html=1;outlineConnect=0;movable=1;resizable=1;rotatable=1;deletable=1;editable=1;locked=0;connectable=1;" vertex="1" parent="V0FD5MonbIdQYGrvUsWd-3">
          <mxGeometry x="845" y="1220" width="30" height="60" as="geometry" />
        </mxCell>
        <mxCell id="V0FD5MonbIdQYGrvUsWd-93" value="ワーク参加者" style="shape=umlActor;verticalLabelPosition=bottom;verticalAlign=top;html=1;outlineConnect=0;movable=1;resizable=1;rotatable=1;deletable=1;editable=1;locked=0;connectable=1;" vertex="1" parent="V0FD5MonbIdQYGrvUsWd-3">
          <mxGeometry x="855" y="1010" width="30" height="60" as="geometry" />
        </mxCell>
        <mxCell id="V0FD5MonbIdQYGrvUsWd-94" value="アーカイブ・リーダー" style="shape=umlActor;verticalLabelPosition=bottom;verticalAlign=top;html=1;outlineConnect=0;movable=1;resizable=1;rotatable=1;deletable=1;editable=1;locked=0;connectable=1;" vertex="1" parent="V0FD5MonbIdQYGrvUsWd-3">
          <mxGeometry x="1505" y="420" width="30" height="60" as="geometry" />
        </mxCell>
        <mxCell id="V0FD5MonbIdQYGrvUsWd-95" value="&lt;span style=&quot;color: rgba(0, 0, 0, 0); font-family: monospace; font-size: 0px; text-align: start; text-wrap-mode: nowrap;&quot;&gt;%3CmxGraphModel%3E%3Croot%3E%3CmxCell%20id%3D%220%22%2F%3E%3CmxCell%20id%3D%221%22%20parent%3D%220%22%2F%3E%3CmxCell%20id%3D%222%22%20value%3D%22%22%20style%3D%22curved%3D1%3BendArrow%3Dclassic%3Bhtml%3D1%3Brounded%3D0%3BfillColor%3D%23f5f5f5%3BstrokeColor%3D%23666666%3BstrokeWidth%3D3%3Bmovable%3D1%3Bresizable%3D1%3Brotatable%3D1%3Bdeletable%3D1%3Beditable%3D1%3Blocked%3D0%3Bconnectable%3D1%3BexitX%3D0.5%3BexitY%3D0%3BexitDx%3D0%3BexitDy%3D0%3BexitPerimeter%3D0%3BentryX%3D0%3BentryY%3D0.3333333333333333%3BentryDx%3D0%3BentryDy%3D0%3BentryPerimeter%3D0%3Bdashed%3D1%3B%22%20edge%3D%221%22%20parent%3D%221%22%3E%3CmxGeometry%20width%3D%2250%22%20height%3D%2250%22%20relative%3D%221%22%20as%3D%22geometry%22%3E%3CmxPoint%20x%3D%22645%22%20y%3D%22450%22%20as%3D%22sourcePoint%22%2F%3E%3CmxPoint%20x%3D%22690%22%20y%3D%22320%22%20as%3D%22targetPoint%22%2F%3E%3CArray%20as%3D%22points%22%3E%3CmxPoint%20x%3D%22630%22%20y%3D%22370%22%2F%3E%3CmxPoint%20x%3D%22660%22%20y%3D%22320%22%2F%3E%3C%2FArray%3E%3C%2FmxGeometry%3E%3C%2FmxCell%3E%3C%2Froot%3E%3C%2FmxGraphModel%3E&lt;/span&gt;" style="ellipse;whiteSpace=wrap;html=1;aspect=fixed;movable=1;resizable=1;rotatable=1;deletable=1;editable=1;locked=0;connectable=1;fillColor=#dae8fc;strokeColor=#6c8ebf;" vertex="1" parent="V0FD5MonbIdQYGrvUsWd-3">
          <mxGeometry x="154.9999999999999" y="958.6800000000001" width="320" height="320" as="geometry" />
        </mxCell>
        <mxCell id="V0FD5MonbIdQYGrvUsWd-96" value="&lt;b style=&quot;font-size: 14px;&quot;&gt;ワーク（オンライン）&lt;/b&gt;" style="text;html=1;align=center;verticalAlign=middle;whiteSpace=wrap;rounded=0;movable=1;resizable=1;rotatable=1;deletable=1;editable=1;locked=0;connectable=1;" vertex="1" parent="V0FD5MonbIdQYGrvUsWd-3">
          <mxGeometry x="214.9999999999999" y="1278.68" width="200" height="30" as="geometry" />
        </mxCell>
        <mxCell id="V0FD5MonbIdQYGrvUsWd-97" value="" style="curved=1;endArrow=classic;html=1;rounded=0;strokeWidth=3;fillColor=#f5f5f5;strokeColor=#666666;dashed=1;movable=1;resizable=1;rotatable=1;deletable=1;editable=1;locked=0;connectable=1;" edge="1" parent="V0FD5MonbIdQYGrvUsWd-3">
          <mxGeometry width="50" height="50" relative="1" as="geometry">
            <mxPoint x="514.9999999999999" y="1078.68" as="sourcePoint" />
            <mxPoint x="424.9999999999999" y="1088.68" as="targetPoint" />
            <Array as="points">
              <mxPoint x="484.9999999999999" y="1108.68" />
            </Array>
          </mxGeometry>
        </mxCell>
        <mxCell id="V0FD5MonbIdQYGrvUsWd-98" value="" style="curved=1;endArrow=classic;html=1;rounded=0;fillColor=#f5f5f5;strokeColor=#666666;strokeWidth=3;movable=1;resizable=1;rotatable=1;deletable=1;editable=1;locked=0;connectable=1;entryX=0;entryY=0.3333333333333333;entryDx=0;entryDy=0;entryPerimeter=0;dashed=1;" edge="1" parent="V0FD5MonbIdQYGrvUsWd-3">
          <mxGeometry width="50" height="50" relative="1" as="geometry">
            <mxPoint x="193.9999999999999" y="1278.68" as="sourcePoint" />
            <mxPoint x="238.9999999999999" y="1188.68" as="targetPoint" />
            <Array as="points">
              <mxPoint x="178.9999999999999" y="1238.68" />
              <mxPoint x="208.9999999999999" y="1188.68" />
            </Array>
          </mxGeometry>
        </mxCell>
        <mxCell id="V0FD5MonbIdQYGrvUsWd-99" value="" style="shape=image;verticalLabelPosition=bottom;labelBackgroundColor=default;verticalAlign=top;aspect=fixed;imageAspect=0;image=https://static.vecteezy.com/system/resources/previews/018/930/718/original/discord-logo-discord-icon-transparent-free-png.png;" vertex="1" parent="V0FD5MonbIdQYGrvUsWd-3">
          <mxGeometry x="219.9999999999999" y="1023.6800000000001" width="190" height="190" as="geometry" />
        </mxCell>
        <mxCell id="V0FD5MonbIdQYGrvUsWd-100" value="ワーク参加者" style="shape=umlActor;verticalLabelPosition=bottom;verticalAlign=top;html=1;outlineConnect=0;movable=1;resizable=1;rotatable=1;deletable=1;editable=1;locked=0;connectable=1;" vertex="1" parent="V0FD5MonbIdQYGrvUsWd-3">
          <mxGeometry x="300" y="968.6800000000001" width="30" height="60" as="geometry" />
        </mxCell>
        <mxCell id="V0FD5MonbIdQYGrvUsWd-101" value="ワーク参加者" style="shape=umlActor;verticalLabelPosition=bottom;verticalAlign=top;html=1;outlineConnect=0;movable=1;resizable=1;rotatable=1;deletable=1;editable=1;locked=0;connectable=1;" vertex="1" parent="V0FD5MonbIdQYGrvUsWd-3">
          <mxGeometry x="270" y="1188.68" width="30" height="60" as="geometry" />
        </mxCell>
        <mxCell id="V0FD5MonbIdQYGrvUsWd-102" value="ワーク参加者" style="shape=umlActor;verticalLabelPosition=bottom;verticalAlign=top;html=1;outlineConnect=0;movable=1;resizable=1;rotatable=1;deletable=1;editable=1;locked=0;connectable=1;" vertex="1" parent="V0FD5MonbIdQYGrvUsWd-3">
          <mxGeometry x="395" y="1108.68" width="30" height="60" as="geometry" />
        </mxCell>
        <mxCell id="V0FD5MonbIdQYGrvUsWd-103" value="ワーク観覧者" style="shape=umlActor;verticalLabelPosition=bottom;verticalAlign=top;html=1;outlineConnect=0;movable=1;resizable=1;rotatable=1;deletable=1;editable=1;locked=0;connectable=1;" vertex="1" parent="V0FD5MonbIdQYGrvUsWd-3">
          <mxGeometry x="194.9999999999999" y="1308.68" width="30" height="60" as="geometry" />
        </mxCell>
        <mxCell id="V0FD5MonbIdQYGrvUsWd-104" value="" style="curved=1;endArrow=classic;html=1;rounded=0;fillColor=#f5f5f5;strokeColor=#666666;strokeWidth=3;movable=1;resizable=1;rotatable=1;deletable=1;editable=1;locked=0;connectable=1;dashed=1;" edge="1" parent="V0FD5MonbIdQYGrvUsWd-3">
          <mxGeometry width="50" height="50" relative="1" as="geometry">
            <mxPoint x="169.9999999999999" y="860" as="sourcePoint" />
            <mxPoint x="249.9999999999999" y="1023.6842105263158" as="targetPoint" />
            <Array as="points">
              <mxPoint x="169.9999999999999" y="990" />
            </Array>
          </mxGeometry>
        </mxCell>
        <mxCell id="V0FD5MonbIdQYGrvUsWd-105" value="" style="group" connectable="0" vertex="1" parent="V0FD5MonbIdQYGrvUsWd-3">
          <mxGeometry x="1600" y="772.5" width="115" height="107.5" as="geometry" />
        </mxCell>
        <mxCell id="V0FD5MonbIdQYGrvUsWd-106" value="&lt;font style=&quot;font-size: 14px;&quot;&gt;&lt;b style=&quot;&quot;&gt;プロセスのアーカイブ&lt;br&gt;(Notion データベース)&lt;/b&gt;&lt;/font&gt;" style="sketch=0;outlineConnect=0;fontColor=#232F3E;gradientColor=none;strokeColor=#232F3E;fillColor=#ffffff;dashed=0;verticalLabelPosition=bottom;verticalAlign=top;align=center;html=1;fontSize=12;fontStyle=0;aspect=fixed;shape=mxgraph.aws4.resourceIcon;resIcon=mxgraph.aws4.archive;" vertex="1" parent="V0FD5MonbIdQYGrvUsWd-105">
          <mxGeometry y="1.7338709677419355" width="102.14076246334312" height="102.14076246334312" as="geometry" />
        </mxCell>
        <mxCell id="V0FD5MonbIdQYGrvUsWd-107" value="" style="shape=datastore;html=1;labelPosition=center;verticalLabelPosition=bottom;align=center;verticalAlign=top;" vertex="1" parent="V0FD5MonbIdQYGrvUsWd-105">
          <mxGeometry x="11.129032258064516" y="8.669354838709678" width="89.03225806451613" height="90.16129032258065" as="geometry" />
        </mxCell>
        <mxCell id="V0FD5MonbIdQYGrvUsWd-108" value="" style="shape=image;verticalLabelPosition=bottom;labelBackgroundColor=default;verticalAlign=top;aspect=fixed;imageAspect=0;image=https://upload.wikimedia.org/wikipedia/commons/thumb/e/e9/Notion-logo.svg/1024px-Notion-logo.svg.png;" vertex="1" parent="V0FD5MonbIdQYGrvUsWd-105">
          <mxGeometry width="105.54545454545455" height="105.54545454545455" as="geometry" />
        </mxCell>
        <mxCell id="V0FD5MonbIdQYGrvUsWd-109" value="" style="group" connectable="0" vertex="1" parent="V0FD5MonbIdQYGrvUsWd-3">
          <mxGeometry x="1365" y="205" width="117.5" height="115" as="geometry" />
        </mxCell>
        <mxCell id="V0FD5MonbIdQYGrvUsWd-110" value="&lt;font style=&quot;font-size: 14px;&quot;&gt;&lt;b style=&quot;&quot;&gt;広報&lt;br&gt;(SNS)&lt;/b&gt;&lt;/font&gt;" style="sketch=0;outlineConnect=0;fontColor=#232F3E;gradientColor=none;strokeColor=#232F3E;fillColor=#ffffff;dashed=0;verticalLabelPosition=bottom;verticalAlign=top;align=center;html=1;fontSize=12;fontStyle=0;aspect=fixed;shape=mxgraph.aws4.resourceIcon;resIcon=mxgraph.aws4.archive;" vertex="1" parent="V0FD5MonbIdQYGrvUsWd-109">
          <mxGeometry x="1.9262295081967213" width="113.11475409836066" height="113.11475409836066" as="geometry" />
        </mxCell>
        <mxCell id="V0FD5MonbIdQYGrvUsWd-111" value="" style="shape=image;verticalLabelPosition=bottom;labelBackgroundColor=default;verticalAlign=top;aspect=fixed;imageAspect=0;image=https://cdn.pixabay.com/photo/2021/06/15/12/17/instagram-6338401_1280.png;" vertex="1" parent="V0FD5MonbIdQYGrvUsWd-109">
          <mxGeometry width="115" height="115" as="geometry" />
        </mxCell>
        <mxCell id="V0FD5MonbIdQYGrvUsWd-112" value="赤の他人" style="shape=umlActor;verticalLabelPosition=bottom;verticalAlign=top;html=1;outlineConnect=0;movable=1;resizable=1;rotatable=1;deletable=1;editable=1;locked=0;connectable=1;" vertex="1" parent="V0FD5MonbIdQYGrvUsWd-3">
          <mxGeometry x="1250" y="205" width="30" height="60" as="geometry" />
        </mxCell>
        <mxCell id="V0FD5MonbIdQYGrvUsWd-113" value="赤の他人" style="shape=umlActor;verticalLabelPosition=bottom;verticalAlign=top;html=1;outlineConnect=0;movable=1;resizable=1;rotatable=1;deletable=1;editable=1;locked=0;connectable=1;" vertex="1" parent="V0FD5MonbIdQYGrvUsWd-3">
          <mxGeometry x="1520" y="920" width="30" height="60" as="geometry" />
        </mxCell>
        <mxCell id="V0FD5MonbIdQYGrvUsWd-114" value="赤の他人" style="shape=umlActor;verticalLabelPosition=bottom;verticalAlign=top;html=1;outlineConnect=0;movable=1;resizable=1;rotatable=1;deletable=1;editable=1;locked=0;connectable=1;" vertex="1" parent="V0FD5MonbIdQYGrvUsWd-3">
          <mxGeometry x="1765" y="740" width="30" height="60" as="geometry" />
        </mxCell>
        <mxCell id="V0FD5MonbIdQYGrvUsWd-115" value="" style="group;movable=1;resizable=1;rotatable=1;deletable=1;editable=1;locked=0;connectable=1;" connectable="0" vertex="1" parent="1">
          <mxGeometry x="40" y="110" width="250" height="290" as="geometry" />
        </mxCell>
        <mxCell id="V0FD5MonbIdQYGrvUsWd-116" value="&lt;span style=&quot;color: rgba(0, 0, 0, 0); font-family: monospace; font-size: 0px; text-align: start; text-wrap-mode: nowrap;&quot;&gt;%3CmxGraphModel%3E%3Croot%3E%3CmxCell%20id%3D%220%22%2F%3E%3CmxCell%20id%3D%221%22%20parent%3D%220%22%2F%3E%3CmxCell%20id%3D%222%22%20value%3D%22%22%20style%3D%22curved%3D1%3BendArrow%3Dclassic%3Bhtml%3D1%3Brounded%3D0%3BfillColor%3D%23f5f5f5%3BstrokeColor%3D%23666666%3BstrokeWidth%3D3%3Bmovable%3D1%3Bresizable%3D1%3Brotatable%3D1%3Bdeletable%3D1%3Beditable%3D1%3Blocked%3D0%3Bconnectable%3D1%3BexitX%3D0.5%3BexitY%3D0%3BexitDx%3D0%3BexitDy%3D0%3BexitPerimeter%3D0%3BentryX%3D0%3BentryY%3D0.3333333333333333%3BentryDx%3D0%3BentryDy%3D0%3BentryPerimeter%3D0%3Bdashed%3D1%3B%22%20edge%3D%221%22%20parent%3D%221%22%3E%3CmxGeometry%20width%3D%2250%22%20height%3D%2250%22%20relative%3D%221%22%20as%3D%22geometry%22%3E%3CmxPoint%20x%3D%22645%22%20y%3D%22450%22%20as%3D%22sourcePoint%22%2F%3E%3CmxPoint%20x%3D%22690%22%20y%3D%22320%22%20as%3D%22targetPoint%22%2F%3E%3CArray%20as%3D%22points%22%3E%3CmxPoint%20x%3D%22630%22%20y%3D%22370%22%2F%3E%3CmxPoint%20x%3D%22660%22%20y%3D%22320%22%2F%3E%3C%2FArray%3E%3C%2FmxGeometry%3E%3C%2FmxCell%3E%3C%2Froot%3E%3C%2FmxGraphModel%3E&lt;/span&gt;" style="ellipse;whiteSpace=wrap;html=1;aspect=fixed;movable=1;resizable=1;rotatable=1;deletable=1;editable=1;locked=0;connectable=1;fillColor=#ffe6cc;strokeColor=#d79b00;" vertex="1" parent="V0FD5MonbIdQYGrvUsWd-115">
          <mxGeometry width="250" height="250" as="geometry" />
        </mxCell>
        <mxCell id="V0FD5MonbIdQYGrvUsWd-117" value="ワーク参加者" style="shape=umlActor;verticalLabelPosition=bottom;verticalAlign=top;html=1;outlineConnect=0;movable=1;resizable=1;rotatable=1;deletable=1;editable=1;locked=0;connectable=1;" vertex="1" parent="V0FD5MonbIdQYGrvUsWd-115">
          <mxGeometry x="60" y="40" width="30" height="60" as="geometry" />
        </mxCell>
        <mxCell id="V0FD5MonbIdQYGrvUsWd-118" value="ワーク参加者" style="shape=umlActor;verticalLabelPosition=bottom;verticalAlign=top;html=1;outlineConnect=0;movable=1;resizable=1;rotatable=1;deletable=1;editable=1;locked=0;connectable=1;" vertex="1" parent="V0FD5MonbIdQYGrvUsWd-115">
          <mxGeometry x="110" y="150" width="30" height="60" as="geometry" />
        </mxCell>
        <mxCell id="V0FD5MonbIdQYGrvUsWd-119" value="ワーク参加者" style="shape=umlActor;verticalLabelPosition=bottom;verticalAlign=top;html=1;outlineConnect=0;movable=1;resizable=1;rotatable=1;deletable=1;editable=1;locked=0;connectable=1;" vertex="1" parent="V0FD5MonbIdQYGrvUsWd-115">
          <mxGeometry x="160" y="40" width="30" height="60" as="geometry" />
        </mxCell>
        <mxCell id="V0FD5MonbIdQYGrvUsWd-120" value="" style="curved=1;endArrow=classic;html=1;rounded=0;entryX=1;entryY=1;entryDx=0;entryDy=0;entryPerimeter=0;strokeWidth=3;fillColor=#f5f5f5;strokeColor=#666666;dashed=1;movable=1;resizable=1;rotatable=1;deletable=1;editable=1;locked=0;connectable=1;" edge="1" parent="V0FD5MonbIdQYGrvUsWd-115">
          <mxGeometry width="50" height="50" relative="1" as="geometry">
            <mxPoint x="300" y="180" as="sourcePoint" />
            <mxPoint x="175" y="160" as="targetPoint" />
            <Array as="points">
              <mxPoint x="235" y="190" />
            </Array>
          </mxGeometry>
        </mxCell>
        <mxCell id="V0FD5MonbIdQYGrvUsWd-121" value="" style="curved=1;endArrow=classic;html=1;rounded=0;fillColor=#f5f5f5;strokeColor=#666666;strokeWidth=3;movable=1;resizable=1;rotatable=1;deletable=1;editable=1;locked=0;connectable=1;entryX=0;entryY=0.3333333333333333;entryDx=0;entryDy=0;entryPerimeter=0;dashed=1;" edge="1" parent="V0FD5MonbIdQYGrvUsWd-115">
          <mxGeometry width="50" height="50" relative="1" as="geometry">
            <mxPoint x="25" y="260" as="sourcePoint" />
            <mxPoint x="70" y="170" as="targetPoint" />
            <Array as="points">
              <mxPoint x="10" y="220" />
              <mxPoint x="40" y="170" />
            </Array>
          </mxGeometry>
        </mxCell>
        <mxCell id="V0FD5MonbIdQYGrvUsWd-122" value="&lt;font style=&quot;font-size: 14px;&quot;&gt;&lt;b&gt;ワーク（現地）&lt;/b&gt;&lt;/font&gt;" style="text;html=1;align=center;verticalAlign=middle;whiteSpace=wrap;rounded=0;movable=1;resizable=1;rotatable=1;deletable=1;editable=1;locked=0;connectable=1;" vertex="1" parent="V0FD5MonbIdQYGrvUsWd-115">
          <mxGeometry x="60" y="250" width="130" height="30" as="geometry" />
        </mxCell>
        <mxCell id="V0FD5MonbIdQYGrvUsWd-123" value="" style="curved=1;endArrow=classic;html=1;rounded=0;strokeWidth=3;fillColor=#f5f5f5;strokeColor=#666666;dashed=1;movable=1;resizable=1;rotatable=1;deletable=1;editable=1;locked=0;connectable=1;" edge="1" parent="1">
          <mxGeometry width="50" height="50" relative="1" as="geometry">
            <mxPoint x="190" y="60" as="sourcePoint" />
            <mxPoint x="150" y="150" as="targetPoint" />
            <Array as="points">
              <mxPoint x="140" y="70" />
            </Array>
          </mxGeometry>
        </mxCell>
        <mxCell id="V0FD5MonbIdQYGrvUsWd-124" value="" style="curved=1;endArrow=classic;html=1;rounded=0;strokeWidth=3;fillColor=#f5f5f5;strokeColor=#666666;dashed=1;movable=1;resizable=1;rotatable=1;deletable=1;editable=1;locked=0;connectable=1;" edge="1" parent="1">
          <mxGeometry width="50" height="50" relative="1" as="geometry">
            <mxPoint x="720" y="660" as="sourcePoint" />
            <mxPoint x="630" y="670" as="targetPoint" />
            <Array as="points">
              <mxPoint x="690" y="690" />
            </Array>
          </mxGeometry>
        </mxCell>
        <mxCell id="V0FD5MonbIdQYGrvUsWd-125" value="" style="curved=1;endArrow=classic;html=1;rounded=0;fillColor=#f5f5f5;strokeColor=#666666;strokeWidth=3;movable=1;resizable=1;rotatable=1;deletable=1;editable=1;locked=0;connectable=1;entryX=0;entryY=0.3333333333333333;entryDx=0;entryDy=0;entryPerimeter=0;dashed=1;" edge="1" parent="1">
          <mxGeometry width="50" height="50" relative="1" as="geometry">
            <mxPoint x="399" y="860" as="sourcePoint" />
            <mxPoint x="444" y="770" as="targetPoint" />
            <Array as="points">
              <mxPoint x="384" y="820" />
              <mxPoint x="414" y="770" />
            </Array>
          </mxGeometry>
        </mxCell>
        <mxCell id="V0FD5MonbIdQYGrvUsWd-126" value="" style="curved=1;endArrow=classic;html=1;rounded=0;fillColor=#f5f5f5;strokeColor=#666666;strokeWidth=3;movable=1;resizable=1;rotatable=1;deletable=1;editable=1;locked=0;connectable=1;dashed=1;" edge="1" parent="1">
          <mxGeometry width="50" height="50" relative="1" as="geometry">
            <mxPoint x="360" y="470" as="sourcePoint" />
            <mxPoint x="440" y="633.6842105263158" as="targetPoint" />
            <Array as="points">
              <mxPoint x="360" y="600" />
            </Array>
          </mxGeometry>
        </mxCell>
        <mxCell id="V0FD5MonbIdQYGrvUsWd-127" value="" style="curved=1;endArrow=classic;html=1;rounded=0;entryX=1;entryY=1;entryDx=0;entryDy=0;entryPerimeter=0;strokeWidth=3;fillColor=#f5f5f5;strokeColor=#666666;dashed=1;movable=1;resizable=1;rotatable=1;deletable=1;editable=1;locked=0;connectable=1;" edge="1" parent="1">
          <mxGeometry width="50" height="50" relative="1" as="geometry">
            <mxPoint x="820" y="230" as="sourcePoint" />
            <mxPoint x="730" y="250" as="targetPoint" />
            <Array as="points" />
          </mxGeometry>
        </mxCell>
        <mxCell id="V0FD5MonbIdQYGrvUsWd-128" value="" style="curved=1;endArrow=classic;html=1;rounded=0;entryX=1;entryY=1;entryDx=0;entryDy=0;entryPerimeter=0;strokeWidth=3;fillColor=#f5f5f5;strokeColor=#666666;dashed=1;movable=1;resizable=1;rotatable=1;deletable=1;editable=1;locked=0;connectable=1;" edge="1" parent="1">
          <mxGeometry width="50" height="50" relative="1" as="geometry">
            <mxPoint x="700" y="70" as="sourcePoint" />
            <mxPoint x="680" y="150" as="targetPoint" />
            <Array as="points" />
          </mxGeometry>
        </mxCell>
        <mxCell id="V0FD5MonbIdQYGrvUsWd-129" value="" style="curved=1;endArrow=classic;html=1;rounded=0;entryX=1;entryY=1;entryDx=0;entryDy=0;entryPerimeter=0;strokeWidth=3;fillColor=#f5f5f5;strokeColor=#666666;dashed=1;movable=1;resizable=1;rotatable=1;deletable=1;editable=1;locked=0;connectable=1;" edge="1" parent="1">
          <mxGeometry width="50" height="50" relative="1" as="geometry">
            <mxPoint x="1000" y="90" as="sourcePoint" />
            <mxPoint x="881.25" y="170" as="targetPoint" />
            <Array as="points" />
          </mxGeometry>
        </mxCell>
        <mxCell id="V0FD5MonbIdQYGrvUsWd-130" value="" style="curved=1;endArrow=classic;html=1;rounded=0;entryX=1;entryY=1;entryDx=0;entryDy=0;entryPerimeter=0;strokeWidth=3;fillColor=#f5f5f5;strokeColor=#666666;dashed=1;movable=1;resizable=1;rotatable=1;deletable=1;editable=1;locked=0;connectable=1;" edge="1" parent="1">
          <mxGeometry width="50" height="50" relative="1" as="geometry">
            <mxPoint x="1040" y="410" as="sourcePoint" />
            <mxPoint x="910" y="360" as="targetPoint" />
            <Array as="points" />
          </mxGeometry>
        </mxCell>
        <mxCell id="V0FD5MonbIdQYGrvUsWd-131" value="赤の他人" style="shape=umlActor;verticalLabelPosition=bottom;verticalAlign=top;html=1;outlineConnect=0;movable=1;resizable=1;rotatable=1;deletable=1;editable=1;locked=0;connectable=1;" vertex="1" parent="1">
          <mxGeometry x="-260" y="-20" width="30" height="60" as="geometry" />
        </mxCell>
        <mxCell id="V0FD5MonbIdQYGrvUsWd-132" value="赤の他人" style="shape=umlActor;verticalLabelPosition=bottom;verticalAlign=top;html=1;outlineConnect=0;movable=1;resizable=1;rotatable=1;deletable=1;editable=1;locked=0;connectable=1;" vertex="1" parent="1">
          <mxGeometry x="860" y="-530" width="30" height="60" as="geometry" />
        </mxCell>
        <mxCell id="V0FD5MonbIdQYGrvUsWd-133" value="赤の他人" style="shape=umlActor;verticalLabelPosition=bottom;verticalAlign=top;html=1;outlineConnect=0;movable=1;resizable=1;rotatable=1;deletable=1;editable=1;locked=0;connectable=1;" vertex="1" parent="1">
          <mxGeometry x="430" y="-600" width="30" height="60" as="geometry" />
        </mxCell>
        <mxCell id="V0FD5MonbIdQYGrvUsWd-134" value="&lt;b style=&quot;&quot;&gt;&lt;font style=&quot;font-size: 24px;&quot;&gt;掲示板&lt;/font&gt;&lt;/b&gt;&lt;div&gt;&lt;b style=&quot;&quot;&gt;&lt;font style=&quot;font-size: 24px;&quot;&gt;（広報・アーカイブする）&lt;/font&gt;&lt;/b&gt;&lt;/div&gt;" style="text;html=1;align=center;verticalAlign=middle;whiteSpace=wrap;rounded=0;movable=1;resizable=1;rotatable=1;deletable=1;editable=1;locked=0;connectable=1;" vertex="1" parent="1">
          <mxGeometry x="316.41" y="1390" width="297.19" height="40" as="geometry" />
        </mxCell>
        <mxCell id="V0FD5MonbIdQYGrvUsWd-135" value="" style="group;movable=1;resizable=1;rotatable=1;deletable=1;editable=1;locked=0;connectable=1;" connectable="0" vertex="1" parent="1">
          <mxGeometry x="490" y="-700" width="380" height="440" as="geometry" />
        </mxCell>
        <mxCell id="V0FD5MonbIdQYGrvUsWd-136" value="&lt;span style=&quot;color: rgba(0, 0, 0, 0); font-family: monospace; font-size: 0px; text-align: start; text-wrap-mode: nowrap;&quot;&gt;%3CmxGraphModel%3E%3Croot%3E%3CmxCell%20id%3D%220%22%2F%3E%3CmxCell%20id%3D%221%22%20parent%3D%220%22%2F%3E%3CmxCell%20id%3D%222%22%20value%3D%22%22%20style%3D%22curved%3D1%3BendArrow%3Dclassic%3Bhtml%3D1%3Brounded%3D0%3BfillColor%3D%23f5f5f5%3BstrokeColor%3D%23666666%3BstrokeWidth%3D3%3Bmovable%3D1%3Bresizable%3D1%3Brotatable%3D1%3Bdeletable%3D1%3Beditable%3D1%3Blocked%3D0%3Bconnectable%3D1%3BexitX%3D0.5%3BexitY%3D0%3BexitDx%3D0%3BexitDy%3D0%3BexitPerimeter%3D0%3BentryX%3D0%3BentryY%3D0.3333333333333333%3BentryDx%3D0%3BentryDy%3D0%3BentryPerimeter%3D0%3Bdashed%3D1%3B%22%20edge%3D%221%22%20parent%3D%221%22%3E%3CmxGeometry%20width%3D%2250%22%20height%3D%2250%22%20relative%3D%221%22%20as%3D%22geometry%22%3E%3CmxPoint%20x%3D%22645%22%20y%3D%22450%22%20as%3D%22sourcePoint%22%2F%3E%3CmxPoint%20x%3D%22690%22%20y%3D%22320%22%20as%3D%22targetPoint%22%2F%3E%3CArray%20as%3D%22points%22%3E%3CmxPoint%20x%3D%22630%22%20y%3D%22370%22%2F%3E%3CmxPoint%20x%3D%22660%22%20y%3D%22320%22%2F%3E%3C%2FArray%3E%3C%2FmxGeometry%3E%3C%2FmxCell%3E%3C%2Froot%3E%3C%2FmxGraphModel%3E&lt;/span&gt;" style="ellipse;whiteSpace=wrap;html=1;aspect=fixed;movable=1;resizable=1;rotatable=1;deletable=1;editable=1;locked=0;connectable=1;fillColor=#bac8d3;strokeColor=#23445d;" vertex="1" parent="V0FD5MonbIdQYGrvUsWd-135">
          <mxGeometry y="90" width="320" height="320" as="geometry" />
        </mxCell>
        <mxCell id="V0FD5MonbIdQYGrvUsWd-137" value="" style="curved=1;endArrow=classic;html=1;rounded=0;strokeWidth=3;fillColor=#f5f5f5;strokeColor=#666666;dashed=1;movable=1;resizable=1;rotatable=1;deletable=1;editable=1;locked=0;connectable=1;" edge="1" parent="V0FD5MonbIdQYGrvUsWd-135">
          <mxGeometry width="50" height="50" relative="1" as="geometry">
            <mxPoint x="360" y="210" as="sourcePoint" />
            <mxPoint x="270" y="220" as="targetPoint" />
            <Array as="points">
              <mxPoint x="330" y="240" />
            </Array>
          </mxGeometry>
        </mxCell>
        <mxCell id="V0FD5MonbIdQYGrvUsWd-138" value="" style="curved=1;endArrow=classic;html=1;rounded=0;fillColor=#f5f5f5;strokeColor=#666666;strokeWidth=3;movable=1;resizable=1;rotatable=1;deletable=1;editable=1;locked=0;connectable=1;entryX=0;entryY=0.3333333333333333;entryDx=0;entryDy=0;entryPerimeter=0;dashed=1;" edge="1" parent="V0FD5MonbIdQYGrvUsWd-135">
          <mxGeometry width="50" height="50" relative="1" as="geometry">
            <mxPoint x="39" y="410" as="sourcePoint" />
            <mxPoint x="84" y="320" as="targetPoint" />
            <Array as="points">
              <mxPoint x="24" y="370" />
              <mxPoint x="54" y="320" />
            </Array>
          </mxGeometry>
        </mxCell>
        <mxCell id="V0FD5MonbIdQYGrvUsWd-139" value="" style="curved=1;endArrow=classic;html=1;rounded=0;fillColor=#f5f5f5;strokeColor=#666666;strokeWidth=3;movable=1;resizable=1;rotatable=1;deletable=1;editable=1;locked=0;connectable=1;dashed=1;" edge="1" parent="V0FD5MonbIdQYGrvUsWd-135">
          <mxGeometry width="50" height="50" relative="1" as="geometry">
            <mxPoint y="20" as="sourcePoint" />
            <mxPoint x="80" y="183.68421052631584" as="targetPoint" />
            <Array as="points">
              <mxPoint y="150" />
            </Array>
          </mxGeometry>
        </mxCell>
        <mxCell id="V0FD5MonbIdQYGrvUsWd-140" value="" style="group" connectable="0" vertex="1" parent="V0FD5MonbIdQYGrvUsWd-135">
          <mxGeometry x="100" y="190" width="117.5" height="115" as="geometry" />
        </mxCell>
        <mxCell id="V0FD5MonbIdQYGrvUsWd-141" value="&lt;font style=&quot;font-size: 14px;&quot;&gt;&lt;b style=&quot;&quot;&gt;ワーク・アーカイブ&lt;br&gt;(SNS)&lt;/b&gt;&lt;/font&gt;" style="sketch=0;outlineConnect=0;fontColor=#232F3E;gradientColor=none;strokeColor=#232F3E;fillColor=#ffffff;dashed=0;verticalLabelPosition=bottom;verticalAlign=top;align=center;html=1;fontSize=12;fontStyle=0;aspect=fixed;shape=mxgraph.aws4.resourceIcon;resIcon=mxgraph.aws4.archive;" vertex="1" parent="V0FD5MonbIdQYGrvUsWd-140">
          <mxGeometry x="1.9262295081967213" width="113.11475409836066" height="113.11475409836066" as="geometry" />
        </mxCell>
        <mxCell id="V0FD5MonbIdQYGrvUsWd-142" value="" style="shape=image;verticalLabelPosition=bottom;labelBackgroundColor=default;verticalAlign=top;aspect=fixed;imageAspect=0;image=https://cdn.pixabay.com/photo/2021/06/15/12/17/instagram-6338401_1280.png;" vertex="1" parent="V0FD5MonbIdQYGrvUsWd-140">
          <mxGeometry width="115" height="115" as="geometry" />
        </mxCell>
        <mxCell id="V0FD5MonbIdQYGrvUsWd-143" value="アーカイブ・リーダー" style="shape=umlActor;verticalLabelPosition=bottom;verticalAlign=top;html=1;outlineConnect=0;movable=1;resizable=1;rotatable=1;deletable=1;editable=1;locked=0;connectable=1;" vertex="1" parent="V0FD5MonbIdQYGrvUsWd-135">
          <mxGeometry x="145" y="100" width="30" height="60" as="geometry" />
        </mxCell>
      </root>
    </mxGraphModel>
  </diagram>
  <diagram id="melNtqXu64QDn6b-blMa" name="ワーク駆動型クリエーション">
    <mxGraphModel grid="1" page="1" gridSize="10" guides="1" tooltips="1" connect="1" arrows="1" fold="1" pageScale="1" pageWidth="827" pageHeight="1169" math="0" shadow="0">
      <root>
        <mxCell id="0" />
        <mxCell id="1" parent="0" />
        <mxCell id="6ycDATj8YfLm1wFGB4Y3-1" value="" style="shape=image;verticalLabelPosition=bottom;labelBackgroundColor=default;verticalAlign=top;aspect=fixed;imageAspect=0;editableCssRules=.*;image=data:image/svg+xml,PHN2ZyB4bWxucz0iaHR0cDovL3d3dy53My5vcmcvMjAwMC9zdmciIGlkPSJleHBvcnQtc3ZnIiB3aWR0aD0iMzUyOC45Mzc1IiBjbGFzcz0iZmxvd2NoYXJ0IiBzdHlsZT0ibWF4LXdpZHRoOiAzNTQ0LjkzNzVweDsiIHZpZXdCb3g9IjggOCAzNTI4LjkzNzUgNjE4LjQ1MzEyNSIgcm9sZT0iZ3JhcGhpY3MtZG9jdW1lbnQgZG9jdW1lbnQiIGFyaWEtcm9sZWRlc2NyaXB0aW9uPSJmbG93Y2hhcnQtdjIiIGhlaWdodD0iNjE4LjQ1MzEyNSI+PHN0eWxlPkBpbXBvcnQgdXJsKCJodHRwczovL2NkbmpzLmNsb3VkZmxhcmUuY29tL2FqYXgvbGlicy9mb250LWF3ZXNvbWUvNi4yLjAvY3NzL2FsbC5taW4uY3NzIik7IHAge21hcmdpbjogMDt9PC9zdHlsZT48c3R5bGU+I2V4cG9ydC1zdmd7Zm9udC1mYW1pbHk6YXJpYWwsc2Fucy1zZXJpZjtmb250LXNpemU6MTRweDtmaWxsOiMzMzM7fUBrZXlmcmFtZXMgZWRnZS1hbmltYXRpb24tZnJhbWV7ZnJvbXtzdHJva2UtZGFzaG9mZnNldDowO319QGtleWZyYW1lcyBkYXNoe3Rve3N0cm9rZS1kYXNob2Zmc2V0OjA7fX0jZXhwb3J0LXN2ZyAuZWRnZS1hbmltYXRpb24tc2xvd3tzdHJva2UtZGFzaGFycmF5OjksNSFpbXBvcnRhbnQ7c3Ryb2tlLWRhc2hvZmZzZXQ6OTAwO2FuaW1hdGlvbjpkYXNoIDUwcyBsaW5lYXIgaW5maW5pdGU7c3Ryb2tlLWxpbmVjYXA6cm91bmQ7fSNleHBvcnQtc3ZnIC5lZGdlLWFuaW1hdGlvbi1mYXN0e3N0cm9rZS1kYXNoYXJyYXk6OSw1IWltcG9ydGFudDtzdHJva2UtZGFzaG9mZnNldDo5MDA7YW5pbWF0aW9uOmRhc2ggMjBzIGxpbmVhciBpbmZpbml0ZTtzdHJva2UtbGluZWNhcDpyb3VuZDt9I2V4cG9ydC1zdmcgLmVycm9yLWljb257ZmlsbDojZmZmZmZmO30jZXhwb3J0LXN2ZyAuZXJyb3ItdGV4dHtmaWxsOiMwMDAwMDA7c3Ryb2tlOiMwMDAwMDA7fSNleHBvcnQtc3ZnIC5lZGdlLXRoaWNrbmVzcy1ub3JtYWx7c3Ryb2tlLXdpZHRoOjJweDt9I2V4cG9ydC1zdmcgLmVkZ2UtdGhpY2tuZXNzLXRoaWNre3N0cm9rZS13aWR0aDozLjVweDt9I2V4cG9ydC1zdmcgLmVkZ2UtcGF0dGVybi1zb2xpZHtzdHJva2UtZGFzaGFycmF5OjA7fSNleHBvcnQtc3ZnIC5lZGdlLXRoaWNrbmVzcy1pbnZpc2libGV7c3Ryb2tlLXdpZHRoOjA7ZmlsbDpub25lO30jZXhwb3J0LXN2ZyAuZWRnZS1wYXR0ZXJuLWRhc2hlZHtzdHJva2UtZGFzaGFycmF5OjM7fSNleHBvcnQtc3ZnIC5lZGdlLXBhdHRlcm4tZG90dGVke3N0cm9rZS1kYXNoYXJyYXk6Mjt9I2V4cG9ydC1zdmcgLm1hcmtlcntmaWxsOiMwMDAwMDA7c3Ryb2tlOiMwMDAwMDA7fSNleHBvcnQtc3ZnIC5tYXJrZXIuY3Jvc3N7c3Ryb2tlOiMwMDAwMDA7fSNleHBvcnQtc3ZnIHN2Z3tmb250LWZhbWlseTphcmlhbCxzYW5zLXNlcmlmO2ZvbnQtc2l6ZToxNHB4O30jZXhwb3J0LXN2ZyBwe21hcmdpbjowO30jZXhwb3J0LXN2ZyAubGFiZWx7Zm9udC1mYW1pbHk6YXJpYWwsc2Fucy1zZXJpZjtjb2xvcjojMzMzO30jZXhwb3J0LXN2ZyAuY2x1c3Rlci1sYWJlbCB0ZXh0e2ZpbGw6IzAwMDAwMDt9I2V4cG9ydC1zdmcgLmNsdXN0ZXItbGFiZWwgc3Bhbntjb2xvcjojMDAwMDAwO30jZXhwb3J0LXN2ZyAuY2x1c3Rlci1sYWJlbCBzcGFuIHB7YmFja2dyb3VuZC1jb2xvcjp0cmFuc3BhcmVudDt9I2V4cG9ydC1zdmcgLmxhYmVsIHRleHQsI2V4cG9ydC1zdmcgc3BhbntmaWxsOiMzMzM7Y29sb3I6IzMzMzt9I2V4cG9ydC1zdmcgLm5vZGUgcmVjdCwjZXhwb3J0LXN2ZyAubm9kZSBjaXJjbGUsI2V4cG9ydC1zdmcgLm5vZGUgZWxsaXBzZSwjZXhwb3J0LXN2ZyAubm9kZSBwb2x5Z29uLCNleHBvcnQtc3ZnIC5ub2RlIHBhdGh7ZmlsbDojZmZmZmZmO3N0cm9rZTojMDAwMDAwO3N0cm9rZS13aWR0aDoycHg7fSNleHBvcnQtc3ZnIC5yb3VnaC1ub2RlIC5sYWJlbCB0ZXh0LCNleHBvcnQtc3ZnIC5ub2RlIC5sYWJlbCB0ZXh0LCNleHBvcnQtc3ZnIC5pbWFnZS1zaGFwZSAubGFiZWwsI2V4cG9ydC1zdmcgLmljb24tc2hhcGUgLmxhYmVse3RleHQtYW5jaG9yOm1pZGRsZTt9I2V4cG9ydC1zdmcgLm5vZGUgLmthdGV4IHBhdGh7ZmlsbDojMDAwO3N0cm9rZTojMDAwO3N0cm9rZS13aWR0aDoxcHg7fSNleHBvcnQtc3ZnIC5yb3VnaC1ub2RlIC5sYWJlbCwjZXhwb3J0LXN2ZyAubm9kZSAubGFiZWwsI2V4cG9ydC1zdmcgLmltYWdlLXNoYXBlIC5sYWJlbCwjZXhwb3J0LXN2ZyAuaWNvbi1zaGFwZSAubGFiZWx7dGV4dC1hbGlnbjpjZW50ZXI7fSNleHBvcnQtc3ZnIC5ub2RlLmNsaWNrYWJsZXtjdXJzb3I6cG9pbnRlcjt9I2V4cG9ydC1zdmcgLnJvb3QgLmFuY2hvciBwYXRoe2ZpbGw6IzAwMDAwMCFpbXBvcnRhbnQ7c3Ryb2tlLXdpZHRoOjA7c3Ryb2tlOiMwMDAwMDA7fSNleHBvcnQtc3ZnIC5hcnJvd2hlYWRQYXRoe2ZpbGw6IzAwMDAwMDt9I2V4cG9ydC1zdmcgLmVkZ2VQYXRoIC5wYXRoe3N0cm9rZTojMDAwMDAwO3N0cm9rZS13aWR0aDoycHg7fSNleHBvcnQtc3ZnIC5mbG93Y2hhcnQtbGlua3tzdHJva2U6IzAwMDAwMDtmaWxsOm5vbmU7fSNleHBvcnQtc3ZnIC5lZGdlTGFiZWx7YmFja2dyb3VuZC1jb2xvcjpoc2woLTEyMCwgMCUsIDgwJSk7dGV4dC1hbGlnbjpjZW50ZXI7fSNleHBvcnQtc3ZnIC5lZGdlTGFiZWwgcHtiYWNrZ3JvdW5kLWNvbG9yOmhzbCgtMTIwLCAwJSwgODAlKTt9I2V4cG9ydC1zdmcgLmVkZ2VMYWJlbCByZWN0e29wYWNpdHk6MC41O2JhY2tncm91bmQtY29sb3I6aHNsKC0xMjAsIDAlLCA4MCUpO2ZpbGw6aHNsKC0xMjAsIDAlLCA4MCUpO30jZXhwb3J0LXN2ZyAubGFiZWxCa2d7YmFja2dyb3VuZC1jb2xvcjpyZ2JhKDIwNCwgMjA0LCAyMDQsIDAuNSk7fSNleHBvcnQtc3ZnIC5jbHVzdGVyIHJlY3R7ZmlsbDojZmZmZmZmO3N0cm9rZTpoc2woMCwgMCUsIDkwJSk7c3Ryb2tlLXdpZHRoOjJweDt9I2V4cG9ydC1zdmcgLmNsdXN0ZXIgdGV4dHtmaWxsOiMwMDAwMDA7fSNleHBvcnQtc3ZnIC5jbHVzdGVyIHNwYW57Y29sb3I6IzAwMDAwMDt9I2V4cG9ydC1zdmcgZGl2Lm1lcm1haWRUb29sdGlwe3Bvc2l0aW9uOmFic29sdXRlO3RleHQtYWxpZ246Y2VudGVyO21heC13aWR0aDoyMDBweDtwYWRkaW5nOjJweDtmb250LWZhbWlseTphcmlhbCxzYW5zLXNlcmlmO2ZvbnQtc2l6ZToxMnB4O2JhY2tncm91bmQ6I2ZmZmZmZjtib3JkZXI6MXB4IHNvbGlkIGhzbCgwLCAwJSwgOTAlKTtib3JkZXItcmFkaXVzOjJweDtwb2ludGVyLWV2ZW50czpub25lO3otaW5kZXg6MTAwO30jZXhwb3J0LXN2ZyAuZmxvd2NoYXJ0VGl0bGVUZXh0e3RleHQtYW5jaG9yOm1pZGRsZTtmb250LXNpemU6MThweDtmaWxsOiMzMzM7fSNleHBvcnQtc3ZnIHJlY3QudGV4dHtmaWxsOm5vbmU7c3Ryb2tlLXdpZHRoOjA7fSNleHBvcnQtc3ZnIC5pY29uLXNoYXBlLCNleHBvcnQtc3ZnIC5pbWFnZS1zaGFwZXtiYWNrZ3JvdW5kLWNvbG9yOmhzbCgtMTIwLCAwJSwgODAlKTt0ZXh0LWFsaWduOmNlbnRlcjt9I2V4cG9ydC1zdmcgLmljb24tc2hhcGUgcCwjZXhwb3J0LXN2ZyAuaW1hZ2Utc2hhcGUgcHtiYWNrZ3JvdW5kLWNvbG9yOmhzbCgtMTIwLCAwJSwgODAlKTtwYWRkaW5nOjJweDt9I2V4cG9ydC1zdmcgLmljb24tc2hhcGUgcmVjdCwjZXhwb3J0LXN2ZyAuaW1hZ2Utc2hhcGUgcmVjdHtvcGFjaXR5OjAuNTtiYWNrZ3JvdW5kLWNvbG9yOmhzbCgtMTIwLCAwJSwgODAlKTtmaWxsOmhzbCgtMTIwLCAwJSwgODAlKTt9I2V4cG9ydC1zdmcgLm5vZGUgLm5lby1ub2Rle3N0cm9rZTojMDAwMDAwO30jZXhwb3J0LXN2ZyBbZGF0YS1sb29rPSJuZW8iXS5ub2RlIHJlY3QsI2V4cG9ydC1zdmcgW2RhdGEtbG9vaz0ibmVvIl0uY2x1c3RlciByZWN0LCNleHBvcnQtc3ZnIFtkYXRhLWxvb2s9Im5lbyJdLm5vZGUgcG9seWdvbntzdHJva2U6dXJsKCNleHBvcnQtc3ZnLWdyYWRpZW50KTtmaWx0ZXI6ZHJvcC1zaGFkb3coIDBweCAxcHggMnB4IHJnYmEoMCwgMCwgMCwgMC4yNSkpO30jZXhwb3J0LXN2ZyBbZGF0YS1sb29rPSJuZW8iXS5ub2RlIHBhdGh7c3Ryb2tlOnVybCgjZXhwb3J0LXN2Zy1ncmFkaWVudCk7fSNleHBvcnQtc3ZnIFtkYXRhLWxvb2s9Im5lbyJdLm5vZGUgLm91dGVyLXBhdGh7ZmlsdGVyOmRyb3Atc2hhZG93KCAwcHggMXB4IDJweCByZ2JhKDAsIDAsIDAsIDAuMjUpKTt9I2V4cG9ydC1zdmcgW2RhdGEtbG9vaz0ibmVvIl0ubm9kZSAubmVvLWxpbmUgcGF0aHtzdHJva2U6IzAwMDAwMDtmaWx0ZXI6bm9uZTt9I2V4cG9ydC1zdmcgW2RhdGEtbG9vaz0ibmVvIl0ubm9kZSBjaXJjbGV7c3Ryb2tlOnVybCgjZXhwb3J0LXN2Zy1ncmFkaWVudCk7ZmlsdGVyOmRyb3Atc2hhZG93KCAwcHggMXB4IDJweCByZ2JhKDAsIDAsIDAsIDAuMjUpKTt9I2V4cG9ydC1zdmcgW2RhdGEtbG9vaz0ibmVvIl0ubm9kZSBjaXJjbGUgLnN0YXRlLXN0YXJ0e2ZpbGw6IzAwMDAwMDt9I2V4cG9ydC1zdmcgW2RhdGEtbG9vaz0ibmVvIl0uc3RhdGVkaWFncmFtLWNsdXN0ZXIgcmVjdHtmaWxsOiNmZmZmZmY7c3Ryb2tlOnVybCgjZXhwb3J0LXN2Zy1ncmFkaWVudCk7c3Ryb2tlLXdpZHRoOjFweDt9I2V4cG9ydC1zdmcgW2RhdGEtbG9vaz0ibmVvIl0uaWNvbi1zaGFwZSAuaWNvbntmaWxsOnVybCgjZXhwb3J0LXN2Zy1ncmFkaWVudCk7ZmlsdGVyOmRyb3Atc2hhZG93KCAwcHggMXB4IDJweCByZ2JhKDAsIDAsIDAsIDAuMjUpKTt9I2V4cG9ydC1zdmcgW2RhdGEtbG9vaz0ibmVvIl0uaWNvbi1zaGFwZSAuaWNvbi1uZW8gcGF0aHtzdHJva2U6dXJsKCNleHBvcnQtc3ZnLWdyYWRpZW50KTtmaWx0ZXI6ZHJvcC1zaGFkb3coIDBweCAxcHggMnB4IHJnYmEoMCwgMCwgMCwgMC4yNSkpO30jZXhwb3J0LXN2ZyA6cm9vdHstLW1lcm1haWQtZm9udC1mYW1pbHk6InRyZWJ1Y2hldCBtcyIsdmVyZGFuYSxhcmlhbCxzYW5zLXNlcmlmO308L3N0eWxlPjxnPjxtYXJrZXIgaWQ9ImV4cG9ydC1zdmdfZmxvd2NoYXJ0LXYyLXBvaW50RW5kIiBjbGFzcz0ibWFya2VyIGZsb3djaGFydC12MiIgdmlld0JveD0iMCAwIDExLjUgMTQiIHJlZlg9IjcuNzUiIHJlZlk9IjciIG1hcmtlclVuaXRzPSJ1c2VyU3BhY2VPblVzZSIgbWFya2VyV2lkdGg9IjEwLjUiIG1hcmtlckhlaWdodD0iMTQiIG9yaWVudD0iYXV0byI+PHBhdGggZD0iTSAwIDAgTCAxMS41IDcgTCAwIDE0IHoiIGNsYXNzPSJhcnJvd01hcmtlclBhdGgiIHN0eWxlPSJzdHJva2Utd2lkdGg6IDA7IHN0cm9rZS1kYXNoYXJyYXk6IDEsIDA7Ii8+PC9tYXJrZXI+PG1hcmtlciBpZD0iZXhwb3J0LXN2Z19mbG93Y2hhcnQtdjItcG9pbnRTdGFydCIgY2xhc3M9Im1hcmtlciBmbG93Y2hhcnQtdjIiIHZpZXdCb3g9IjAgMCAxMS41IDE0IiByZWZYPSI0IiByZWZZPSI3IiBtYXJrZXJVbml0cz0idXNlclNwYWNlT25Vc2UiIG1hcmtlcldpZHRoPSIxMS41IiBtYXJrZXJIZWlnaHQ9IjE0IiBvcmllbnQ9ImF1dG8iPjxwb2x5Z29uIHBvaW50cz0iMCw3IDExLjUsMTQgMTEuNSwwIiBjbGFzcz0iYXJyb3dNYXJrZXJQYXRoIiBzdHlsZT0ic3Ryb2tlLXdpZHRoOiAwOyBzdHJva2UtZGFzaGFycmF5OiAxLCAwOyIvPjwvbWFya2VyPjxtYXJrZXIgaWQ9ImV4cG9ydC1zdmdfZmxvd2NoYXJ0LXYyLXBvaW50RW5kLW1hcmdpbiIgY2xhc3M9Im1hcmtlciBmbG93Y2hhcnQtdjIiIHZpZXdCb3g9IjAgMCAxMS41IDE0IiByZWZYPSIxMS41IiByZWZZPSI3IiBtYXJrZXJVbml0cz0idXNlclNwYWNlT25Vc2UiIG1hcmtlcldpZHRoPSIxMC41IiBtYXJrZXJIZWlnaHQ9IjE0IiBvcmllbnQ9ImF1dG8iPjxwYXRoIGQ9Ik0gMCAwIEwgMTEuNSA3IEwgMCAxNCB6IiBjbGFzcz0iYXJyb3dNYXJrZXJQYXRoIiBzdHlsZT0ic3Ryb2tlLXdpZHRoOiAwOyBzdHJva2UtZGFzaGFycmF5OiAxLCAwOyIvPjwvbWFya2VyPjxtYXJrZXIgaWQ9ImV4cG9ydC1zdmdfZmxvd2NoYXJ0LXYyLXBvaW50U3RhcnQtbWFyZ2luIiBjbGFzcz0ibWFya2VyIGZsb3djaGFydC12MiIgdmlld0JveD0iMCAwIDExLjUgMTQiIHJlZlg9IjEiIHJlZlk9IjciIG1hcmtlclVuaXRzPSJ1c2VyU3BhY2VPblVzZSIgbWFya2VyV2lkdGg9IjExLjUiIG1hcmtlckhlaWdodD0iMTQiIG9yaWVudD0iYXV0byI+PHBvbHlnb24gcG9pbnRzPSIwLDcgMTEuNSwxNCAxMS41LDAiIGNsYXNzPSJhcnJvd01hcmtlclBhdGgiIHN0eWxlPSJzdHJva2Utd2lkdGg6IDA7IHN0cm9rZS1kYXNoYXJyYXk6IDEsIDA7Ii8+PC9tYXJrZXI+PG1hcmtlciBpZD0iZXhwb3J0LXN2Z19mbG93Y2hhcnQtdjItY2lyY2xlRW5kIiBjbGFzcz0ibWFya2VyIGZsb3djaGFydC12MiIgdmlld0JveD0iMCAwIDEwIDEwIiByZWZZPSI1IiByZWZYPSIxMC43NSIgbWFya2VyVW5pdHM9InVzZXJTcGFjZU9uVXNlIiBtYXJrZXJXaWR0aD0iMTQiIG1hcmtlckhlaWdodD0iMTQiIG9yaWVudD0iYXV0byI+PGNpcmNsZSBjeD0iNSIgY3k9IjUiIHI9IjUiIGNsYXNzPSJhcnJvd01hcmtlclBhdGgiIHN0eWxlPSJzdHJva2Utd2lkdGg6IDA7IHN0cm9rZS1kYXNoYXJyYXk6IDEsIDA7Ii8+PC9tYXJrZXI+PG1hcmtlciBpZD0iZXhwb3J0LXN2Z19mbG93Y2hhcnQtdjItY2lyY2xlU3RhcnQiIGNsYXNzPSJtYXJrZXIgZmxvd2NoYXJ0LXYyIiB2aWV3Qm94PSIwIDAgMTAgMTAiIHJlZlg9IjAiIHJlZlk9IjUiIG1hcmtlclVuaXRzPSJ1c2VyU3BhY2VPblVzZSIgbWFya2VyV2lkdGg9IjE0IiBtYXJrZXJIZWlnaHQ9IjE0IiBvcmllbnQ9ImF1dG8iPjxjaXJjbGUgY3g9IjUiIGN5PSI1IiByPSI1IiBjbGFzcz0iYXJyb3dNYXJrZXJQYXRoIiBzdHlsZT0ic3Ryb2tlLXdpZHRoOiAwOyBzdHJva2UtZGFzaGFycmF5OiAxLCAwOyIvPjwvbWFya2VyPjxtYXJrZXIgaWQ9ImV4cG9ydC1zdmdfZmxvd2NoYXJ0LXYyLWNpcmNsZUVuZC1tYXJnaW4iIGNsYXNzPSJtYXJrZXIgZmxvd2NoYXJ0LXYyIiB2aWV3Qm94PSIwIDAgMTAgMTAiIHJlZlk9IjUiIHJlZlg9IjEyLjI1IiBtYXJrZXJVbml0cz0idXNlclNwYWNlT25Vc2UiIG1hcmtlcldpZHRoPSIxNCIgbWFya2VySGVpZ2h0PSIxNCIgb3JpZW50PSJhdXRvIj48Y2lyY2xlIGN4PSI1IiBjeT0iNSIgcj0iNSIgY2xhc3M9ImFycm93TWFya2VyUGF0aCIgc3R5bGU9InN0cm9rZS13aWR0aDogMDsgc3Ryb2tlLWRhc2hhcnJheTogMSwgMDsiLz48L21hcmtlcj48bWFya2VyIGlkPSJleHBvcnQtc3ZnX2Zsb3djaGFydC12Mi1jaXJjbGVTdGFydC1tYXJnaW4iIGNsYXNzPSJtYXJrZXIgZmxvd2NoYXJ0LXYyIiB2aWV3Qm94PSIwIDAgMTAgMTAiIHJlZlg9Ii0yIiByZWZZPSI1IiBtYXJrZXJVbml0cz0idXNlclNwYWNlT25Vc2UiIG1hcmtlcldpZHRoPSIxNCIgbWFya2VySGVpZ2h0PSIxNCIgb3JpZW50PSJhdXRvIj48Y2lyY2xlIGN4PSI1IiBjeT0iNSIgcj0iNSIgY2xhc3M9ImFycm93TWFya2VyUGF0aCIgc3R5bGU9InN0cm9rZS13aWR0aDogMDsgc3Ryb2tlLWRhc2hhcnJheTogMSwgMDsiLz48L21hcmtlcj48bWFya2VyIGlkPSJleHBvcnQtc3ZnX2Zsb3djaGFydC12Mi1jcm9zc0VuZCIgY2xhc3M9Im1hcmtlciBjcm9zcyBmbG93Y2hhcnQtdjIiIHZpZXdCb3g9IjAgMCAxNSAxNSIgcmVmWD0iMTcuNyIgcmVmWT0iNy41IiBtYXJrZXJVbml0cz0idXNlclNwYWNlT25Vc2UiIG1hcmtlcldpZHRoPSIxMiIgbWFya2VySGVpZ2h0PSIxMiIgb3JpZW50PSJhdXRvIj48cGF0aCBkPSJNIDEsMSBMIDE0LDE0IE0gMSwxNCBMIDE0LDEiIGNsYXNzPSJhcnJvd01hcmtlclBhdGgiIHN0eWxlPSJzdHJva2Utd2lkdGg6IDIuNTsiLz48L21hcmtlcj48bWFya2VyIGlkPSJleHBvcnQtc3ZnX2Zsb3djaGFydC12Mi1jcm9zc1N0YXJ0IiBjbGFzcz0ibWFya2VyIGNyb3NzIGZsb3djaGFydC12MiIgdmlld0JveD0iMCAwIDE1IDE1IiByZWZYPSItMy41IiByZWZZPSI3LjUiIG1hcmtlclVuaXRzPSJ1c2VyU3BhY2VPblVzZSIgbWFya2VyV2lkdGg9IjEyIiBtYXJrZXJIZWlnaHQ9IjEyIiBvcmllbnQ9ImF1dG8iPjxwYXRoIGQ9Ik0gMSwxIEwgMTQsMTQgTSAxLDE0IEwgMTQsMSIgY2xhc3M9ImFycm93TWFya2VyUGF0aCIgc3R5bGU9InN0cm9rZS13aWR0aDogMi41OyBzdHJva2UtZGFzaGFycmF5OiAxLCAwOyIvPjwvbWFya2VyPjxtYXJrZXIgaWQ9ImV4cG9ydC1zdmdfZmxvd2NoYXJ0LXYyLWNyb3NzRW5kLW1hcmdpbiIgY2xhc3M9Im1hcmtlciBjcm9zcyBmbG93Y2hhcnQtdjIiIHZpZXdCb3g9IjAgMCAxNSAxNSIgcmVmWD0iMTcuNyIgcmVmWT0iNy41IiBtYXJrZXJVbml0cz0idXNlclNwYWNlT25Vc2UiIG1hcmtlcldpZHRoPSIxMiIgbWFya2VySGVpZ2h0PSIxMiIgb3JpZW50PSJhdXRvIj48cGF0aCBkPSJNIDEsMSBMIDE0LDE0IE0gMSwxNCBMIDE0LDEiIGNsYXNzPSJhcnJvd01hcmtlclBhdGgiIHN0eWxlPSJzdHJva2Utd2lkdGg6IDIuNTsiLz48L21hcmtlcj48bWFya2VyIGlkPSJleHBvcnQtc3ZnX2Zsb3djaGFydC12Mi1jcm9zc1N0YXJ0LW1hcmdpbiIgY2xhc3M9Im1hcmtlciBjcm9zcyBmbG93Y2hhcnQtdjIiIHZpZXdCb3g9IjAgMCAxNSAxNSIgcmVmWD0iLTMuNSIgcmVmWT0iNy41IiBtYXJrZXJVbml0cz0idXNlclNwYWNlT25Vc2UiIG1hcmtlcldpZHRoPSIxMiIgbWFya2VySGVpZ2h0PSIxMiIgb3JpZW50PSJhdXRvIj48cGF0aCBkPSJNIDEsMSBMIDE0LDE0IE0gMSwxNCBMIDE0LDEiIGNsYXNzPSJhcnJvd01hcmtlclBhdGgiIHN0eWxlPSJzdHJva2Utd2lkdGg6IDIuNTsgc3Ryb2tlLWRhc2hhcnJheTogMSwgMDsiLz48L21hcmtlcj48ZyBjbGFzcz0icm9vdCI+PGcgY2xhc3M9ImNsdXN0ZXJzIj48ZyBjbGFzcz0iY2x1c3RlciIgaWQ9IlBoYXNlMyIgZGF0YS1pZD0iUGhhc2UzIiBkYXRhLWV0PSJjbHVzdGVyIiBkYXRhLWxvb2s9Im5lbyI+PHJlY3Qgc3R5bGU9ImZpbGw6I2ZmZmZmZiIgeD0iMjAwMC45NTMxMjUiIHk9IjI4OCIgd2lkdGg9IjE1MzUuOTg0Mzc1IiBoZWlnaHQ9IjMwOC40NzY1NjI1Ii8+PGcgY2xhc3M9ImNsdXN0ZXItbGFiZWwiIHRyYW5zZm9ybT0idHJhbnNsYXRlKDI2NzAuMTY0MDYyNSwgMjg4KSI+PGZvcmVpZ25PYmplY3Qgd2lkdGg9IjE5Ny41NjI1IiBoZWlnaHQ9IjIxIj48ZGl2IHhtbG5zPSJodHRwOi8vd3d3LnczLm9yZy8xOTk5L3hodG1sIiBzdHlsZT0iZGlzcGxheTogdGFibGUtY2VsbDsgd2hpdGUtc3BhY2U6IG5vcm1hbDsgbGluZS1oZWlnaHQ6IDEuNTsgbWF4LXdpZHRoOiAyMDBweDsgdGV4dC1hbGlnbjogY2VudGVyOyI+PHNwYW4gY2xhc3M9Im5vZGVMYWJlbCI+PHA+6KiY6YyyIO+9niDjgqLjg7zjgqvjgqTjg5Yg772eIOaMr+OCiui/lOOCijwvcD48L3NwYW4+PC9kaXY+PC9mb3JlaWduT2JqZWN0PjwvZz48L2c+PGcgY2xhc3M9ImNsdXN0ZXIiIGlkPSJQaGFzZTIiIGRhdGEtaWQ9IlBoYXNlMiIgZGF0YS1ldD0iY2x1c3RlciIgZGF0YS1sb29rPSJuZW8iPjxyZWN0IHN0eWxlPSJmaWxsOiNmZmZmZmYiIHg9IjExODguMTQwNjI1IiB5PSI4IiB3aWR0aD0iMTQ3NC44MTI1IiBoZWlnaHQ9IjI2MCIvPjxnIGNsYXNzPSJjbHVzdGVyLWxhYmVsIiB0cmFuc2Zvcm09InRyYW5zbGF0ZSgxODQwLjc2NTYyNSwgOCkiPjxmb3JlaWduT2JqZWN0IHdpZHRoPSIxNjkuNTYyNSIgaGVpZ2h0PSIyMSI+PGRpdiB4bWxucz0iaHR0cDovL3d3dy53My5vcmcvMTk5OS94aHRtbCIgc3R5bGU9ImRpc3BsYXk6IHRhYmxlLWNlbGw7IHdoaXRlLXNwYWNlOiBub3JtYWw7IGxpbmUtaGVpZ2h0OiAxLjU7IG1heC13aWR0aDogMjAwcHg7IHRleHQtYWxpZ246IGNlbnRlcjsiPjxzcGFuIGNsYXNzPSJub2RlTGFiZWwiPjxwPuW9ouOBq+OBmeOCiyDvvZ4g5L2c5ZOB5YyWIO+9niDnmbrooag8L3A+PC9zcGFuPjwvZGl2PjwvZm9yZWlnbk9iamVjdD48L2c+PC9nPjxnIGNsYXNzPSJjbHVzdGVyIiBpZD0iUGhhc2UxIiBkYXRhLWlkPSJQaGFzZTEiIGRhdGEtZXQ9ImNsdXN0ZXIiIGRhdGEtbG9vaz0ibmVvIj48cmVjdCBzdHlsZT0iZmlsbDojZmZmZmZmIiB4PSI4IiB5PSI0MyIgd2lkdGg9IjEwNTMuOTA2MjUiIGhlaWdodD0iNTgzLjQ1MzEyNSIvPjxnIGNsYXNzPSJjbHVzdGVyLWxhYmVsIiB0cmFuc2Zvcm09InRyYW5zbGF0ZSg0NTcuOTUzMTI1LCA0MykiPjxmb3JlaWduT2JqZWN0IHdpZHRoPSIxNTQiIGhlaWdodD0iMjEiPjxkaXYgeG1sbnM9Imh0dHA6Ly93d3cudzMub3JnLzE5OTkveGh0bWwiIHN0eWxlPSJkaXNwbGF5OiB0YWJsZS1jZWxsOyB3aGl0ZS1zcGFjZTogbm9ybWFsOyBsaW5lLWhlaWdodDogMS41OyBtYXgtd2lkdGg6IDIwMHB4OyB0ZXh0LWFsaWduOiBjZW50ZXI7Ij48c3BhbiBjbGFzcz0ibm9kZUxhYmVsIj48cD7ml6XluLjjgavjg6/jg7zjgq/jgpLmjIHjgaHovrzjgoA8L3A+PC9zcGFuPjwvZGl2PjwvZm9yZWlnbk9iamVjdD48L2c+PC9nPjwvZz48ZyBjbGFzcz0iZWRnZVBhdGhzIj48cGF0aCBkPSJNMjI4LjMyMjI5NTYzNzQxNTIsNDQwLjQzMzE1Njk0MDM3Mzc1TDM0NC4xNDA5OTA2MDg2ODc2LDM4MC40NjYwMzU3NzM5ODgwNFEzNjIuOTA2MjUsMzcwLjc1IDM4NC4wMzc2NTU4MDIzNzUxLDM3MC43NUw0ODEuOTA2MjUsMzcwLjc1IiBpZD0iTF9BX0JfMCIgY2xhc3M9ImVkZ2UtdGhpY2tuZXNzLW5vcm1hbCBlZGdlLXBhdHRlcm4tc29saWQgZWRnZS10aGlja25lc3Mtbm9ybWFsIGVkZ2UtcGF0dGVybi1zb2xpZCBmbG93Y2hhcnQtbGluayIgc3R5bGU9InN0cm9rZS1kYXNoYXJyYXk6IDAgMCAyNjAuNzU2MTY0NTUwNzgxMjUgOTsgc3Ryb2tlLWRhc2hvZmZzZXQ6IDA7OyIgZGF0YS1lZGdlPSJ0cnVlIiBkYXRhLWV0PSJlZGdlIiBkYXRhLWlkPSJMX0FfQl8wIiBkYXRhLXBvaW50cz0iVzNzaWVDSTZNakk0TGpNeU1qSTVOVFl6TnpReE5USXNJbmtpT2pRME1DNDBNek14TlRZNU5EQXpOek0zTlgwc2V5SjRJam96TmpJdU9UQTJNalVzSW5raU9qTTNNQzQzTlgwc2V5SjRJam8wT0RVdU9UQTJNalVzSW5raU9qTTNNQzQzTlgxZCIgbWFya2VyLWVuZD0idXJsKCNleHBvcnQtc3ZnX2Zsb3djaGFydC12Mi1wb2ludEVuZC1tYXJnaW4pIi8+PHBhdGggZD0iTTYwMS4xNzA5NTExNTY4MTIzLDMzNy43NUw3MzYuMzAyOTEwODEyNzU4OCwxODUuMzcwMDE2ODY3NzIxNTVRNzQ0LjM5MDYyNSwxNzYuMjUgNzU2LjU4MDIwMzY4MTg5MTcsMTc2LjI1TDg0MC4xMDE1NjI1LDE3Ni4yNSIgaWQ9IkxfQl9DXzAiIGNsYXNzPSJlZGdlLXRoaWNrbmVzcy1ub3JtYWwgZWRnZS1wYXR0ZXJuLXNvbGlkIGVkZ2UtdGhpY2tuZXNzLW5vcm1hbCBlZGdlLXBhdHRlcm4tc29saWQgZmxvd2NoYXJ0LWxpbmsiIHN0eWxlPSJzdHJva2UtZGFzaGFycmF5OiAwIDAgMzAxLjE1MDY5NTgwMDc4MTI1IDk7IHN0cm9rZS1kYXNob2Zmc2V0OiAwOzsiIGRhdGEtZWRnZT0idHJ1ZSIgZGF0YS1ldD0iZWRnZSIgZGF0YS1pZD0iTF9CX0NfMCIgZGF0YS1wb2ludHM9Ilczc2llQ0k2TmpBeExqRTNNRGsxTVRFMU5qZ3hNak1zSW5raU9qTXpOeTQzTlgwc2V5SjRJam8zTkRRdU16a3dOakkxTENKNUlqb3hOell1TWpWOUxIc2llQ0k2T0RRMExqRXdNVFUyTWpVc0lua2lPakUzTmk0eU5YMWQiIG1hcmtlci1lbmQ9InVybCgjZXhwb3J0LXN2Z19mbG93Y2hhcnQtdjItcG9pbnRFbmQtbWFyZ2luKSIvPjxwYXRoIGQ9Ik02NTcuOTA2MjUsMzUzLjc5NzczOTgzMTUwNjVMNzAzLjkyNzA3MjIyODQyOTQsMzQ0LjcyNjE0NzM3MTIyMzY1UTc0NC4zOTA2MjUsMzM2Ljc1IDc4NS42MzI4MTI1LDMzNi43NUw4MjYuODc1LDMzNi43NSIgaWQ9IkxfQl9EXzAiIGNsYXNzPSJlZGdlLXRoaWNrbmVzcy1ub3JtYWwgZWRnZS1wYXR0ZXJuLXNvbGlkIGVkZ2UtdGhpY2tuZXNzLW5vcm1hbCBlZGdlLXBhdHRlcm4tc29saWQgZmxvd2NoYXJ0LWxpbmsiIHN0eWxlPSJzdHJva2UtZGFzaGFycmF5OiAwIDAgMTYxLjM3Mjk1NTMyMjI2NTYyIDk7IHN0cm9rZS1kYXNob2Zmc2V0OiAwOzsiIGRhdGEtZWRnZT0idHJ1ZSIgZGF0YS1ldD0iZWRnZSIgZGF0YS1pZD0iTF9CX0RfMCIgZGF0YS1wb2ludHM9Ilczc2llQ0k2TmpVM0xqa3dOakkxTENKNUlqb3pOVE11TnprM056TTVPRE14TlRBMk5YMHNleUo0SWpvM05EUXVNemt3TmpJMUxDSjVJam96TXpZdU56VjlMSHNpZUNJNk9ETXdMamczTlN3aWVTSTZNek0yTGpjMWZWMD0iIG1hcmtlci1lbmQ9InVybCgjZXhwb3J0LXN2Z19mbG93Y2hhcnQtdjItcG9pbnRFbmQtbWFyZ2luKSIvPjxwYXRoIGQ9Ik0xMDIxLjQ0NTM1Mjk3OTI3NDYsMTQzLjI1TDEwNDEuNjc1ODAxNDg5NjM3MywxMzUuNjI1UTEwNjEuOTA2MjUsMTI4IDEwODMuNTI1OTU1NjM5MzEwNSwxMjhMMTEyNS4wMjM0Mzc1LDEyOEwxMTc2LjczMTI5OTI5NDY3NzIsMTI4UTExODguMTQwNjI1LDEyOCAxMTk4Ljc3NjI1MDg2NTk1NDEsMTMyLjEyOTkxMjI4NTk0MzZMMTIwOS40MTE4NzY3MzE5MDgzLDEzNi4yNTk4MjQ1NzE4ODcxNSIgaWQ9IkxfQ19FXzAiIGNsYXNzPSJlZGdlLXRoaWNrbmVzcy1ub3JtYWwgZWRnZS1wYXR0ZXJuLXNvbGlkIGVkZ2UtdGhpY2tuZXNzLW5vcm1hbCBlZGdlLXBhdHRlcm4tc29saWQgZmxvd2NoYXJ0LWxpbmsiIHN0eWxlPSJzdHJva2UtZGFzaGFycmF5OiAwIDAgMTgyLjU2NjcxMTQyNTc4MTI1IDk7IHN0cm9rZS1kYXNob2Zmc2V0OiAwOzsiIGRhdGEtZWRnZT0idHJ1ZSIgZGF0YS1ldD0iZWRnZSIgZGF0YS1pZD0iTF9DX0VfMCIgZGF0YS1wb2ludHM9Ilczc2llQ0k2TVRBeU1TNDBORFV6TlRJNU56a3lOelEyTENKNUlqb3hORE11TWpWOUxIc2llQ0k2TVRBMk1TNDVNRFl5TlN3aWVTSTZNVEk0ZlN4N0luZ2lPakV4TWpVdU1ESXpORE0zTlN3aWVTSTZNVEk0ZlN4N0luZ2lPakV4T0RndU1UUXdOakkxTENKNUlqb3hNamg5TEhzaWVDSTZNVEl4TXk0eE5EQTJNalVzSW5raU9qRXpOeTQzTURjM016SXhORGswTmpNMU4zMWQiIG1hcmtlci1lbmQ9InVybCgjZXhwb3J0LXN2Z19mbG93Y2hhcnQtdjItcG9pbnRFbmQtbWFyZ2luKSIvPjxwYXRoIGQ9Ik05ODguMjA4ODU3MDQ0MTk4OSwzMDMuNzVMMTA0Ni4wNTU2MTkzODE0NzYsMjY4LjYwNjMwOTEwMTIwODhRMTA2MS45MDYyNSwyNTguOTc2NTYyNSAxMDgwLjQ1Mjc5OTgzMDMxNTgsMjU4Ljk3NjU2MjVMMTEwNS4wNDkxNzM4Mzg1Njk1LDI1OC45NzY1NjI1UTExMjUuMDIzNDM3NSwyNTguOTc2NTYyNSAxMTQyLjQ5NDQ3OTk3NDAzMSwyNDkuMjk0OTM2NDEzMDc4NzdMMTE2OS4wNjM1NDY2MjAxOTY4LDIzNC41NzE2MTUyODczMzVRMTE4OC4xNDA2MjUsMjI0IDEyMDcuNDg0MDM0NzQ0MjYxLDIxMy45MjM5NjU2MjM0MTEyTDEyMjYuODI3NDQ0NDg4NTIyMSwyMDMuODQ3OTMxMjQ2ODIyMzgiIGlkPSJMX0RfRV8wIiBjbGFzcz0iZWRnZS10aGlja25lc3Mtbm9ybWFsIGVkZ2UtcGF0dGVybi1zb2xpZCBlZGdlLXRoaWNrbmVzcy1ub3JtYWwgZWRnZS1wYXR0ZXJuLXNvbGlkIGZsb3djaGFydC1saW5rIiBzdHlsZT0ic3Ryb2tlLWRhc2hhcnJheTogMCAwIDI1NC4zNzEwNjMyMzI0MjE4OCA5OyBzdHJva2UtZGFzaG9mZnNldDogMDs7IiBkYXRhLWVkZ2U9InRydWUiIGRhdGEtZXQ9ImVkZ2UiIGRhdGEtaWQ9IkxfRF9FXzAiIGRhdGEtcG9pbnRzPSJXM3NpZUNJNk9UZzRMakl3T0RnMU56QTBOREU1T0Rrc0lua2lPak13TXk0M05YMHNleUo0SWpveE1EWXhMamt3TmpJMUxDSjVJam95TlRndU9UYzJOVFl5Tlgwc2V5SjRJam94TVRJMUxqQXlNelF6TnpVc0lua2lPakkxT0M0NU56WTFOakkxZlN4N0luZ2lPakV4T0RndU1UUXdOakkxTENKNUlqb3lNalI5TEhzaWVDSTZNVEl6TUM0ek56VXNJbmtpT2pJd01uMWQiIG1hcmtlci1lbmQ9InVybCgjZXhwb3J0LXN2Z19mbG93Y2hhcnQtdjItcG9pbnRFbmQtbWFyZ2luKSIvPjxwYXRoIGQ9Ik0xMzc0LjMxMjUsMTY5TDE0NTAuOTIxODc1LDE2OUwxNTIzLjUzMTI1LDE2OSIgaWQ9IkxfRV9GXzAiIGNsYXNzPSJlZGdlLXRoaWNrbmVzcy1ub3JtYWwgZWRnZS1wYXR0ZXJuLXNvbGlkIGVkZ2UtdGhpY2tuZXNzLW5vcm1hbCBlZGdlLXBhdHRlcm4tc29saWQgZmxvd2NoYXJ0LWxpbmsiIHN0eWxlPSJzdHJva2UtZGFzaGFycmF5OiAwIDAgMTQwLjIxODc1IDk7IHN0cm9rZS1kYXNob2Zmc2V0OiAwOzsiIGRhdGEtZWRnZT0idHJ1ZSIgZGF0YS1ldD0iZWRnZSIgZGF0YS1pZD0iTF9FX0ZfMCIgZGF0YS1wb2ludHM9Ilczc2llQ0k2TVRNM05DNHpNVEkxTENKNUlqb3hOamw5TEhzaWVDSTZNVFExTUM0NU1qRTROelVzSW5raU9qRTJPWDBzZXlKNElqb3hOVEkzTGpVek1USTFMQ0o1SWpveE5qbDlYUT09IiBtYXJrZXItZW5kPSJ1cmwoI2V4cG9ydC1zdmdfZmxvd2NoYXJ0LXYyLXBvaW50RW5kLW1hcmdpbikiLz48cGF0aCBkPSJNMTc1MC45NTMxMjUsMTY5TDE4NzUuOTUzMTI1LDE2OUwyMDAwLjk1MzEyNSwxNjlMMjA1Ni45Njg3NSwxNjkiIGlkPSJMX0ZfR18wIiBjbGFzcz0iZWRnZS10aGlja25lc3Mtbm9ybWFsIGVkZ2UtcGF0dGVybi1zb2xpZCBlZGdlLXRoaWNrbmVzcy1ub3JtYWwgZWRnZS1wYXR0ZXJuLXNvbGlkIGZsb3djaGFydC1saW5rIiBzdHlsZT0ic3Ryb2tlLWRhc2hhcnJheTogMCAwIDI5Ny4wMTU2MjUgOTsgc3Ryb2tlLWRhc2hvZmZzZXQ6IDA7OyIgZGF0YS1lZGdlPSJ0cnVlIiBkYXRhLWV0PSJlZGdlIiBkYXRhLWlkPSJMX0ZfR18wIiBkYXRhLXBvaW50cz0iVzNzaWVDSTZNVGMxTUM0NU5UTXhNalVzSW5raU9qRTJPWDBzZXlKNElqb3hPRGMxTGprMU16RXlOU3dpZVNJNk1UWTVmU3g3SW5naU9qSXdNREF1T1RVek1USTFMQ0o1SWpveE5qbDlMSHNpZUNJNk1qQTJNQzQ1TmpnM05Td2llU0k2TVRZNWZWMD0iIG1hcmtlci1lbmQ9InVybCgjZXhwb3J0LXN2Z19mbG93Y2hhcnQtdjItcG9pbnRFbmQtbWFyZ2luKSIvPjxwYXRoIGQ9Ik0yMjIyLjkzNzUsMTU3LjEwMTgyMTY4MjQ2NDQ1TDIzMDcuOTM2MzgxNTAyMTE4LDE0NC42MTM4MzQzNTI3Njk0M1EyMzUyLjk1MzEyNSwxMzggMjM5OC40NTMxMjUsMTM4TDI0NDMuOTUzMTI1LDEzOCIgaWQ9IkxfR19IXzAiIGNsYXNzPSJlZGdlLXRoaWNrbmVzcy1ub3JtYWwgZWRnZS1wYXR0ZXJuLXNvbGlkIGVkZ2UtdGhpY2tuZXNzLW5vcm1hbCBlZGdlLXBhdHRlcm4tc29saWQgZmxvd2NoYXJ0LWxpbmsiIHN0eWxlPSJzdHJva2UtZGFzaGFycmF5OiAwIDAgMjEzLjI1MDE4MzEwNTQ2ODc1IDk7IHN0cm9rZS1kYXNob2Zmc2V0OiAwOzsiIGRhdGEtZWRnZT0idHJ1ZSIgZGF0YS1ldD0iZWRnZSIgZGF0YS1pZD0iTF9HX0hfMCIgZGF0YS1wb2ludHM9Ilczc2llQ0k2TWpJeU1pNDVNemMxTENKNUlqb3hOVGN1TVRBeE9ESXhOamd5TkRZME5EVjlMSHNpZUNJNk1qTTFNaTQ1TlRNeE1qVXNJbmtpT2pFek9IMHNleUo0SWpveU5EUTNMamsxTXpFeU5Td2llU0k2TVRNNGZWMD0iIG1hcmtlci1lbmQ9InVybCgjZXhwb3J0LXN2Z19mbG93Y2hhcnQtdjItcG9pbnRFbmQtbWFyZ2luKSIvPjxwYXRoIGQ9Ik02MjQuNjIxMjQ4OTE0Njk1LDQwMy43NUw3MjkuMDM3MDAwODMwNTA3Niw0NjkuMTE1MDc0MTU2NTU2MTVRNzQ0LjM5MDYyNSw0NzguNzI2NTYyNSA3NjIuNTA0NTU1NjQyMzAzMyw0NzguNzI2NTYyNUw5MzMuODkwNjI1LDQ3OC43MjY1NjI1TDEwNjEuOTA2MjUsNDc4LjcyNjU2MjVMMTEyNS4wMjM0Mzc1LDQ3OC43MjY1NjI1TDExODguMTQwNjI1LDQ3OC43MjY1NjI1TDEyOTMuNzI2NTYyNSw0NzguNzI2NTYyNUwxNDUwLjkyMTg3NSw0NzguNzI2NTYyNUwxNjM5LjI0MjE4NzUsNDc4LjcyNjU2MjVMMTg3NS45NTMxMjUsNDc4LjcyNjU2MjVMMTk4OS4yMDczNDM5Mjc4MzY3LDQ3OC43MjY1NjI1UTIwMDAuOTUzMTI1LDQ3OC43MjY1NjI1IDIwMTEuNjM0Mzg1MTM1ODM3LDQ3My44NDA0NTQxMzk5ODk0NUwyMDIyLjMxNTY0NTI3MTY3NDIsNDY4Ljk1NDM0NTc3OTk3ODkiIGlkPSJMX0JfSV8wIiBjbGFzcz0iZWRnZS10aGlja25lc3Mtbm9ybWFsIGVkZ2UtcGF0dGVybi1zb2xpZCBlZGdlLXRoaWNrbmVzcy1ub3JtYWwgZWRnZS1wYXR0ZXJuLXNvbGlkIGZsb3djaGFydC1saW5rIiBzdHlsZT0ic3Ryb2tlLWRhc2hhcnJheTogMCAwIDE0MTEuMDYzMjMyNDIxODc1IDk7IHN0cm9rZS1kYXNob2Zmc2V0OiAwOzsiIGRhdGEtZWRnZT0idHJ1ZSIgZGF0YS1ldD0iZWRnZSIgZGF0YS1pZD0iTF9CX0lfMCIgZGF0YS1wb2ludHM9Ilczc2llQ0k2TmpJMExqWXlNVEkwT0RreE5EWTVOU3dpZVNJNk5EQXpMamMxZlN4N0luZ2lPamMwTkM0ek9UQTJNalVzSW5raU9qUTNPQzQzTWpZMU5qSTFmU3g3SW5naU9qa3pNeTQ0T1RBMk1qVXNJbmtpT2pRM09DNDNNalkxTmpJMWZTeDdJbmdpT2pFd05qRXVPVEEyTWpVc0lua2lPalEzT0M0M01qWTFOakkxZlN4N0luZ2lPakV4TWpVdU1ESXpORE0zTlN3aWVTSTZORGM0TGpjeU5qVTJNalY5TEhzaWVDSTZNVEU0T0M0eE5EQTJNalVzSW5raU9qUTNPQzQzTWpZMU5qSTFmU3g3SW5naU9qRXlPVE11TnpJMk5UWXlOU3dpZVNJNk5EYzRMamN5TmpVMk1qVjlMSHNpZUNJNk1UUTFNQzQ1TWpFNE56VXNJbmtpT2pRM09DNDNNalkxTmpJMWZTeDdJbmdpT2pFMk16a3VNalF5TVRnM05Td2llU0k2TkRjNExqY3lOalUyTWpWOUxIc2llQ0k2TVRnM05TNDVOVE14TWpVc0lua2lPalEzT0M0M01qWTFOakkxZlN4N0luZ2lPakl3TURBdU9UVXpNVEkxTENKNUlqbzBOemd1TnpJMk5UWXlOWDBzZXlKNElqb3lNREkxTGprMU16RXlOU3dpZVNJNk5EWTNMakk1TURNNU1qSTROekl6TkRBMmZWMD0iIG1hcmtlci1lbmQ9InVybCgjZXhwb3J0LXN2Z19mbG93Y2hhcnQtdjItcG9pbnRFbmQtbWFyZ2luKSIvPjxwYXRoIGQ9Ik0xMDIzLjY3OTY4NzUsMjA1LjUxNjY1MzQxMjIxMTY0TDEwNDIuNzkyOTY4NzUsMjExLjc0NjYwNzk1NjEwNTgzUTEwNjEuOTA2MjUsMjE3Ljk3NjU2MjUgMTA4Mi4wMDkyMzEyMTU3NDQ5LDIxNy45NzY1NjI1TDExMTUuMzg1Mzk2MTc5MjIyMiwyMTcuOTc2NTYyNVExMTI1LjAyMzQzNzUsMjE3Ljk3NjU2MjUgMTEyOS40NzM3MDI3NjM4MDk2LDIyNi41MjU2NTQ4MjUwODAzOEwxMTgzLjY5MDM1OTczNjE5MDQsMzMwLjY3NzQ3MDE3NDkxOTZRMTE4OC4xNDA2MjUsMzM5LjIyNjU2MjUgMTE5Ny43Nzg2NjYzMjA3Nzc4LDMzOS4yMjY1NjI1TDEyOTMuNzI2NTYyNSwzMzkuMjI2NTYyNUwxNDUwLjkyMTg3NSwzMzkuMjI2NTYyNUwxNjM5LjI0MjE4NzUsMzM5LjIyNjU2MjVMMTg3NS45NTMxMjUsMzM5LjIyNjU2MjVMMTk4MC41OTQyODc4MjA5MzM3LDMzOS4yMjY1NjI1UTIwMDAuOTUzMTI1LDMzOS4yMjY1NjI1IDIwMTguOTI3MzgwMjIxNjAxNCwzNDguNzg3MzM2NTU0MDQzMzVMMjAzNi45MDE2MzU0NDMyMDI4LDM1OC4zNDgxMTA2MDgwODY2NCIgaWQ9IkxfQ19JXzAiIGNsYXNzPSJlZGdlLXRoaWNrbmVzcy1ub3JtYWwgZWRnZS1wYXR0ZXJuLXNvbGlkIGVkZ2UtdGhpY2tuZXNzLW5vcm1hbCBlZGdlLXBhdHRlcm4tc29saWQgZmxvd2NoYXJ0LWxpbmsiIHN0eWxlPSJzdHJva2UtZGFzaGFycmF5OiAwIDAgMTA3OS43NDE4MjEyODkwNjI1IDk7IHN0cm9rZS1kYXNob2Zmc2V0OiAwOzsiIGRhdGEtZWRnZT0idHJ1ZSIgZGF0YS1ldD0iZWRnZSIgZGF0YS1pZD0iTF9DX0lfMCIgZGF0YS1wb2ludHM9Ilczc2llQ0k2TVRBeU15NDJOemsyT0RjMUxDSjVJam95TURVdU5URTJOalV6TkRFeU1qRXhOalI5TEhzaWVDSTZNVEEyTVM0NU1EWXlOU3dpZVNJNk1qRTNMamszTmpVMk1qVjlMSHNpZUNJNk1URXlOUzR3TWpNME16YzFMQ0o1SWpveU1UY3VPVGMyTlRZeU5YMHNleUo0SWpveE1UZzRMakUwTURZeU5Td2llU0k2TXpNNUxqSXlOalUyTWpWOUxIc2llQ0k2TVRJNU15NDNNalkxTmpJMUxDSjVJam96TXprdU1qSTJOVFl5Tlgwc2V5SjRJam94TkRVd0xqa3lNVGczTlN3aWVTSTZNek01TGpJeU5qVTJNalY5TEhzaWVDSTZNVFl6T1M0eU5ESXhPRGMxTENKNUlqb3pNemt1TWpJMk5UWXlOWDBzZXlKNElqb3hPRGMxTGprMU16RXlOU3dpZVNJNk16TTVMakl5TmpVMk1qVjlMSHNpZUNJNk1qQXdNQzQ1TlRNeE1qVXNJbmtpT2pNek9TNHlNalkxTmpJMWZTeDdJbmdpT2pJd05EQXVORE16TVRJMUxDSjVJam96TmpBdU1qSTJOVFl5TlgxZCIgbWFya2VyLWVuZD0idXJsKCNleHBvcnQtc3ZnX2Zsb3djaGFydC12Mi1wb2ludEVuZC1tYXJnaW4pIi8+PHBhdGggZD0iTTEwMDUuODI1OTcxNTQ3ODI0OSwzNjkuNzVMMTA0MC42MDk3ODEwMDEzMTY4LDM4NS43MDY5MDgwNzE2NDAzUTEwNjEuOTA2MjUsMzk1LjQ3NjU2MjUgMTA4NS4zMzY2OTQ3MTMyNjY4LDM5NS40NzY1NjI1TDExMjUuMDIzNDM3NSwzOTUuNDc2NTYyNUwxMTg4LjE0MDYyNSwzOTUuNDc2NTYyNUwxMjkzLjcyNjU2MjUsMzk1LjQ3NjU2MjVMMTQ1MC45MjE4NzUsMzk1LjQ3NjU2MjVMMTYzOS4yNDIxODc1LDM5NS40NzY1NjI1TDE4NzUuOTUzMTI1LDM5NS40NzY1NjI1TDE5OTAuMzQzMDg4NDQxMjgxMiwzOTUuNDc2NTYyNVEyMDAwLjk1MzEyNSwzOTUuNDc2NTYyNSAyMDExLjQ3MDU3NzIxODgyNjcsMzk2Ljg3NTE1OTg2OTUyNDg1TDIwMjEuOTg4MDI5NDM3NjUzNywzOTguMjczNzU3MjM5MDQ5NyIgaWQ9IkxfRF9JXzAiIGNsYXNzPSJlZGdlLXRoaWNrbmVzcy1ub3JtYWwgZWRnZS1wYXR0ZXJuLXNvbGlkIGVkZ2UtdGhpY2tuZXNzLW5vcm1hbCBlZGdlLXBhdHRlcm4tc29saWQgZmxvd2NoYXJ0LWxpbmsiIHN0eWxlPSJzdHJva2UtZGFzaGFycmF5OiAwIDAgMTAxMi4yMTc5NTY1NDI5Njg4IDk7IHN0cm9rZS1kYXNob2Zmc2V0OiAwOzsiIGRhdGEtZWRnZT0idHJ1ZSIgZGF0YS1ldD0iZWRnZSIgZGF0YS1pZD0iTF9EX0lfMCIgZGF0YS1wb2ludHM9Ilczc2llQ0k2TVRBd05TNDRNalU1TnpFMU5EYzRNalE1TENKNUlqb3pOamt1TnpWOUxIc2llQ0k2TVRBMk1TNDVNRFl5TlN3aWVTSTZNemsxTGpRM05qVTJNalY5TEhzaWVDSTZNVEV5TlM0d01qTTBNemMxTENKNUlqb3pPVFV1TkRjMk5UWXlOWDBzZXlKNElqb3hNVGc0TGpFME1EWXlOU3dpZVNJNk16azFMalEzTmpVMk1qVjlMSHNpZUNJNk1USTVNeTQzTWpZMU5qSTFMQ0o1SWpvek9UVXVORGMyTlRZeU5YMHNleUo0SWpveE5EVXdMamt5TVRnM05Td2llU0k2TXprMUxqUTNOalUyTWpWOUxIc2llQ0k2TVRZek9TNHlOREl4T0RjMUxDSjVJam96T1RVdU5EYzJOVFl5Tlgwc2V5SjRJam94T0RjMUxqazFNekV5TlN3aWVTSTZNemsxTGpRM05qVTJNalY5TEhzaWVDSTZNakF3TUM0NU5UTXhNalVzSW5raU9qTTVOUzQwTnpZMU5qSTFmU3g3SW5naU9qSXdNalV1T1RVek1USTFMQ0o1SWpvek9UZ3VPREF4TURNd05UZzFNVEEyTkgxZCIgbWFya2VyLWVuZD0idXJsKCNleHBvcnQtc3ZnX2Zsb3djaGFydC12Mi1wb2ludEVuZC1tYXJnaW4pIi8+PHBhdGggZD0iTTIyNTcuOTUzMTI1LDQxNC4yMjY1NjI1TDIzNTIuOTUzMTI1LDQxNC4yMjY1NjI1TDI0NDQuMzU5Mzc1LDQxNC4yMjY1NjI1IiBpZD0iTF9JX01fMCIgY2xhc3M9ImVkZ2UtdGhpY2tuZXNzLW5vcm1hbCBlZGdlLXBhdHRlcm4tc29saWQgZWRnZS10aGlja25lc3Mtbm9ybWFsIGVkZ2UtcGF0dGVybi1zb2xpZCBmbG93Y2hhcnQtbGluayIgc3R5bGU9InN0cm9rZS1kYXNoYXJyYXk6IDAgMCAxNzcuNDA2MjUgOTsgc3Ryb2tlLWRhc2hvZmZzZXQ6IDA7OyIgZGF0YS1lZGdlPSJ0cnVlIiBkYXRhLWV0PSJlZGdlIiBkYXRhLWlkPSJMX0lfTV8wIiBkYXRhLXBvaW50cz0iVzNzaWVDSTZNakkxTnk0NU5UTXhNalVzSW5raU9qUXhOQzR5TWpZMU5qSTFmU3g3SW5naU9qSXpOVEl1T1RVek1USTFMQ0o1SWpvME1UUXVNakkyTlRZeU5YMHNleUo0SWpveU5EUTRMak0xT1RNM05Td2llU0k2TkRFMExqSXlOalUyTWpWOVhRPT0iIG1hcmtlci1lbmQ9InVybCgjZXhwb3J0LXN2Z19mbG93Y2hhcnQtdjItcG9pbnRFbmQtbWFyZ2luKSIvPjxwYXRoIGQ9Ik0yMjIyLjkzNzUsMTg4LjA5NDY1NzEzODYyNTZMMjMzNS41ODYzNjE5NjgwMjM1LDIxNC42NTUyMzAwNDM0MDgzOFEyMzUyLjk1MzEyNSwyMTguNzUgMjM2NS4zODk1MDQxNzU2Nzc4LDIzMS41NDQ4NDU1MzI2NzQzMkwyNTA4LjA4OTcwNjc4OTc4MzYsMzc4LjM1ODI0MDY2NDU2MzUiIGlkPSJMX0dfTV8wIiBjbGFzcz0iZWRnZS10aGlja25lc3Mtbm9ybWFsIGVkZ2UtcGF0dGVybi1zb2xpZCBlZGdlLXRoaWNrbmVzcy1ub3JtYWwgZWRnZS1wYXR0ZXJuLXNvbGlkIGZsb3djaGFydC1saW5rIiBzdHlsZT0ic3Ryb2tlLWRhc2hhcnJheTogMCAwIDM0Ni4yMTIyMTkyMzgyODEyNSA5OyBzdHJva2UtZGFzaG9mZnNldDogMDs7IiBkYXRhLWVkZ2U9InRydWUiIGRhdGEtZXQ9ImVkZ2UiIGRhdGEtaWQ9IkxfR19NXzAiIGRhdGEtcG9pbnRzPSJXM3NpZUNJNk1qSXlNaTQ1TXpjMUxDSjVJam94T0RndU1EazBOalUzTVRNNE5qSTFObjBzZXlKNElqb3lNelV5TGprMU16RXlOU3dpZVNJNk1qRTRMamMxZlN4N0luZ2lPakkxTVRBdU9EYzNOalk0TXpnek5UVTNOaXdpZVNJNk16Z3hMakl5TmpVMk1qVjlYUT09IiBtYXJrZXItZW5kPSJ1cmwoI2V4cG9ydC1zdmdfZmxvd2NoYXJ0LXYyLXBvaW50RW5kLW1hcmdpbikiLz48cGF0aCBkPSJNMjYxNy43MDMxNjE4Njc3MTksMzgxLjIyNjU2MjVMMjY0MC43ODkyMjE5ODAxMjMzLDM3MS4wMzQ3MjgyNzk4MDM2UTI2NjIuOTUzMTI1LDM2MS4yNSAyNjg3LjE4MDc4NDkwNzMwNTcsMzYxLjI1TDI3MTUuOTUzMTI1LDM2MS4yNUwyNzY0Ljk1MzEyNSwzNjEuMjUiIGlkPSJMX01fTF8wIiBjbGFzcz0iZWRnZS10aGlja25lc3Mtbm9ybWFsIGVkZ2UtcGF0dGVybi1zb2xpZCBlZGdlLXRoaWNrbmVzcy1ub3JtYWwgZWRnZS1wYXR0ZXJuLXNvbGlkIGZsb3djaGFydC1saW5rIiBzdHlsZT0ic3Ryb2tlLWRhc2hhcnJheTogMCAwIDE0MS43Njk1NjE3Njc1NzgxMiA5OyBzdHJva2UtZGFzaG9mZnNldDogMDs7IiBkYXRhLWVkZ2U9InRydWUiIGRhdGEtZXQ9ImVkZ2UiIGRhdGEtaWQ9IkxfTV9MXzAiIGRhdGEtcG9pbnRzPSJXM3NpZUNJNk1qWXhOeTQzTURNeE5qRTROamMzTVRrc0lua2lPak00TVM0eU1qWTFOakkxZlN4N0luZ2lPakkyTmpJdU9UVXpNVEkxTENKNUlqb3pOakV1TWpWOUxIc2llQ0k2TWpjeE5TNDVOVE14TWpVc0lua2lPak0yTVM0eU5YMHNleUo0SWpveU56WTRMamsxTXpFeU5Td2llU0k2TXpZeExqSTFmVjA9IiBtYXJrZXItZW5kPSJ1cmwoI2V4cG9ydC1zdmdfZmxvd2NoYXJ0LXYyLXBvaW50RW5kLW1hcmdpbikiLz48cGF0aCBkPSJNMjYzNy41NDY4NzUsNDM1LjMzMTU2MTI3OTI5Njg2TDI2NTAuMjUsNDM4LjE2NTc4MDYzOTY0ODQ2UTI2NjIuOTUzMTI1LDQ0MSAyNjc1Ljk2ODU4NDQyOTAxMDcsNDQxTDI3MTUuOTUzMTI1LDQ0MUwyODI2Ljk1MzEyNSw0NDFMMjkxOS41OTY3OTc4MjI3MjU0LDQ0MVEyOTUxLjk1MzEyNSw0NDEgMjk4My41MDI5NzQ3NTA5ODUyLDQzMy44MjA5NDA5MzI2MDhMMzAxNS4wNTI4MjQ1MDE5Nyw0MjYuNjQxODgxODY1MjE1OSIgaWQ9IkxfTV9LXzAiIGNsYXNzPSJlZGdlLXRoaWNrbmVzcy1ub3JtYWwgZWRnZS1wYXR0ZXJuLXNvbGlkIGVkZ2UtdGhpY2tuZXNzLW5vcm1hbCBlZGdlLXBhdHRlcm4tc29saWQgZmxvd2NoYXJ0LWxpbmsiIHN0eWxlPSJzdHJva2UtZGFzaGFycmF5OiAwIDAgMzcwLjM2OTgxMjAxMTcxODc1IDk7IHN0cm9rZS1kYXNob2Zmc2V0OiAwOzsiIGRhdGEtZWRnZT0idHJ1ZSIgZGF0YS1ldD0iZWRnZSIgZGF0YS1pZD0iTF9NX0tfMCIgZGF0YS1wb2ludHM9Ilczc2llQ0k2TWpZek55NDFORFk0TnpVc0lua2lPalF6TlM0ek16RTFOakV5TnpreU9UWTRObjBzZXlKNElqb3lOall5TGprMU16RXlOU3dpZVNJNk5EUXhmU3g3SW5naU9qSTNNVFV1T1RVek1USTFMQ0o1SWpvME5ERjlMSHNpZUNJNk1qZ3lOaTQ1TlRNeE1qVXNJbmtpT2pRME1YMHNleUo0SWpveU9UVXhMamsxTXpFeU5Td2llU0k2TkRReGZTeDdJbmdpT2pNd01UZ3VPVFV6TVRJMUxDSjVJam8wTWpVdU56VTBNemd4T1RreE9UTTRNRE45WFE9PSIgbWFya2VyLWVuZD0idXJsKCNleHBvcnQtc3ZnX2Zsb3djaGFydC12Mi1wb2ludEVuZC1tYXJnaW4pIi8+PHBhdGggZD0iTTI4ODQuOTUzMTI1LDM2MS4yNUwyOTE5LjU0MjEyMDI0Mjc1NywzNjEuMjVRMjk1MS45NTMxMjUsMzYxLjI1IDI5ODMuNTA2MDczNDU0MzQ4NiwzNjguNjU4NDE5MDc2Mzc3NzVMMzAxNS4wNTkwMjE5MDg2OTc2LDM3Ni4wNjY4MzgxNTI3NTU1IiBpZD0iTF9MX0tfMCIgY2xhc3M9ImVkZ2UtdGhpY2tuZXNzLW5vcm1hbCBlZGdlLXBhdHRlcm4tc29saWQgZWRnZS10aGlja25lc3Mtbm9ybWFsIGVkZ2UtcGF0dGVybi1zb2xpZCBmbG93Y2hhcnQtbGluayIgc3R5bGU9InN0cm9rZS1kYXNoYXJyYXk6IDAgMCAxMjIuNTM1NDMwOTA4MjAzMTIgOTsgc3Ryb2tlLWRhc2hvZmZzZXQ6IDA7OyIgZGF0YS1lZGdlPSJ0cnVlIiBkYXRhLWV0PSJlZGdlIiBkYXRhLWlkPSJMX0xfS18wIiBkYXRhLXBvaW50cz0iVzNzaWVDSTZNamc0TkM0NU5UTXhNalVzSW5raU9qTTJNUzR5Tlgwc2V5SjRJam95T1RVeExqazFNekV5TlN3aWVTSTZNell4TGpJMWZTeDdJbmdpT2pNd01UZ3VPVFV6TVRJMUxDSjVJam96TnpZdU9UZ3hNVFEzTWpRek9UZzNOWDFkIiBtYXJrZXItZW5kPSJ1cmwoI2V4cG9ydC1zdmdfZmxvd2NoYXJ0LXYyLXBvaW50RW5kLW1hcmdpbikiLz48cGF0aCBkPSJNMjU4NS4xOTMxMjUsNDQ3LjIyNjU2MjVMMjY1MC44NTA0NDExMzY2NzgsNDk4LjUyMTM0MDczMTc3OTZRMjY2Mi45NTMxMjUsNTA3Ljk3NjU2MjUgMjY3OC4zMTEzODU4MTg5MTI2LDUwNy45NzY1NjI1TDI3MTUuOTUzMTI1LDUwNy45NzY1NjI1TDI4MjYuOTUzMTI1LDUwNy45NzY1NjI1TDI5NTEuOTUzMTI1LDUwNy45NzY1NjI1TDMxMjQuNDQ1MzEyNSw1MDcuOTc2NTYyNUwzMjM4Ljk1MjI4NTMwOTE4Myw1MDcuOTc2NTYyNVEzMjU0LjkzNzUsNTA3Ljk3NjU2MjUgMzI2OS43NTg0MDkzMTM4Njk0LDUwMS45ODc1OTQ2NTcyNDQ1TDMyODQuNTc5MzE4NjI3NzM5LDQ5NS45OTg2MjY4MTQ0ODkiIGlkPSJMX01fTl8wIiBjbGFzcz0iZWRnZS10aGlja25lc3Mtbm9ybWFsIGVkZ2UtcGF0dGVybi1zb2xpZCBlZGdlLXRoaWNrbmVzcy1ub3JtYWwgZWRnZS1wYXR0ZXJuLXNvbGlkIGZsb3djaGFydC1saW5rIiBzdHlsZT0ic3Ryb2tlLWRhc2hhcnJheTogMCAwIDcxMi4xMzE5NTgwMDc4MTI1IDk7IHN0cm9rZS1kYXNob2Zmc2V0OiAwOzsiIGRhdGEtZWRnZT0idHJ1ZSIgZGF0YS1ldD0iZWRnZSIgZGF0YS1pZD0iTF9NX05fMCIgZGF0YS1wb2ludHM9Ilczc2llQ0k2TWpVNE5TNHhPVE14TWpVc0lua2lPalEwTnk0eU1qWTFOakkxZlN4N0luZ2lPakkyTmpJdU9UVXpNVEkxTENKNUlqbzFNRGN1T1RjMk5UWXlOWDBzZXlKNElqb3lOekUxTGprMU16RXlOU3dpZVNJNk5UQTNMamszTmpVMk1qVjlMSHNpZUNJNk1qZ3lOaTQ1TlRNeE1qVXNJbmtpT2pVd055NDVOelkxTmpJMWZTeDdJbmdpT2pJNU5URXVPVFV6TVRJMUxDSjVJam8xTURjdU9UYzJOVFl5Tlgwc2V5SjRJam96TVRJMExqUTBOVE14TWpVc0lua2lPalV3Tnk0NU56WTFOakkxZlN4N0luZ2lPak15TlRRdU9UTTNOU3dpZVNJNk5UQTNMamszTmpVMk1qVjlMSHNpZUNJNk16STRPQzR5T0RjNU56TXdOVFl6TlRVMExDSjVJam8wT1RRdU5YMWQiIG1hcmtlci1lbmQ9InVybCgjZXhwb3J0LXN2Z19mbG93Y2hhcnQtdjItcG9pbnRFbmQtbWFyZ2luKSIvPjxwYXRoIGQ9Ik0zMjI5LjkzNzUsNDAxLjc1TDMyNDMuNjk2OTEzNDMxNzc1Niw0MDEuNzVRMzI1NC45Mzc1LDQwMS43NSAzMjY1LjU0OTM2NjEyNjgzOCw0MDUuNDU2NjI2OTk4MjA0TDMyNzYuMTYxMjMyMjUzNjc1Nyw0MDkuMTYzMjUzOTk2NDA4IiBpZD0iTF9LX05fMCIgY2xhc3M9ImVkZ2UtdGhpY2tuZXNzLW5vcm1hbCBlZGdlLXBhdHRlcm4tc29saWQgZWRnZS10aGlja25lc3Mtbm9ybWFsIGVkZ2UtcGF0dGVybi1zb2xpZCBmbG93Y2hhcnQtbGluayIgc3R5bGU9InN0cm9rZS1kYXNoYXJyYXk6IDAgMCAzOC4yNzA0MjAwNzQ0NjI4OSA5OyBzdHJva2UtZGFzaG9mZnNldDogMDs7IiBkYXRhLWVkZ2U9InRydWUiIGRhdGEtZXQ9ImVkZ2UiIGRhdGEtaWQ9IkxfS19OXzAiIGRhdGEtcG9pbnRzPSJXM3NpZUNJNk16SXlPUzQ1TXpjMUxDSjVJam8wTURFdU56VjlMSHNpZUNJNk16STFOQzQ1TXpjMUxDSjVJam8wTURFdU56VjlMSHNpZUNJNk16STNPUzQ1TXpjMUxDSjVJam8wTVRBdU5EZ3lNalk1TlRBek5UUTJNWDFkIiBtYXJrZXItZW5kPSJ1cmwoI2V4cG9ydC1zdmdfZmxvd2NoYXJ0LXYyLXBvaW50RW5kLW1hcmdpbikiLz48cGF0aCBkPSJNMzMxNi4yNTc0MDI1Njc3NDYsNDk0LjVMMzI3Mi42ODU5Njg5OTQ5NzE1LDUxOC4yODcwODYzODAzNDk0UTMyNTQuOTM3NSw1MjcuOTc2NTYyNSAzMjM0LjcxNjM2OTk4MzYzNDYsNTI3Ljk3NjU2MjVMMzEyNC40NDUzMTI1LDUyNy45NzY1NjI1TDI5NTEuOTUzMTI1LDUyNy45NzY1NjI1TDI4MjYuOTUzMTI1LDUyNy45NzY1NjI1TDI3MTUuOTUzMTI1LDUyNy45NzY1NjI1TDI2NjIuOTUzMTI1LDUyNy45NzY1NjI1TDI1NDIuOTUzMTI1LDUyNy45NzY1NjI1TDIzNTIuOTUzMTI1LDUyNy45NzY1NjI1TDIxNDEuOTUzMTI1LDUyNy45NzY1NjI1TDIwMDAuOTUzMTI1LDUyNy45NzY1NjI1TDE4NzUuOTUzMTI1LDUyNy45NzY1NjI1TDE2MzkuMjQyMTg3NSw1MjcuOTc2NTYyNUwxNDUwLjkyMTg3NSw1MjcuOTc2NTYyNUwxMjkzLjcyNjU2MjUsNTI3Ljk3NjU2MjVMMTE4OC4xNDA2MjUsNTI3Ljk3NjU2MjVMMTEyNS4wMjM0Mzc1LDUyNy45NzY1NjI1TDEwNjEuOTA2MjUsNTI3Ljk3NjU2MjVMOTMzLjg5MDYyNSw1MjcuOTc2NTYyNUw3NDQuMzkwNjI1LDUyNy45NzY1NjI1TDU3MS45MDYyNSw1MjcuOTc2NTYyNUw0MjAuMjA5MjI1OTUzOTMyOSw1MjcuOTc2NTYyNVEzNjIuOTA2MjUsNTI3Ljk3NjU2MjUgMzA2LjQ3NTgyOTA3Nzc2NzMsNTE4LjAxNDcwMjg0ODQ3NjNMMjQyLjI3MDA1NjM1ODU3MzE2LDUwNi42ODAyMzMxMzg4MTk0IiBpZD0iTF9OX0FfMCIgY2xhc3M9ImVkZ2UtdGhpY2tuZXNzLW5vcm1hbCBlZGdlLXBhdHRlcm4tc29saWQgZWRnZS10aGlja25lc3Mtbm9ybWFsIGVkZ2UtcGF0dGVybi1zb2xpZCBmbG93Y2hhcnQtbGluayIgc3R5bGU9InN0cm9rZS1kYXNoYXJyYXk6IDAgMCAzMDc0LjI2OTc3NTM5MDYyNSA5OyBzdHJva2UtZGFzaG9mZnNldDogMDs7IiBkYXRhLWVkZ2U9InRydWUiIGRhdGEtZXQ9ImVkZ2UiIGRhdGEtaWQ9IkxfTl9BXzAiIGRhdGEtcG9pbnRzPSJXM3NpZUNJNk16TXhOaTR5TlRjME1ESTFOamMzTkRZc0lua2lPalE1TkM0MWZTeDdJbmdpT2pNeU5UUXVPVE0zTlN3aWVTSTZOVEkzTGprM05qVTJNalY5TEhzaWVDSTZNekV5TkM0ME5EVXpNVEkxTENKNUlqbzFNamN1T1RjMk5UWXlOWDBzZXlKNElqb3lPVFV4TGprMU16RXlOU3dpZVNJNk5USTNMamszTmpVMk1qVjlMSHNpZUNJNk1qZ3lOaTQ1TlRNeE1qVXNJbmtpT2pVeU55NDVOelkxTmpJMWZTeDdJbmdpT2pJM01UVXVPVFV6TVRJMUxDSjVJam8xTWpjdU9UYzJOVFl5Tlgwc2V5SjRJam95TmpZeUxqazFNekV5TlN3aWVTSTZOVEkzTGprM05qVTJNalY5TEhzaWVDSTZNalUwTWk0NU5UTXhNalVzSW5raU9qVXlOeTQ1TnpZMU5qSTFmU3g3SW5naU9qSXpOVEl1T1RVek1USTFMQ0o1SWpvMU1qY3VPVGMyTlRZeU5YMHNleUo0SWpveU1UUXhMamsxTXpFeU5Td2llU0k2TlRJM0xqazNOalUyTWpWOUxIc2llQ0k2TWpBd01DNDVOVE14TWpVc0lua2lPalV5Tnk0NU56WTFOakkxZlN4N0luZ2lPakU0TnpVdU9UVXpNVEkxTENKNUlqbzFNamN1T1RjMk5UWXlOWDBzZXlKNElqb3hOak01TGpJME1qRTROelVzSW5raU9qVXlOeTQ1TnpZMU5qSTFmU3g3SW5naU9qRTBOVEF1T1RJeE9EYzFMQ0o1SWpvMU1qY3VPVGMyTlRZeU5YMHNleUo0SWpveE1qa3pMamN5TmpVMk1qVXNJbmtpT2pVeU55NDVOelkxTmpJMWZTeDdJbmdpT2pFeE9EZ3VNVFF3TmpJMUxDSjVJam8xTWpjdU9UYzJOVFl5Tlgwc2V5SjRJam94TVRJMUxqQXlNelF6TnpVc0lua2lPalV5Tnk0NU56WTFOakkxZlN4N0luZ2lPakV3TmpFdU9UQTJNalVzSW5raU9qVXlOeTQ1TnpZMU5qSTFmU3g3SW5naU9qa3pNeTQ0T1RBMk1qVXNJbmtpT2pVeU55NDVOelkxTmpJMWZTeDdJbmdpT2pjME5DNHpPVEEyTWpVc0lua2lPalV5Tnk0NU56WTFOakkxZlN4N0luZ2lPalUzTVM0NU1EWXlOU3dpZVNJNk5USTNMamszTmpVMk1qVjlMSHNpZUNJNk16WXlMamt3TmpJMUxDSjVJam8xTWpjdU9UYzJOVFl5Tlgwc2V5SjRJam95TXpndU16TXdPVFkwTlRReE1qUXdOemNzSW5raU9qVXdOUzQ1T0RRNE5URTBOemMyT1RjeE0zMWQiIG1hcmtlci1lbmQ9InVybCgjZXhwb3J0LXN2Z19mbG93Y2hhcnQtdjItcG9pbnRFbmQtbWFyZ2luKSIvPjwvZz48ZyBjbGFzcz0iZWRnZUxhYmVscyI+PGcgY2xhc3M9ImVkZ2VMYWJlbCIgdHJhbnNmb3JtPSJ0cmFuc2xhdGUoMzYyLjkwNjI1LCAzNzAuNzUpIj48ZyBjbGFzcz0ibGFiZWwiIGRhdGEtaWQ9IkxfQV9CXzAiIHRyYW5zZm9ybT0idHJhbnNsYXRlKC05OCwgLTIxKSI+PGZvcmVpZ25PYmplY3Qgd2lkdGg9IjE5NiIgaGVpZ2h0PSI0MiI+PGRpdiB4bWxucz0iaHR0cDovL3d3dy53My5vcmcvMTk5OS94aHRtbCIgc3R5bGU9ImRpc3BsYXk6IHRhYmxlLWNlbGw7IHdoaXRlLXNwYWNlOiBub3JtYWw7IGxpbmUtaGVpZ2h0OiAxLjU7IG1heC13aWR0aDogMjAwcHg7IHRleHQtYWxpZ246IGNlbnRlcjsiIGNsYXNzPSJsYWJlbEJrZyI+PHNwYW4gY2xhc3M9ImVkZ2VMYWJlbCI+PHA+44Kv44Oq44Ko44Kk44OG44Kj44OT44OG44Kj44KS5Yi65r+A44GZ44KLPGJyIC8+U3RpbXVsYXRlIENyZWF0aXZpdHk8L3A+PC9zcGFuPjwvZGl2PjwvZm9yZWlnbk9iamVjdD48L2c+PC9nPjxnIGNsYXNzPSJlZGdlTGFiZWwiIHRyYW5zZm9ybT0idHJhbnNsYXRlKDc0NC4zOTA2MjUsIDE3Ni4yNSkiPjxnIGNsYXNzPSJsYWJlbCIgZGF0YS1pZD0iTF9CX0NfMCIgdHJhbnNmb3JtPSJ0cmFuc2xhdGUoLTQ4LjI0MjE4NzUsIC0yMSkiPjxmb3JlaWduT2JqZWN0IHdpZHRoPSI5Ni40ODQzNzUiIGhlaWdodD0iNDIiPjxkaXYgeG1sbnM9Imh0dHA6Ly93d3cudzMub3JnLzE5OTkveGh0bWwiIHN0eWxlPSJkaXNwbGF5OiB0YWJsZS1jZWxsOyB3aGl0ZS1zcGFjZTogbm9ybWFsOyBsaW5lLWhlaWdodDogMS41OyBtYXgtd2lkdGg6IDIwMHB4OyB0ZXh0LWFsaWduOiBjZW50ZXI7IiBjbGFzcz0ibGFiZWxCa2ciPjxzcGFuIGNsYXNzPSJlZGdlTGFiZWwiPjxwPuOBleOCieOBq+a3seOCgeOCizxiciAvPkV4cGxvcmUgRnVydGhlcjwvcD48L3NwYW4+PC9kaXY+PC9mb3JlaWduT2JqZWN0PjwvZz48L2c+PGcgY2xhc3M9ImVkZ2VMYWJlbCIgdHJhbnNmb3JtPSJ0cmFuc2xhdGUoNzQ0LjM5MDYyNSwgMzM2Ljc1KSI+PGcgY2xhc3M9ImxhYmVsIiBkYXRhLWlkPSJMX0JfRF8wIiB0cmFuc2Zvcm09InRyYW5zbGF0ZSgtNjEuNDg0Mzc1LCAtMjEpIj48Zm9yZWlnbk9iamVjdCB3aWR0aD0iMTIyLjk2ODc1IiBoZWlnaHQ9IjQyIj48ZGl2IHhtbG5zPSJodHRwOi8vd3d3LnczLm9yZy8xOTk5L3hodG1sIiBzdHlsZT0iZGlzcGxheTogdGFibGUtY2VsbDsgd2hpdGUtc3BhY2U6IG5vcm1hbDsgbGluZS1oZWlnaHQ6IDEuNTsgbWF4LXdpZHRoOiAyMDBweDsgdGV4dC1hbGlnbjogY2VudGVyOyIgY2xhc3M9ImxhYmVsQmtnIj48c3BhbiBjbGFzcz0iZWRnZUxhYmVsIj48cD7ku5bogIXjgajplqLjgo/jgos8YnIgLz5FbmdhZ2Ugd2l0aCBPdGhlcnM8L3A+PC9zcGFuPjwvZGl2PjwvZm9yZWlnbk9iamVjdD48L2c+PC9nPjxnIGNsYXNzPSJlZGdlTGFiZWwiIHRyYW5zZm9ybT0idHJhbnNsYXRlKDExMjUuMDIzNDM3NSwgMTI4KSI+PGcgY2xhc3M9ImxhYmVsIiBkYXRhLWlkPSJMX0NfRV8wIiB0cmFuc2Zvcm09InRyYW5zbGF0ZSgtMzguMTE3MTg3NSwgLTIxKSI+PGZvcmVpZ25PYmplY3Qgd2lkdGg9Ijc2LjIzNDM3NSIgaGVpZ2h0PSI0MiI+PGRpdiB4bWxucz0iaHR0cDovL3d3dy53My5vcmcvMTk5OS94aHRtbCIgc3R5bGU9ImRpc3BsYXk6IHRhYmxlLWNlbGw7IHdoaXRlLXNwYWNlOiBub3JtYWw7IGxpbmUtaGVpZ2h0OiAxLjU7IG1heC13aWR0aDogMjAwcHg7IHRleHQtYWxpZ246IGNlbnRlcjsiIGNsYXNzPSJsYWJlbEJrZyI+PHNwYW4gY2xhc3M9ImVkZ2VMYWJlbCI+PHA+5b2i44Gr44GZ44KLPGJyIC8+R2l2ZSBpdCBGb3JtPC9wPjwvc3Bhbj48L2Rpdj48L2ZvcmVpZ25PYmplY3Q+PC9nPjwvZz48ZyBjbGFzcz0iZWRnZUxhYmVsIiB0cmFuc2Zvcm09InRyYW5zbGF0ZSgxMTI1LjAyMzQzNzUsIDI1OC45NzY1NjI1KSI+PGcgY2xhc3M9ImxhYmVsIiBkYXRhLWlkPSJMX0RfRV8wIiB0cmFuc2Zvcm09InRyYW5zbGF0ZSgtMzguMTE3MTg3NSwgLTIxKSI+PGZvcmVpZ25PYmplY3Qgd2lkdGg9Ijc2LjIzNDM3NSIgaGVpZ2h0PSI0MiI+PGRpdiB4bWxucz0iaHR0cDovL3d3dy53My5vcmcvMTk5OS94aHRtbCIgc3R5bGU9ImRpc3BsYXk6IHRhYmxlLWNlbGw7IHdoaXRlLXNwYWNlOiBub3JtYWw7IGxpbmUtaGVpZ2h0OiAxLjU7IG1heC13aWR0aDogMjAwcHg7IHRleHQtYWxpZ246IGNlbnRlcjsiIGNsYXNzPSJsYWJlbEJrZyI+PHNwYW4gY2xhc3M9ImVkZ2VMYWJlbCI+PHA+5b2i44Gr44GZ44KLPGJyIC8+R2l2ZSBpdCBGb3JtPC9wPjwvc3Bhbj48L2Rpdj48L2ZvcmVpZ25PYmplY3Q+PC9nPjwvZz48ZyBjbGFzcz0iZWRnZUxhYmVsIiB0cmFuc2Zvcm09InRyYW5zbGF0ZSgxNDUwLjkyMTg3NSwgMTY5KSI+PGcgY2xhc3M9ImxhYmVsIiBkYXRhLWlkPSJMX0VfRl8wIiB0cmFuc2Zvcm09InRyYW5zbGF0ZSgtNTEuNjA5Mzc1LCAtMjEpIj48Zm9yZWlnbk9iamVjdCB3aWR0aD0iMTAzLjIxODc1IiBoZWlnaHQ9IjQyIj48ZGl2IHhtbG5zPSJodHRwOi8vd3d3LnczLm9yZy8xOTk5L3hodG1sIiBzdHlsZT0iZGlzcGxheTogdGFibGUtY2VsbDsgd2hpdGUtc3BhY2U6IG5vcm1hbDsgbGluZS1oZWlnaHQ6IDEuNTsgbWF4LXdpZHRoOiAyMDBweDsgdGV4dC1hbGlnbjogY2VudGVyOyIgY2xhc3M9ImxhYmVsQmtnIj48c3BhbiBjbGFzcz0iZWRnZUxhYmVsIj48cD7kvZzlk4HjgpLmp4vnr4njgZnjgos8YnIgLz5Db25zdHJ1Y3QgV29ya3M8L3A+PC9zcGFuPjwvZGl2PjwvZm9yZWlnbk9iamVjdD48L2c+PC9nPjxnIGNsYXNzPSJlZGdlTGFiZWwiIHRyYW5zZm9ybT0idHJhbnNsYXRlKDE4NzUuOTUzMTI1LCAxNjkpIj48ZyBjbGFzcz0ibGFiZWwiIGRhdGEtaWQ9IkxfRl9HXzAiIHRyYW5zZm9ybT0idHJhbnNsYXRlKC0xMDAsIC0zMS41KSI+PGZvcmVpZ25PYmplY3Qgd2lkdGg9IjIwMCIgaGVpZ2h0PSI2MyI+PGRpdiB4bWxucz0iaHR0cDovL3d3dy53My5vcmcvMTk5OS94aHRtbCIgc3R5bGU9ImRpc3BsYXk6IHRhYmxlOyB3aGl0ZS1zcGFjZTogYnJlYWstc3BhY2VzOyBsaW5lLWhlaWdodDogMS41OyBtYXgtd2lkdGg6IDIwMHB4OyB0ZXh0LWFsaWduOiBjZW50ZXI7IHdpZHRoOiAyMDBweDsiIGNsYXNzPSJsYWJlbEJrZyI+PHNwYW4gY2xhc3M9ImVkZ2VMYWJlbCI+PHA+55m66KGo44Gu5aC044KS5L2c44KLPGJyIC8+Q3JlYXRlIFByZXNlbnRhdGlvbiBPcHBvcnR1bml0aWVzPC9wPjwvc3Bhbj48L2Rpdj48L2ZvcmVpZ25PYmplY3Q+PC9nPjwvZz48ZyBjbGFzcz0iZWRnZUxhYmVsIiB0cmFuc2Zvcm09InRyYW5zbGF0ZSgyMzUyLjk1MzEyNSwgMTM4KSI+PGcgY2xhc3M9ImxhYmVsIiBkYXRhLWlkPSJMX0dfSF8wIiB0cmFuc2Zvcm09InRyYW5zbGF0ZSgtNzAsIC0yMSkiPjxmb3JlaWduT2JqZWN0IHdpZHRoPSIxNDAiIGhlaWdodD0iNDIiPjxkaXYgeG1sbnM9Imh0dHA6Ly93d3cudzMub3JnLzE5OTkveGh0bWwiIHN0eWxlPSJkaXNwbGF5OiB0YWJsZS1jZWxsOyB3aGl0ZS1zcGFjZTogbm9ybWFsOyBsaW5lLWhlaWdodDogMS41OyBtYXgtd2lkdGg6IDIwMHB4OyB0ZXh0LWFsaWduOiBjZW50ZXI7IiBjbGFzcz0ibGFiZWxCa2ciPjxzcGFuIGNsYXNzPSJlZGdlTGFiZWwiPjxwPuODluODqeODg+OCt+ODpeOCouODg+ODl+OBmeOCizxiciAvPlJlZmluZSB0aGUgV29yazwvcD48L3NwYW4+PC9kaXY+PC9mb3JlaWduT2JqZWN0PjwvZz48L2c+PGcgY2xhc3M9ImVkZ2VMYWJlbCIgdHJhbnNmb3JtPSJ0cmFuc2xhdGUoMTI5My43MjY1NjI1LCA0NzguNzI2NTYyNSkiPjxnIGNsYXNzPSJsYWJlbCIgZGF0YS1pZD0iTF9CX0lfMCIgdHJhbnNmb3JtPSJ0cmFuc2xhdGUoLTE0LCAtMTAuNSkiPjxmb3JlaWduT2JqZWN0IHdpZHRoPSIyOCIgaGVpZ2h0PSIyMSI+PGRpdiB4bWxucz0iaHR0cDovL3d3dy53My5vcmcvMTk5OS94aHRtbCIgc3R5bGU9ImRpc3BsYXk6IHRhYmxlLWNlbGw7IHdoaXRlLXNwYWNlOiBub3JtYWw7IGxpbmUtaGVpZ2h0OiAxLjU7IG1heC13aWR0aDogMjAwcHg7IHRleHQtYWxpZ246IGNlbnRlcjsiIGNsYXNzPSJsYWJlbEJrZyI+PHNwYW4gY2xhc3M9ImVkZ2VMYWJlbCI+PHA+6KiY6YyyPC9wPjwvc3Bhbj48L2Rpdj48L2ZvcmVpZ25PYmplY3Q+PC9nPjwvZz48ZyBjbGFzcz0iZWRnZUxhYmVsIiB0cmFuc2Zvcm09InRyYW5zbGF0ZSgxNDUwLjkyMTg3NSwgMzM5LjIyNjU2MjUpIj48ZyBjbGFzcz0ibGFiZWwiIGRhdGEtaWQ9IkxfQ19JXzAiIHRyYW5zZm9ybT0idHJhbnNsYXRlKC0xNCwgLTEwLjUpIj48Zm9yZWlnbk9iamVjdCB3aWR0aD0iMjgiIGhlaWdodD0iMjEiPjxkaXYgeG1sbnM9Imh0dHA6Ly93d3cudzMub3JnLzE5OTkveGh0bWwiIHN0eWxlPSJkaXNwbGF5OiB0YWJsZS1jZWxsOyB3aGl0ZS1zcGFjZTogbm9ybWFsOyBsaW5lLWhlaWdodDogMS41OyBtYXgtd2lkdGg6IDIwMHB4OyB0ZXh0LWFsaWduOiBjZW50ZXI7IiBjbGFzcz0ibGFiZWxCa2ciPjxzcGFuIGNsYXNzPSJlZGdlTGFiZWwiPjxwPuiomOmMsjwvcD48L3NwYW4+PC9kaXY+PC9mb3JlaWduT2JqZWN0PjwvZz48L2c+PGcgY2xhc3M9ImVkZ2VMYWJlbCIgdHJhbnNmb3JtPSJ0cmFuc2xhdGUoMTQ1MC45MjE4NzUsIDM5NS40NzY1NjI1KSI+PGcgY2xhc3M9ImxhYmVsIiBkYXRhLWlkPSJMX0RfSV8wIiB0cmFuc2Zvcm09InRyYW5zbGF0ZSgtMTQsIC0xMC41KSI+PGZvcmVpZ25PYmplY3Qgd2lkdGg9IjI4IiBoZWlnaHQ9IjIxIj48ZGl2IHhtbG5zPSJodHRwOi8vd3d3LnczLm9yZy8xOTk5L3hodG1sIiBzdHlsZT0iZGlzcGxheTogdGFibGUtY2VsbDsgd2hpdGUtc3BhY2U6IG5vcm1hbDsgbGluZS1oZWlnaHQ6IDEuNTsgbWF4LXdpZHRoOiAyMDBweDsgdGV4dC1hbGlnbjogY2VudGVyOyIgY2xhc3M9ImxhYmVsQmtnIj48c3BhbiBjbGFzcz0iZWRnZUxhYmVsIj48cD7oqJjpjLI8L3A+PC9zcGFuPjwvZGl2PjwvZm9yZWlnbk9iamVjdD48L2c+PC9nPjxnIGNsYXNzPSJlZGdlTGFiZWwiIHRyYW5zZm9ybT0idHJhbnNsYXRlKDIzNTIuOTUzMTI1LCA0MTQuMjI2NTYyNSkiPjxnIGNsYXNzPSJsYWJlbCIgZGF0YS1pZD0iTF9JX01fMCIgdHJhbnNmb3JtPSJ0cmFuc2xhdGUoLTI4LCAtMTAuNSkiPjxmb3JlaWduT2JqZWN0IHdpZHRoPSI1NiIgaGVpZ2h0PSIyMSI+PGRpdiB4bWxucz0iaHR0cDovL3d3dy53My5vcmcvMTk5OS94aHRtbCIgc3R5bGU9ImRpc3BsYXk6IHRhYmxlLWNlbGw7IHdoaXRlLXNwYWNlOiBub3JtYWw7IGxpbmUtaGVpZ2h0OiAxLjU7IG1heC13aWR0aDogMjAwcHg7IHRleHQtYWxpZ246IGNlbnRlcjsiIGNsYXNzPSJsYWJlbEJrZyI+PHNwYW4gY2xhc3M9ImVkZ2VMYWJlbCI+PHA+5pW055CG44GZ44KLPC9wPjwvc3Bhbj48L2Rpdj48L2ZvcmVpZ25PYmplY3Q+PC9nPjwvZz48ZyBjbGFzcz0iZWRnZUxhYmVsIiB0cmFuc2Zvcm09InRyYW5zbGF0ZSgyMzUyLjk1MzEyNSwgMjE4Ljc1KSI+PGcgY2xhc3M9ImxhYmVsIiBkYXRhLWlkPSJMX0dfTV8wIiB0cmFuc2Zvcm09InRyYW5zbGF0ZSgtMjgsIC0xMC41KSI+PGZvcmVpZ25PYmplY3Qgd2lkdGg9IjU2IiBoZWlnaHQ9IjIxIj48ZGl2IHhtbG5zPSJodHRwOi8vd3d3LnczLm9yZy8xOTk5L3hodG1sIiBzdHlsZT0iZGlzcGxheTogdGFibGUtY2VsbDsgd2hpdGUtc3BhY2U6IG5vcm1hbDsgbGluZS1oZWlnaHQ6IDEuNTsgbWF4LXdpZHRoOiAyMDBweDsgdGV4dC1hbGlnbjogY2VudGVyOyIgY2xhc3M9ImxhYmVsQmtnIj48c3BhbiBjbGFzcz0iZWRnZUxhYmVsIj48cD7mlbTnkIbjgZnjgos8L3A+PC9zcGFuPjwvZGl2PjwvZm9yZWlnbk9iamVjdD48L2c+PC9nPjxnIGNsYXNzPSJlZGdlTGFiZWwiIHRyYW5zZm9ybT0idHJhbnNsYXRlKDI3MTUuOTUzMTI1LCAzNjEuMjUpIj48ZyBjbGFzcz0ibGFiZWwiIGRhdGEtaWQ9IkxfTV9MXzAiIHRyYW5zZm9ybT0idHJhbnNsYXRlKC0yOCwgLTEwLjUpIj48Zm9yZWlnbk9iamVjdCB3aWR0aD0iNTYiIGhlaWdodD0iMjEiPjxkaXYgeG1sbnM9Imh0dHA6Ly93d3cudzMub3JnLzE5OTkveGh0bWwiIHN0eWxlPSJkaXNwbGF5OiB0YWJsZS1jZWxsOyB3aGl0ZS1zcGFjZTogbm9ybWFsOyBsaW5lLWhlaWdodDogMS41OyBtYXgtd2lkdGg6IDIwMHB4OyB0ZXh0LWFsaWduOiBjZW50ZXI7IiBjbGFzcz0ibGFiZWxCa2ciPjxzcGFuIGNsYXNzPSJlZGdlTGFiZWwiPjxwPuaVtOeQhuOBmeOCizwvcD48L3NwYW4+PC9kaXY+PC9mb3JlaWduT2JqZWN0PjwvZz48L2c+PGcgY2xhc3M9ImVkZ2VMYWJlbCIgdHJhbnNmb3JtPSJ0cmFuc2xhdGUoMjgyNi45NTMxMjUsIDQ0MSkiPjxnIGNsYXNzPSJsYWJlbCIgZGF0YS1pZD0iTF9NX0tfMCIgdHJhbnNmb3JtPSJ0cmFuc2xhdGUoLTQyLCAtMTAuNSkiPjxmb3JlaWduT2JqZWN0IHdpZHRoPSI4NCIgaGVpZ2h0PSIyMSI+PGRpdiB4bWxucz0iaHR0cDovL3d3dy53My5vcmcvMTk5OS94aHRtbCIgc3R5bGU9ImRpc3BsYXk6IHRhYmxlLWNlbGw7IHdoaXRlLXNwYWNlOiBub3JtYWw7IGxpbmUtaGVpZ2h0OiAxLjU7IG1heC13aWR0aDogMjAwcHg7IHRleHQtYWxpZ246IGNlbnRlcjsiIGNsYXNzPSJsYWJlbEJrZyI+PHNwYW4gY2xhc3M9ImVkZ2VMYWJlbCI+PHA+5o6i56m244KS5rex44KB44KLPC9wPjwvc3Bhbj48L2Rpdj48L2ZvcmVpZ25PYmplY3Q+PC9nPjwvZz48ZyBjbGFzcz0iZWRnZUxhYmVsIiB0cmFuc2Zvcm09InRyYW5zbGF0ZSgyOTUxLjk1MzEyNSwgMzYxLjI1KSI+PGcgY2xhc3M9ImxhYmVsIiBkYXRhLWlkPSJMX0xfS18wIiB0cmFuc2Zvcm09InRyYW5zbGF0ZSgtNDIsIC0xMC41KSI+PGZvcmVpZ25PYmplY3Qgd2lkdGg9Ijg0IiBoZWlnaHQ9IjIxIj48ZGl2IHhtbG5zPSJodHRwOi8vd3d3LnczLm9yZy8xOTk5L3hodG1sIiBzdHlsZT0iZGlzcGxheTogdGFibGUtY2VsbDsgd2hpdGUtc3BhY2U6IG5vcm1hbDsgbGluZS1oZWlnaHQ6IDEuNTsgbWF4LXdpZHRoOiAyMDBweDsgdGV4dC1hbGlnbjogY2VudGVyOyIgY2xhc3M9ImxhYmVsQmtnIj48c3BhbiBjbGFzcz0iZWRnZUxhYmVsIj48cD7mjqLnqbbjgpLmt7HjgoHjgos8L3A+PC9zcGFuPjwvZGl2PjwvZm9yZWlnbk9iamVjdD48L2c+PC9nPjxnIGNsYXNzPSJlZGdlTGFiZWwiPjxnIGNsYXNzPSJsYWJlbCIgZGF0YS1pZD0iTF9NX05fMCIgdHJhbnNmb3JtPSJ0cmFuc2xhdGUoMCwgMCkiPjxmb3JlaWduT2JqZWN0IHdpZHRoPSIwIiBoZWlnaHQ9IjAiPjxkaXYgeG1sbnM9Imh0dHA6Ly93d3cudzMub3JnLzE5OTkveGh0bWwiIHN0eWxlPSJkaXNwbGF5OiB0YWJsZS1jZWxsOyB3aGl0ZS1zcGFjZTogbm9ybWFsOyBsaW5lLWhlaWdodDogMS41OyBtYXgtd2lkdGg6IDIwMHB4OyB0ZXh0LWFsaWduOiBjZW50ZXI7IiBjbGFzcz0ibGFiZWxCa2ciPjxzcGFuIGNsYXNzPSJlZGdlTGFiZWwiPjwvc3Bhbj48L2Rpdj48L2ZvcmVpZ25PYmplY3Q+PC9nPjwvZz48ZyBjbGFzcz0iZWRnZUxhYmVsIj48ZyBjbGFzcz0ibGFiZWwiIGRhdGEtaWQ9IkxfS19OXzAiIHRyYW5zZm9ybT0idHJhbnNsYXRlKDAsIDApIj48Zm9yZWlnbk9iamVjdCB3aWR0aD0iMCIgaGVpZ2h0PSIwIj48ZGl2IHhtbG5zPSJodHRwOi8vd3d3LnczLm9yZy8xOTk5L3hodG1sIiBzdHlsZT0iZGlzcGxheTogdGFibGUtY2VsbDsgd2hpdGUtc3BhY2U6IG5vcm1hbDsgbGluZS1oZWlnaHQ6IDEuNTsgbWF4LXdpZHRoOiAyMDBweDsgdGV4dC1hbGlnbjogY2VudGVyOyIgY2xhc3M9ImxhYmVsQmtnIj48c3BhbiBjbGFzcz0iZWRnZUxhYmVsIj48L3NwYW4+PC9kaXY+PC9mb3JlaWduT2JqZWN0PjwvZz48L2c+PGcgY2xhc3M9ImVkZ2VMYWJlbCIgdHJhbnNmb3JtPSJ0cmFuc2xhdGUoMTg3NS45NTMxMjUsIDUyNy45NzY1NjI1KSI+PGcgY2xhc3M9ImxhYmVsIiBkYXRhLWlkPSJMX05fQV8wIiB0cmFuc2Zvcm09InRyYW5zbGF0ZSgtNDksIC0xMC41KSI+PGZvcmVpZ25PYmplY3Qgd2lkdGg9Ijk4IiBoZWlnaHQ9IjIxIj48ZGl2IHhtbG5zPSJodHRwOi8vd3d3LnczLm9yZy8xOTk5L3hodG1sIiBzdHlsZT0iZGlzcGxheTogdGFibGUtY2VsbDsgd2hpdGUtc3BhY2U6IG5vcm1hbDsgbGluZS1oZWlnaHQ6IDEuNTsgbWF4LXdpZHRoOiAyMDBweDsgdGV4dC1hbGlnbjogY2VudGVyOyIgY2xhc3M9ImxhYmVsQmtnIj48c3BhbiBjbGFzcz0iZWRnZUxhYmVsIj48cD7jgrXjgqTjgq/jg6vjgpLlm57jgZk8L3A+PC9zcGFuPjwvZGl2PjwvZm9yZWlnbk9iamVjdD48L2c+PC9nPjwvZz48ZyBjbGFzcz0ibm9kZXMiPjxnIGNsYXNzPSJub2RlIGRlZmF1bHQiIGlkPSJmbG93Y2hhcnQtQS0wIiBkYXRhLWlkPSJBIiBkYXRhLW5vZGU9InRydWUiIGRhdGEtZXQ9Im5vZGUiIGRhdGEtbG9vaz0ibmVvIiB0cmFuc2Zvcm09InRyYW5zbGF0ZSgxMzYuNDUzMTI1LCA0ODgpIj48Y2lyY2xlIGNsYXNzPSJiYXNpYyBsYWJlbC1jb250YWluZXIiIHN0eWxlPSIiIHI9IjEwMy40NTMxMjUiIGN4PSIwIiBjeT0iMCIvPjxnIGNsYXNzPSJsYWJlbCIgc3R5bGU9IiIgdHJhbnNmb3JtPSJ0cmFuc2xhdGUoLTcxLjQ1MzEyNSwgLTIxKSI+PHJlY3QvPjxmb3JlaWduT2JqZWN0IHdpZHRoPSIxNDIuOTA2MjUiIGhlaWdodD0iNDIiPjxkaXYgeG1sbnM9Imh0dHA6Ly93d3cudzMub3JnLzE5OTkveGh0bWwiIHN0eWxlPSJkaXNwbGF5OiB0YWJsZS1jZWxsOyB3aGl0ZS1zcGFjZTogbm9ybWFsOyBsaW5lLWhlaWdodDogMS41OyBtYXgtd2lkdGg6IDIwMHB4OyB0ZXh0LWFsaWduOiBjZW50ZXI7Ij48c3BhbiBjbGFzcz0ibm9kZUxhYmVsIj48cD7lirTlg43jgZnjgosgKOS7leS6i+ODu+aXpeW4uCk8YnIgLz5Xb3JrIChKb2IgJmFtcDsgRGFpbHkgTGlmZSk8L3A+PC9zcGFuPjwvZGl2PjwvZm9yZWlnbk9iamVjdD48L2c+PC9nPjxnIGNsYXNzPSJub2RlIGRlZmF1bHQiIGlkPSJmbG93Y2hhcnQtQi0xIiBkYXRhLWlkPSJCIiBkYXRhLW5vZGU9InRydWUiIGRhdGEtZXQ9Im5vZGUiIGRhdGEtbG9vaz0ibmVvIiB0cmFuc2Zvcm09InRyYW5zbGF0ZSg1NzEuOTA2MjUsIDM3MC43NSkiPjxyZWN0IGNsYXNzPSJiYXNpYyBsYWJlbC1jb250YWluZXIiIHN0eWxlPSIiIHJ4PSIzIiBkYXRhLWlkPSJCIiByeT0iMyIgeD0iLTg2IiB5PSItMzMiIHdpZHRoPSIxNzIiIGhlaWdodD0iNjYiIHN0cm9rZT0idXJsKCNncmFkaWVudCkiLz48ZyBjbGFzcz0ibGFiZWwiIHN0eWxlPSIiIHRyYW5zZm9ybT0idHJhbnNsYXRlKC03MCwgLTIxKSI+PHJlY3QvPjxmb3JlaWduT2JqZWN0IHdpZHRoPSIxNDAiIGhlaWdodD0iNDIiPjxkaXYgeG1sbnM9Imh0dHA6Ly93d3cudzMub3JnLzE5OTkveGh0bWwiIHN0eWxlPSJkaXNwbGF5OiB0YWJsZS1jZWxsOyB3aGl0ZS1zcGFjZTogbm9ybWFsOyBsaW5lLWhlaWdodDogMS41OyBtYXgtd2lkdGg6IDIwMHB4OyB0ZXh0LWFsaWduOiBjZW50ZXI7Ij48c3BhbiBjbGFzcz0ibm9kZUxhYmVsIj48cD7ml6XjgIXjga7jg6/jg7zjgq/jgrfjg6fjg4Pjg5c8YnIgLz5EYWlseSBXb3Jrc2hvcDwvcD48L3NwYW4+PC9kaXY+PC9mb3JlaWduT2JqZWN0PjwvZz48L2c+PGcgY2xhc3M9Im5vZGUgZGVmYXVsdCIgaWQ9ImZsb3djaGFydC1DLTQiIGRhdGEtaWQ9IkMiIGRhdGEtbm9kZT0idHJ1ZSIgZGF0YS1ldD0ibm9kZSIgZGF0YS1sb29rPSJuZW8iIHRyYW5zZm9ybT0idHJhbnNsYXRlKDkzMy44OTA2MjUsIDE3Ni4yNSkiPjxyZWN0IGNsYXNzPSJiYXNpYyBsYWJlbC1jb250YWluZXIiIHN0eWxlPSIiIHJ4PSIzIiBkYXRhLWlkPSJDIiByeT0iMyIgeD0iLTg5Ljc4OTA2MjUiIHk9Ii0zMyIgd2lkdGg9IjE3OS41NzgxMjUiIGhlaWdodD0iNjYiIHN0cm9rZT0idXJsKCNncmFkaWVudCkiLz48ZyBjbGFzcz0ibGFiZWwiIHN0eWxlPSIiIHRyYW5zZm9ybT0idHJhbnNsYXRlKC03My43ODkwNjI1LCAtMjEpIj48cmVjdC8+PGZvcmVpZ25PYmplY3Qgd2lkdGg9IjE0Ny41NzgxMjUiIGhlaWdodD0iNDIiPjxkaXYgeG1sbnM9Imh0dHA6Ly93d3cudzMub3JnLzE5OTkveGh0bWwiIHN0eWxlPSJkaXNwbGF5OiB0YWJsZS1jZWxsOyB3aGl0ZS1zcGFjZTogbm9ybWFsOyBsaW5lLWhlaWdodDogMS41OyBtYXgtd2lkdGg6IDIwMHB4OyB0ZXh0LWFsaWduOiBjZW50ZXI7Ij48c3BhbiBjbGFzcz0ibm9kZUxhYmVsIj48cD7jgoTjgorjgZ/jgYTjgZPjgajjgpLjgoTjgos8YnIgLz5QZXJzb25hbCBDcmVhdGl2ZSBXb3JrPC9wPjwvc3Bhbj48L2Rpdj48L2ZvcmVpZ25PYmplY3Q+PC9nPjwvZz48ZyBjbGFzcz0ibm9kZSBkZWZhdWx0IiBpZD0iZmxvd2NoYXJ0LUQtNSIgZGF0YS1pZD0iRCIgZGF0YS1ub2RlPSJ0cnVlIiBkYXRhLWV0PSJub2RlIiBkYXRhLWxvb2s9Im5lbyIgdHJhbnNmb3JtPSJ0cmFuc2xhdGUoOTMzLjg5MDYyNSwgMzM2Ljc1KSI+PHJlY3QgY2xhc3M9ImJhc2ljIGxhYmVsLWNvbnRhaW5lciIgc3R5bGU9IiIgcng9IjMiIGRhdGEtaWQ9IkQiIHJ5PSIzIiB4PSItMTAzLjAxNTYyNSIgeT0iLTMzIiB3aWR0aD0iMjA2LjAzMTI1IiBoZWlnaHQ9IjY2IiBzdHJva2U9InVybCgjZ3JhZGllbnQpIi8+PGcgY2xhc3M9ImxhYmVsIiBzdHlsZT0iIiB0cmFuc2Zvcm09InRyYW5zbGF0ZSgtODcuMDE1NjI1LCAtMjEpIj48cmVjdC8+PGZvcmVpZ25PYmplY3Qgd2lkdGg9IjE3NC4wMzEyNSIgaGVpZ2h0PSI0MiI+PGRpdiB4bWxucz0iaHR0cDovL3d3dy53My5vcmcvMTk5OS94aHRtbCIgc3R5bGU9ImRpc3BsYXk6IHRhYmxlLWNlbGw7IHdoaXRlLXNwYWNlOiBub3JtYWw7IGxpbmUtaGVpZ2h0OiAxLjU7IG1heC13aWR0aDogMjAwcHg7IHRleHQtYWxpZ246IGNlbnRlcjsiPjxzcGFuIGNsYXNzPSJub2RlTGFiZWwiPjxwPuOChOOCieOBm+OBn+OBhOOBk+OBqOOCkuOChOOCieOBm+OCizxiciAvPkNvbGxhYm9yYXRpdmUgQ3JlYXRpdmUgV29yazwvcD48L3NwYW4+PC9kaXY+PC9mb3JlaWduT2JqZWN0PjwvZz48L2c+PGcgY2xhc3M9Im5vZGUgZGVmYXVsdCIgaWQ9ImZsb3djaGFydC1FLTEwIiBkYXRhLWlkPSJFIiBkYXRhLW5vZGU9InRydWUiIGRhdGEtZXQ9Im5vZGUiIGRhdGEtbG9vaz0ibmVvIiB0cmFuc2Zvcm09InRyYW5zbGF0ZSgxMjkzLjcyNjU2MjUsIDE2OSkiPjxyZWN0IGNsYXNzPSJiYXNpYyBsYWJlbC1jb250YWluZXIiIHN0eWxlPSIiIHJ4PSIzIiBkYXRhLWlkPSJFIiByeT0iMyIgeD0iLTgwLjU4NTkzNzUiIHk9Ii0zMyIgd2lkdGg9IjE2MS4xNzE4NzUiIGhlaWdodD0iNjYiIHN0cm9rZT0idXJsKCNncmFkaWVudCkiLz48ZyBjbGFzcz0ibGFiZWwiIHN0eWxlPSIiIHRyYW5zZm9ybT0idHJhbnNsYXRlKC02NC41ODU5Mzc1LCAtMjEpIj48cmVjdC8+PGZvcmVpZ25PYmplY3Qgd2lkdGg9IjEyOS4xNzE4NzUiIGhlaWdodD0iNDIiPjxkaXYgeG1sbnM9Imh0dHA6Ly93d3cudzMub3JnLzE5OTkveGh0bWwiIHN0eWxlPSJkaXNwbGF5OiB0YWJsZS1jZWxsOyB3aGl0ZS1zcGFjZTogbm9ybWFsOyBsaW5lLWhlaWdodDogMS41OyBtYXgtd2lkdGg6IDIwMHB4OyB0ZXh0LWFsaWduOiBjZW50ZXI7Ij48c3BhbiBjbGFzcz0ibm9kZUxhYmVsIj48cD7lsI/jgZXjgarnrrHjgpLkvZzjgos8YnIgLz5TbWFsbC1zY2FsZSBDcmVhdGlvbjwvcD48L3NwYW4+PC9kaXY+PC9mb3JlaWduT2JqZWN0PjwvZz48L2c+PGcgY2xhc3M9Im5vZGUgZGVmYXVsdCIgaWQ9ImZsb3djaGFydC1GLTExIiBkYXRhLWlkPSJGIiBkYXRhLW5vZGU9InRydWUiIGRhdGEtZXQ9Im5vZGUiIGRhdGEtbG9vaz0ibmVvIiB0cmFuc2Zvcm09InRyYW5zbGF0ZSgxNjM5LjI0MjE4NzUsIDE2OSkiPjxyZWN0IGNsYXNzPSJiYXNpYyBsYWJlbC1jb250YWluZXIiIHN0eWxlPSIiIHJ4PSIzIiBkYXRhLWlkPSJGIiByeT0iMyIgeD0iLTExMS43MTA5Mzc1IiB5PSItMzMiIHdpZHRoPSIyMjMuNDIxODc1IiBoZWlnaHQ9IjY2IiBzdHJva2U9InVybCgjZ3JhZGllbnQpIi8+PGcgY2xhc3M9ImxhYmVsIiBzdHlsZT0iIiB0cmFuc2Zvcm09InRyYW5zbGF0ZSgtOTUuNzEwOTM3NSwgLTIxKSI+PHJlY3QvPjxmb3JlaWduT2JqZWN0IHdpZHRoPSIxOTEuNDIxODc1IiBoZWlnaHQ9IjQyIj48ZGl2IHhtbG5zPSJodHRwOi8vd3d3LnczLm9yZy8xOTk5L3hodG1sIiBzdHlsZT0iZGlzcGxheTogdGFibGUtY2VsbDsgd2hpdGUtc3BhY2U6IG5vcm1hbDsgbGluZS1oZWlnaHQ6IDEuNTsgbWF4LXdpZHRoOiAyMDBweDsgdGV4dC1hbGlnbjogY2VudGVyOyI+PHNwYW4gY2xhc3M9Im5vZGVMYWJlbCI+PHA+5qeL5oiQ44GZ44KLPGJyIC8+U3RydWN0dXJlICZhbXA7IERldmVsb3AgKENyZWF0aW9uKTwvcD48L3NwYW4+PC9kaXY+PC9mb3JlaWduT2JqZWN0PjwvZz48L2c+PGcgY2xhc3M9Im5vZGUgZGVmYXVsdCIgaWQ9ImZsb3djaGFydC1HLTEyIiBkYXRhLWlkPSJHIiBkYXRhLW5vZGU9InRydWUiIGRhdGEtZXQ9Im5vZGUiIGRhdGEtbG9vaz0ibmVvIiB0cmFuc2Zvcm09InRyYW5zbGF0ZSgyMTQxLjk1MzEyNSwgMTY5KSI+PHJlY3QgY2xhc3M9ImJhc2ljIGxhYmVsLWNvbnRhaW5lciIgc3R5bGU9IiIgcng9IjMiIGRhdGEtaWQ9IkciIHJ5PSIzIiB4PSItODAuOTg0Mzc1IiB5PSItMzMiIHdpZHRoPSIxNjEuOTY4NzUiIGhlaWdodD0iNjYiIHN0cm9rZT0idXJsKCNncmFkaWVudCkiLz48ZyBjbGFzcz0ibGFiZWwiIHN0eWxlPSIiIHRyYW5zZm9ybT0idHJhbnNsYXRlKC02NC45ODQzNzUsIC0yMSkiPjxyZWN0Lz48Zm9yZWlnbk9iamVjdCB3aWR0aD0iMTI5Ljk2ODc1IiBoZWlnaHQ9IjQyIj48ZGl2IHhtbG5zPSJodHRwOi8vd3d3LnczLm9yZy8xOTk5L3hodG1sIiBzdHlsZT0iZGlzcGxheTogdGFibGUtY2VsbDsgd2hpdGUtc3BhY2U6IG5vcm1hbDsgbGluZS1oZWlnaHQ6IDEuNTsgbWF4LXdpZHRoOiAyMDBweDsgdGV4dC1hbGlnbjogY2VudGVyOyI+PHNwYW4gY2xhc3M9Im5vZGVMYWJlbCI+PHA+55m66KGo44GZ44KLPGJyIC8+UHJlc2VudCAmYW1wOyBTaG93Y2FzZTwvcD48L3NwYW4+PC9kaXY+PC9mb3JlaWduT2JqZWN0PjwvZz48L2c+PGcgY2xhc3M9Im5vZGUgZGVmYXVsdCIgaWQ9ImZsb3djaGFydC1ILTEzIiBkYXRhLWlkPSJIIiBkYXRhLW5vZGU9InRydWUiIGRhdGEtZXQ9Im5vZGUiIGRhdGEtbG9vaz0ibmVvIiB0cmFuc2Zvcm09InRyYW5zbGF0ZSgyNTQyLjk1MzEyNSwgMTM4KSI+PGNpcmNsZSBjbGFzcz0iYmFzaWMgbGFiZWwtY29udGFpbmVyIiBzdHlsZT0iIiByPSI5NSIgY3g9IjAiIGN5PSIwIi8+PGcgY2xhc3M9ImxhYmVsIiBzdHlsZT0iIiB0cmFuc2Zvcm09InRyYW5zbGF0ZSgtNjMsIC0yMSkiPjxyZWN0Lz48Zm9yZWlnbk9iamVjdCB3aWR0aD0iMTI2IiBoZWlnaHQ9IjQyIj48ZGl2IHhtbG5zPSJodHRwOi8vd3d3LnczLm9yZy8xOTk5L3hodG1sIiBzdHlsZT0iZGlzcGxheTogdGFibGUtY2VsbDsgd2hpdGUtc3BhY2U6IG5vcm1hbDsgbGluZS1oZWlnaHQ6IDEuNTsgbWF4LXdpZHRoOiAyMDBweDsgdGV4dC1hbGlnbjogY2VudGVyOyI+PHNwYW4gY2xhc3M9Im5vZGVMYWJlbCI+PHA+6Iq46KGT5L2c5ZOB44KS5Yi25L2c44GZ44KLPGJyIC8+V29yayBvZiBBcnQ8L3A+PC9zcGFuPjwvZGl2PjwvZm9yZWlnbk9iamVjdD48L2c+PC9nPjxnIGNsYXNzPSJub2RlIGRlZmF1bHQiIGlkPSJmbG93Y2hhcnQtSS0yNCIgZGF0YS1pZD0iSSIgZGF0YS1ub2RlPSJ0cnVlIiBkYXRhLWV0PSJub2RlIiBkYXRhLWxvb2s9Im5lbyIgdHJhbnNmb3JtPSJ0cmFuc2xhdGUoMjE0MS45NTMxMjUsIDQxNC4yMjY1NjI1KSI+PHJlY3QgY2xhc3M9ImJhc2ljIGxhYmVsLWNvbnRhaW5lciIgc3R5bGU9IiIgZGF0YS1pZD0iSSIgeD0iLTExNiIgeT0iLTU0IiB3aWR0aD0iMjMyIiBoZWlnaHQ9IjEwOCIgc3Ryb2tlPSJ1cmwoI2dyYWRpZW50KSIvPjxnIGNsYXNzPSJsYWJlbCIgc3R5bGU9IiIgdHJhbnNmb3JtPSJ0cmFuc2xhdGUoLTEwMCwgLTQyKSI+PHJlY3QvPjxmb3JlaWduT2JqZWN0IHdpZHRoPSIyMDAiIGhlaWdodD0iODQiPjxkaXYgeG1sbnM9Imh0dHA6Ly93d3cudzMub3JnLzE5OTkveGh0bWwiIHN0eWxlPSJkaXNwbGF5OiB0YWJsZTsgd2hpdGUtc3BhY2U6IGJyZWFrLXNwYWNlczsgbGluZS1oZWlnaHQ6IDEuNTsgbWF4LXdpZHRoOiAyMDBweDsgdGV4dC1hbGlnbjogY2VudGVyOyB3aWR0aDogMjAwcHg7Ij48c3BhbiBjbGFzcz0ibm9kZUxhYmVsIj48cD7oqJjpjLLjgajjgrfjgqfjgqI8YnIgLz4oTm90aW9uIC8gRGlzY29yZCAvIEdvb2dsZSAvIEluc3RhZ3JhbSk8YnIgLz5Eb2N1bWVudGF0aW9uICZhbXA7IFNoYXJpbmc8L3A+PC9zcGFuPjwvZGl2PjwvZm9yZWlnbk9iamVjdD48L2c+PC9nPjxnIGNsYXNzPSJub2RlIGRlZmF1bHQiIGlkPSJmbG93Y2hhcnQtTS0yNSIgZGF0YS1pZD0iTSIgZGF0YS1ub2RlPSJ0cnVlIiBkYXRhLWV0PSJub2RlIiBkYXRhLWxvb2s9Im5lbyIgdHJhbnNmb3JtPSJ0cmFuc2xhdGUoMjU0Mi45NTMxMjUsIDQxNC4yMjY1NjI1KSI+PHJlY3QgY2xhc3M9ImJhc2ljIGxhYmVsLWNvbnRhaW5lciIgc3R5bGU9IiIgcng9IjMiIGRhdGEtaWQ9Ik0iIHJ5PSIzIiB4PSItOTQuNTkzNzUiIHk9Ii0zMyIgd2lkdGg9IjE4OS4xODc1IiBoZWlnaHQ9IjY2IiBzdHJva2U9InVybCgjZ3JhZGllbnQpIi8+PGcgY2xhc3M9ImxhYmVsIiBzdHlsZT0iIiB0cmFuc2Zvcm09InRyYW5zbGF0ZSgtNzguNTkzNzUsIC0yMSkiPjxyZWN0Lz48Zm9yZWlnbk9iamVjdCB3aWR0aD0iMTU3LjE4NzUiIGhlaWdodD0iNDIiPjxkaXYgeG1sbnM9Imh0dHA6Ly93d3cudzMub3JnLzE5OTkveGh0bWwiIHN0eWxlPSJkaXNwbGF5OiB0YWJsZS1jZWxsOyB3aGl0ZS1zcGFjZTogbm9ybWFsOyBsaW5lLWhlaWdodDogMS41OyBtYXgtd2lkdGg6IDIwMHB4OyB0ZXh0LWFsaWduOiBjZW50ZXI7Ij48c3BhbiBjbGFzcz0ibm9kZUxhYmVsIj48cD7mjK/jgorov5Tjgorjg7voqJjpjLLjga7mlbTnkIY8YnIgLz5SZXZpZXcgJmFtcDsgRG9jdW1lbnRhdGlvbjwvcD48L3NwYW4+PC9kaXY+PC9mb3JlaWduT2JqZWN0PjwvZz48L2c+PGcgY2xhc3M9Im5vZGUgZGVmYXVsdCIgaWQ9ImZsb3djaGFydC1MLTI2IiBkYXRhLWlkPSJMIiBkYXRhLW5vZGU9InRydWUiIGRhdGEtZXQ9Im5vZGUiIGRhdGEtbG9vaz0ibmVvIiB0cmFuc2Zvcm09InRyYW5zbGF0ZSgyODI2Ljk1MzEyNSwgMzYxLjI1KSI+PHJlY3QgY2xhc3M9ImJhc2ljIGxhYmVsLWNvbnRhaW5lciIgc3R5bGU9IiIgcng9IjMiIGRhdGEtaWQ9IkwiIHJ5PSIzIiB4PSItNTgiIHk9Ii0zMyIgd2lkdGg9IjExNiIgaGVpZ2h0PSI2NiIgc3Ryb2tlPSJ1cmwoI2dyYWRpZW50KSIvPjxnIGNsYXNzPSJsYWJlbCIgc3R5bGU9IiIgdHJhbnNmb3JtPSJ0cmFuc2xhdGUoLTQyLCAtMjEpIj48cmVjdC8+PGZvcmVpZ25PYmplY3Qgd2lkdGg9Ijg0IiBoZWlnaHQ9IjQyIj48ZGl2IHhtbG5zPSJodHRwOi8vd3d3LnczLm9yZy8xOTk5L3hodG1sIiBzdHlsZT0iZGlzcGxheTogdGFibGUtY2VsbDsgd2hpdGUtc3BhY2U6IG5vcm1hbDsgbGluZS1oZWlnaHQ6IDEuNTsgbWF4LXdpZHRoOiAyMDBweDsgdGV4dC1hbGlnbjogY2VudGVyOyI+PHNwYW4gY2xhc3M9Im5vZGVMYWJlbCI+PHA+44OI44O844Kv44O75a++6KmxPGJyIC8+RGlzY3Vzc2lvbjwvcD48L3NwYW4+PC9kaXY+PC9mb3JlaWduT2JqZWN0PjwvZz48L2c+PGcgY2xhc3M9Im5vZGUgZGVmYXVsdCIgaWQ9ImZsb3djaGFydC1LLTI3IiBkYXRhLWlkPSJLIiBkYXRhLW5vZGU9InRydWUiIGRhdGEtZXQ9Im5vZGUiIGRhdGEtbG9vaz0ibmVvIiB0cmFuc2Zvcm09InRyYW5zbGF0ZSgzMTI0LjQ0NTMxMjUsIDQwMS43NSkiPjxyZWN0IGNsYXNzPSJiYXNpYyBsYWJlbC1jb250YWluZXIiIHN0eWxlPSIiIGRhdGEtaWQ9IksiIHg9Ii0xMDUuNDkyMTg3NSIgeT0iLTQzLjUiIHdpZHRoPSIyMTAuOTg0Mzc1IiBoZWlnaHQ9Ijg3IiBzdHJva2U9InVybCgjZ3JhZGllbnQpIi8+PGcgY2xhc3M9ImxhYmVsIiBzdHlsZT0iIiB0cmFuc2Zvcm09InRyYW5zbGF0ZSgtODkuNDkyMTg3NSwgLTMxLjUpIj48cmVjdC8+PGZvcmVpZ25PYmplY3Qgd2lkdGg9IjE3OC45ODQzNzUiIGhlaWdodD0iNjMiPjxkaXYgeG1sbnM9Imh0dHA6Ly93d3cudzMub3JnLzE5OTkveGh0bWwiIHN0eWxlPSJkaXNwbGF5OiB0YWJsZS1jZWxsOyB3aGl0ZS1zcGFjZTogbm9ybWFsOyBsaW5lLWhlaWdodDogMS41OyBtYXgtd2lkdGg6IDIwMHB4OyB0ZXh0LWFsaWduOiBjZW50ZXI7Ij48c3BhbiBjbGFzcz0ibm9kZUxhYmVsIj48cD7luqfoq4fkvJrjg7vjg6zjg53jg7zjg4g8YnIgLz4oTm90aW9uIC8gR29vZ2xlIERvY3MpPGJyIC8+RGlzY3Vzc2lvbiAmYW1wOyBEb2N1bWVudGF0aW9uPC9wPjwvc3Bhbj48L2Rpdj48L2ZvcmVpZ25PYmplY3Q+PC9nPjwvZz48ZyBjbGFzcz0ibm9kZSBkZWZhdWx0IiBpZD0iZmxvd2NoYXJ0LU4tMjgiIGRhdGEtaWQ9Ik4iIGRhdGEtbm9kZT0idHJ1ZSIgZGF0YS1ldD0ibm9kZSIgZGF0YS1sb29rPSJuZW8iIHRyYW5zZm9ybT0idHJhbnNsYXRlKDMzOTUuOTM3NSwgNDUxKSI+PHJlY3QgY2xhc3M9ImJhc2ljIGxhYmVsLWNvbnRhaW5lciIgc3R5bGU9IiIgZGF0YS1pZD0iTiIgeD0iLTExNiIgeT0iLTQzLjUiIHdpZHRoPSIyMzIiIGhlaWdodD0iODciIHN0cm9rZT0idXJsKCNncmFkaWVudCkiLz48ZyBjbGFzcz0ibGFiZWwiIHN0eWxlPSIiIHRyYW5zZm9ybT0idHJhbnNsYXRlKC0xMDAsIC0zMS41KSI+PHJlY3QvPjxmb3JlaWduT2JqZWN0IHdpZHRoPSIyMDAiIGhlaWdodD0iNjMiPjxkaXYgeG1sbnM9Imh0dHA6Ly93d3cudzMub3JnLzE5OTkveGh0bWwiIHN0eWxlPSJkaXNwbGF5OiB0YWJsZTsgd2hpdGUtc3BhY2U6IGJyZWFrLXNwYWNlczsgbGluZS1oZWlnaHQ6IDEuNTsgbWF4LXdpZHRoOiAyMDBweDsgdGV4dC1hbGlnbjogY2VudGVyOyB3aWR0aDogMjAwcHg7Ij48c3BhbiBjbGFzcz0ibm9kZUxhYmVsIj48cD5Ucnko5qyh44Gr44KE44KL44G544GN44GT44GoKeOCkuaKveWHuuOBmeOCizxiciAvPklkZW50aWZ5IE5leHQgU3RlcHM8L3A+PC9zcGFuPjwvZGl2PjwvZm9yZWlnbk9iamVjdD48L2c+PC9nPjwvZz48L2c+PC9nPjxkZWZzPjxmaWx0ZXIgaWQ9ImRyb3Atc2hhZG93IiBoZWlnaHQ9IjEzMCUiIHdpZHRoPSIxMzAlIj48ZmVEcm9wU2hhZG93IGR4PSI0IiBkeT0iNCIgc3RkRGV2aWF0aW9uPSIwIiBmbG9vZC1vcGFjaXR5PSIwLjA2IiBmbG9vZC1jb2xvcj0iI0ZGRkZGRiIvPjwvZmlsdGVyPjwvZGVmcz48ZGVmcz48ZmlsdGVyIGlkPSJkcm9wLXNoYWRvdy1zbWFsbCIgaGVpZ2h0PSIxNTAlIiB3aWR0aD0iMTUwJSI+PGZlRHJvcFNoYWRvdyBkeD0iMiIgZHk9IjIiIHN0ZERldmlhdGlvbj0iMCIgZmxvb2Qtb3BhY2l0eT0iMC4wNiIgZmxvb2QtY29sb3I9IiNGRkZGRkYiLz48L2ZpbHRlcj48L2RlZnM+PGxpbmVhckdyYWRpZW50IGlkPSJleHBvcnQtc3ZnLWdyYWRpZW50IiBncmFkaWVudFVuaXRzPSJvYmplY3RCb3VuZGluZ0JveCIgeDE9IjAlIiB5MT0iMCUiIHgyPSIxMDAlIiB5Mj0iMCUiPjxzdG9wIG9mZnNldD0iMCUiIHN0b3AtY29sb3I9IiMwMDQyZWIiIHN0b3Atb3BhY2l0eT0iMSIvPjxzdG9wIG9mZnNldD0iMTAwJSIgc3RvcC1jb2xvcj0iI2ViMDA0MiIgc3RvcC1vcGFjaXR5PSIxIi8+PC9saW5lYXJHcmFkaWVudD48L3N2Zz4=;" vertex="1" parent="1">
          <mxGeometry x="-680" y="343.5" width="2322.86" height="406.5" as="geometry" />
        </mxCell>
      </root>
    </mxGraphModel>
  </diagram>
  <diagram id="68CMHYturvAtwYC0ZBsD" name="生活・労働・創作の関係">
    <mxGraphModel grid="1" page="1" gridSize="10" guides="1" tooltips="1" connect="1" arrows="1" fold="1" pageScale="1" pageWidth="827" pageHeight="1169" math="0" shadow="0">
      <root>
        <mxCell id="0" />
        <mxCell id="1" parent="0" />
        <mxCell id="4hyN7gqnz7QnrJ29NcWk-1" value="" style="ellipse;whiteSpace=wrap;html=1;fillColor=#f5f5f5;fontColor=#333333;strokeColor=#666666;dashed=1;dashPattern=1 1;" vertex="1" parent="1">
          <mxGeometry x="159" y="405" width="510" height="360" as="geometry" />
        </mxCell>
        <mxCell id="4hyN7gqnz7QnrJ29NcWk-2" value="労働" style="ellipse;whiteSpace=wrap;html=1;fillColor=#e1d5e7;strokeColor=#9673a6;" vertex="1" parent="1">
          <mxGeometry x="199" y="465" width="340" height="270" as="geometry" />
        </mxCell>
        <mxCell id="4hyN7gqnz7QnrJ29NcWk-4" value="創作" style="ellipse;whiteSpace=wrap;html=1;fillColor=#fff2cc;strokeColor=#d6b656;" vertex="1" parent="1">
          <mxGeometry x="529" y="465" width="100" height="100" as="geometry" />
        </mxCell>
        <mxCell id="4hyN7gqnz7QnrJ29NcWk-5" value="文化的活動" style="ellipse;whiteSpace=wrap;html=1;dashed=1;" vertex="1" parent="1">
          <mxGeometry x="489" y="635" width="80" height="80" as="geometry" />
        </mxCell>
        <mxCell id="4hyN7gqnz7QnrJ29NcWk-6" value="&lt;font style=&quot;font-size: 18px;&quot;&gt;生活&lt;/font&gt;" style="text;html=1;align=center;verticalAlign=middle;whiteSpace=wrap;rounded=0;" vertex="1" parent="1">
          <mxGeometry x="384" y="425" width="60" height="30" as="geometry" />
        </mxCell>
        <mxCell id="4hyN7gqnz7QnrJ29NcWk-7" value="生命維持&lt;div&gt;（食事・睡眠）&lt;/div&gt;" style="ellipse;whiteSpace=wrap;html=1;dashed=1;" vertex="1" parent="1">
          <mxGeometry x="489" y="555" width="120" height="90" as="geometry" />
        </mxCell>
        <mxCell id="4hyN7gqnz7QnrJ29NcWk-3" value="無為の時間" style="ellipse;whiteSpace=wrap;html=1;dashed=1;" vertex="1" parent="1">
          <mxGeometry x="469" y="505" width="70" height="70" as="geometry" />
        </mxCell>
      </root>
    </mxGraphModel>
  </diagram>
  <diagram id="xTQKUv4D3L7wg1iXhFuN" name="会場使用図">
    <mxGraphModel grid="1" page="1" gridSize="10" guides="1" tooltips="1" connect="1" arrows="1" fold="1" pageScale="1" pageWidth="827" pageHeight="1169" math="0" shadow="0">
      <root>
        <mxCell id="0" />
        <mxCell id="1" parent="0" />
        <mxCell id="rOtj6O_n3d21wUyPrb-H-1" value="" style="shape=image;verticalLabelPosition=bottom;labelBackgroundColor=default;verticalAlign=top;aspect=fixed;imageAspect=0;image=data:image/png,iVBORw0KGgoAAAANSUhEUgAAA40AAAHICAYAAADqXg/PAAAAAXNSR0IArs4c6QAAAARnQU1BAACxjwv8YQUAAAAJcEhZcwAADsMAAA7DAcdvqGQAAFe+SURBVHhe7d17dFz1fe/9z+hmS9aMIYGeNDPErEN9asmEnpCCZLsNovGNgHlObMtKMQWDMcFpEZYNePWJiTE4PccEIyMSDNgyIsEUocvTYsDIIgs3LWjGTjhtwZJXnTwPDqP0tKTF2rpZo8s8f0izrflJY8vSSJrZ836ttVc039/eY+Kt2d6f2b+LKxwOhwUAAAAAwCjSzAIAAAAAABGERgAAAABATIRGAAAAAEBMhEYAAAAAQEyERgAAAABATIRGAAAAAEBMhEYAAAAAQEyERgAAAABATIRGAAAAAEBMhEYAAAAAQEyERgAAAABATIRGAAAAAEBMhEYAAAAAQEyERgAAAABATIRGAAAAAEBMhEYAAAAAQEyERgAAAABATIRGAAAAAEBMhEYAAAAAQEyERgAAAABATIRGAAAAAEBMhEYAAAAAQEyERgAAAABATIRGAAAAAEBMhEYAAAAAQEyERgAAAABATIRGAACmQcDvN0sAACQkVzgcDptFAMD41NXUqq62RpKUlz9fj2z/nrnLtKurqVUwGJQkFS4oVEFhobkLJlljwxHdd++9Wrx0iX6we7c8Ho+5C8Zh+OfP6/Ppke3b+bsFgDjgSSMASLIsyw5SExEMBhXwBxTwBxQMfmI2x11zc7MCfr8Cfv+Y//vramtUsWePKvbs0ZGGI2YzJllzc7Me2rJFkvTOkUbdtqZElmWZu2Echn/+Wk40ExgBIE540gggaQT8fvmbYnfpCwY/UesFglPwk6BaW1vNsiTJ7XbrldeqlZ+fbzaN2dPlg2FMkko3bdIDZZvMXeLqtpISBfwBSZLX69XP3n/P3GWE4ce8Uv0qTxqnkGVZum1NiVpaWuya1+vVK69Vy+fzRe2bbEbrbmu1WWpubj732rIUaGpS3vx8/WD37qh942H456+gsECvVFebuwAAxoHQCCBpRLr0TSav16s33j487icU0xkax/rnxSM0Njc3qz2OT8fcHs+Ewnqy+PaGDXrnSKP9evHSJXp+376ofZLBVXOuNEsXbeXqVXEPjoRGAJgcdE8FkDQ8s8cX5C6Gx+MZczfPVLZzxw7dVvKtuG07d+ww/wjHeWjLlqjAmJeXF/fQlEzqa+tUV1NrlgEACYjQCCBpuD0eFRQWqKCwQCtXr1Lppk2jbk88+aReqX511O1/f/jP+tXpj/Wr0x9r2/eiJ6nJy8ubcPdUYDQPbdmi+to6+3WkS+p4n2hPt4LCArNkc7vd9ue0oLBAi5cuUemmTVq8dEnUfgWFBSpYcPFPuQEAU4/uqQBSUl1NrR5+8EH7dTzGMyqFuqc+vuMxtTSfMMtRIn+GLhAylMAzzU6UZVm6b8OGqL+LeP2uTSeze/JYfoeG/9653W797P334h6a6Z4KAJOD0AjAkYZPve/2eKLGjQX8ft1W8i37dTxv4lMlNI7F8HFvvzr9cVRbKhht0pu8vDw9t39f0k96c7HML2mee+EFLVm2NGqfeCA0AsDkoHsqAEcaPvW+z3eFXa+rqdW379kQte8j27fHJTACEc3NzaMGRifMknqxLMvS0+Xl9uvFS5dMSmAEAEweQiMAx4t0gXux8oAefvBBtbe3221PPPmkVhWvHrZ3/NTV1OjFygNMrJNini7foxU3fSMqMEpK6jGME/Fi5QF7mRu3261Htm83d5kUzSea9fiOx6KW/AAAjA+hEUBKeGjLFu187DH7tdvtntTAKEmtra3a+dhjumHRH+mW5TcRIB2uublZtyy/ye4eaUrFwFhXUxv19/FAWdmUPWltb29X1YEDWnHTN/S1hYsIkAAwAYxpBOBIw8c2meI5htF0vj83Ii8vT3etX68ly5ZOOEgwpjExjOW8T+TvIB7rIl6Mify3RjQ3N2vFTd+wX0/FGMOxnAev16u71q/XquLVE/78AUCq4EkjAMdbd/fdysvLkyY5MJq8Xq/cbrdZVktLix5+8EF9beEiPV2+h6ePSayuplZfW7hoRFDJy8vTocNvRdVSSTAY1G1rSuzXbrdbT0zxmpRut3vUz1+kB8DXFi7SQ1u28PkDgDEgNAJwpOZhy0F4PB698lq1Vq5epTfePjwlgVGSVhUX62fvv6cnnnxyxBp1Guo+V7Fnj25Y9Ed6aMsWBfx+c5dJYbWdWyoB4xMJiw8/+KA9Xi+idNOmKf09SzSWZem+ezZEjR1ub29XXU1t1H6TLX9+vv7xow/13AsvaOXqVWaz2tvbVV9bpxsW/ZG+vWHDlH3+ACAZ0T0VgCNNVRdM0/mW3LAsS40NR/R0efmIoKGhJ5M/e/89s3xe4+meOryr42T+3Tixe2pdTW3M85eXl6cnntodFRad+HdwPqMtMzLcytWr9Mj27ZPWLfR8S25MxucPAFIFTxoBOFLzicSb8MLj8WhV8Wr76aPX641qn4pZJc2ueN4pmpTECRobjoz6ZDEyqVIqP13U0BjGry1cNGKZkeHqa+t025oSWdbUP+0e/vl77oUXVFBYENX+QFlZ1GsAwDmERgCOE/D7o7rG5SXgjXzk5nXwSV+BCgoLxrV23bbt2/VK9at6pfrVMc0E22KE6amaydIJlixbqtJN557kut1ulW7apJ+9/96Y/u6dLLIu5fDPXaQ7+BNPPhm1b0tLi762cNG0zmS6ZNlSvVJdbX/+vF5vyp9DADgfQiMAx6mtqbF/Xrx0yaR1hYuHgsLCoZvX8c0qmZ+fr4LCQhUUFo4pAL54oNL+2XzSiQt7oGyT1t19tx0WHyjblNC/X1OhrqZ21MD4g6GJb1YVr9ahw29FTUrT3t6u29aUTPk4R1Pk80e3VAA4P0IjAEcJBoOqr62zX69eXRzVnsoCfr89/lFDE/Xg4j2y/XuExSFPl+/Rww8+GBUYSzdtsgNjRH5+vt54+3BUd9X29nY9/OCD0x4cAQAXRmgE4Cj33bPB/tntdo+ry6dTPV1eHvV6PN3xrppz5Zi38R7HLJaJLxgM6pblN41YauSJJ5+MORmTz+fTK69VjxhLSHAEgMRHaATgGA9t2RI1CQcTW5zzYuWBqKeMK1evGlN3VsBUV1OrW5bfNGKG1CeefPKCX0R4PB69Uj24/M1wBEcASGyERgCO8NCWLVHdUhcvXaK71t8dtU+qqqup1c7HHouqEahxsSzL0rc3bBjRHdXr9erQ4bcuGBiH+8Hu3QRHAEgirNMIIKkFg0Hdd8+GqKceXq9Xb7x9eFrGnJ1vncapZlmWni7fo6oDB6Lq2773PQL1FBneTTfZ12n82sJFI5YbWbx0iX6we/e4P2vmlz2S9Hfv/cO4n4Kfb51GAMD48aQRQNJ6sfLAiG5ybrdbz+3fN+6bWKeIdCE0A+PK1asIjBiX5/bvs2dAjaxN+fy+iX3Whj9xdLvdeu6FF8YdGAEAk4fQCCBpNTefiF6PMS8v5RdYtyxLt5WUjLoI/bq77x4xqyUwVvn5+XrltWotXrpEr7xWfVHdUc/nB7t3a93dd+uV16qZuAoAEhTdUwEktUj3tpWrV+mR7dsn9NQjHgJ+v/xNg7N/Fi4YXD9xqtXV1OrhBx+0X+fl5emJp3andJieLk7qnpoMhn/+fD5f3IItAKQ6QiOApFdXU8vNoSHg9+uhzVt01/r1dEedRsOXD5mOLxAAAIgHQiMAAAAAICbGNAIAAAAAYiI0AgAAAABiIjQCAAAAAGIiNAIAAAAAYiI0AgAAAABiIjQCAAAAAGIiNAIAAAAAYiI0AgAAAABiIjQCAAAAAGIiNAIAAAAAYiI0AgAAAABiIjQCAAAAAGIiNAIAAAAAYiI0AgAAAABiIjQCAAAAAGIiNAIAAAAAYiI0AgAAAABiIjQCAAAAAGIiNAIAAAAAYiI0AgAAAABiIjQCAAAAAGIiNAIAAAAAYiI0AgAAAABiIjQCAAAAAGIiNAIAAAAAYiI0AgAAAABiIjQCAAAAAGIiNAIAAAAAYiI0AgAAAABiIjQCAAAAAGIiNAIAAAAAYiI0AgAAAABiIjQCAAAAAGIiNAIAAAAAYiI0AgAAAABiIjQCAAAAAGIiNAIAAAAAYiI0AgAAAABiIjQCAAAAAGIiNAIAAAAAYiI0AgAAAABiIjQCAAAAAGIiNAIAAAAAYiI0AgAAAABiIjQCAAAAAGIiNKaQ/hMtZgkAACBlcC8EjA+hMYUMWJZZAoDzCofDCbsBwMXiXggYH1eYf3lTRm9TQJkLCswyAMRk/hPR39yisGUpozD6WhKqqVd/MBhVyy4rjXod2SdzQcGI4yNCNfXKKl5pltXnD6i3KaB0n89ud7lc5m4AcF7cCwHjw5PGFHa28kWzBACjCluWQjX16tz8sHqbAmazemrrNBBsNcu29pK16i6vUJ8/oPaS29Xb0BjV3tvQqI4NG9VTWxdVj7RFjunasVPtJWvNXQBgXPpPtIx6TQMQjdCYojo3P0y/fgBj1tvwjnpq6xS22s0mSVKf/5hm7d6l7LJSezvXFlD/iRZ53n5d7uqDmrnpfp09UBV1/NkDVRr4JPpJZUTXju9r1pO75Hn7kC756AMNfNKqUE29uRsAXJT+Ey1qv+c+pXk8ZhMAA6ExBXVufliSNOupJ8wmABhVVvFKuasPjtp19EIGPmnVjPXr5Bq6MUv3+RRuix5X5K4+qJxHt0XVNNQddqC1NerPzVy2WH3NzVH7AcDFiARG9/7nlD4/z2wGYCA0phgCI4DJ0rFhoz6bM1fW8hVR3U+zilfaTx4Hgq06W/miMsY4pmhw/OT1UbWM/Hz1N9NTAsD4EBiBi0doTCFnn31OIjACmETu6peVuWyJOrdsVdiYpbC7vEJti4o0EGzVzPV3RbVdjLQrvGYJAMZk4OPTBEZgHJg9NUV0bn5Y/Z8Elb35AbMJAGIyn/J1l1dIxsyoA8FW9dTURdXaFhZp1lO7omZJHQi2qq8poLOVLyp9fr5m7d5lt2lo7GN3eYXc1QfPW+ttaNTZA1XKLuN6BmDsBj4+ra6/2iXPqy8TGIGLRGhMAZEuqVnFq5hmGsBFMf+JGC00jqa9ZK2yy0qVUVigUE290q7w2gGyt6FRHfd+R5eePhV1zGgBsc8fUOfmrZr9/lG71l1eof7mFrn3D/aeAIALiXRJzS79c8340zVmM4ALoHuqwzGGEcBk621o1Jmrr7W7o4YtS33+Y3Z7fzCorkd32q9ds8c+U2FGYcHQ+52bEr/PH1BmjHUeAcA0fAxj2pVzzGYAY0BodDACI4CpkLlsiVwejzq3bB1cy3HLVqV5zz1ZzFq2RP0tJ9W1Y+fgWouP7hzR7fV8Zqxfp87N5967/0TLuGZxBZB6mPQGiA9Co4O5PB4CI4Apkbt/rzSs+2rktSSl5+cp94Vn1d/cou7yCqVd4VPuvnPtFzJz/TplLlus7vIKDQSDyt2/116+AwDOp6+5mcAIxAFjGlNIb1OAMY0ALkoi/xPhcrnMEgCcF/dCwPjwpBEAAAAAEBOhEQAQk8vlStgNAABMDUIjAAAAACAmQiMAAAAAICZCIwAAAAAgJkJjChn4+LRZQgoKHXrTLAEAkBKG3wv1n2iJaksWyfrfjeRGaEwh4a4us5R0wuHwtG1OMfDvn5olAOdhXgsSaQNwcYbfCw1YVlSbyfy8TeV2Phf67wYmA+s0ppCzlVWauX6dWU4qw39dexsa1dc8+G3bzPXrRiz23VNZpQHLUprHoxnG/+/IAuQR6T6fsopX2q/7m1sUamiUJM0oXqU0n9cxszU64fcAmErmP5O9DY1Kn5+vNJ83qh4RqqmPup5EjHZdidWetWyJ0vOjFyMf7ZrmlOsSMFWG/xt4oTUbh3/2w5al3oZ3Rny2+/wB9TYFomrDP9+hmnr1B4NR7dllpfbPYcvS2coqSVLmggJlFA7+95zvs32h/25gMvCkMYV1PbrTLCWNnsoqdW7ZqoFgq0I19bKW3xrV3rFho85WVmkg2KqzlVXq2LDRboscE0ufPyDrplvV39wy+PPyFQo79Fu90KE31fnwX5plAKMYCLaqa8fOoWtP9E2ghq4dnVu2qvPBrWaT+ptbZN10qwaCrerzB9S+Zm1U+0CwNeq6075mrQaCrXZ7146d6i6v0ECwVd3lFercMvLPAHDxQg2N6qmpkyT11NSN6PoZtiyFaurVsWGjemoH9xsu8rmMpWtH7HutsGWpbWGRehsaNRBsVXvJ7erzRwfQCwlb1ogvwoHJQGhMUZ2bH07qIHS2sko527dp1u5d8rz9ugZaB2/ENHTz1XvkHeXu36tZu3cpZ/t31XvkHfvYgWBQaVd4lV1Wam/DvznsLq/QzE33K3ffXrmrDypz2RJHXpBDh95UR+lmZf7xH5lNAEbR1xRQ/1DvhtGEGhpHDZMadl2ZtXuX3NUHlXaFVz1DTxci7VmrV9rXHZfHo96hp44DwVb1HHhJnrcPDV3zDilUW3/eG1UAFzbw8Wl1PbpTGfn56qmp09nKKqVdEd0DYCDYqp7aOg18EvvzNqN4ZdQ9xfBeBOH29qi24U8Zz1ZWKX1+nv3Zzvnedy/qfiNsWbLWrB3RawGYDITGFNS5+WFJ0qynnjCbkkZW8UplLlssSXJ5PHK53VHtOd/7rt21K+0KX1TbhfT5j2lG8Sr7ddbSxee9UUxGkcCYW/GUslbcbDYDGEVW8Uq5qw8qfX50t9GInO3b5K4+aJaloYkrhncnm7F6lXqHPVEI1dZHdRuf/f5Ruwtq/4lmZRReb98Ypvm8yly62H46AuDi9Z9oUdcPnpJ7/3Pqa27W2coqeV4b/MJmuPT8PLmrD47olhoPff6AZt597nOfVbxSff5jUfvEEgmMM9evi7pnASYLoTHFOCEwamg8gMvjUdiy7K4fdkj0ee2brUh3sozC66OOH/ikVWeuvlafzZmrtoVFI0Lh8G/tXLM9I7qrJLO+EycIjMA06w8GR/T2GPgkqPaStWovWWs/ZZSkvuYWpfmiv/wyxzsCGLv+Ey1qv+c+5Ty0+byBcay6Ht2pz+bM1Wdz5o7aHdVavkKfzZmrM1dfO2J4jGv2uT8z8ueb9ySmcGcXgRFTjolwUkjbsluU9juXa+Z37jObkoYZ/j6bM1eSNHPT/VFdPjT0DV57ye2SJHf1y/bg8lBNvTof3KpZT+5S+vy8obGPQbmrD9rHXHr6VNR7fTZnbswnCMmk732/uit+qOzSv1DGwkKzGcAozOtOe8laZZeV2tcU02dz5o64hnRu2aqwZWnW7l3qb25Rxz0blT5/8AlGZLyjy+3WjPXrFLYs9Rx4yb5uRbqrDb/GdZdXKGxZylq2dNifAjjDwMenJ23G91DjT9X/L6eU89Bm9b7fpP5Tv4wZGIffIneXV6jPHxhxL/DZnLnKXLpY2WWlGvgkqI57vyPP4deVnp9nf7ZnbrpfWcuWqK8poO7yCl3y0Qf2scPvTzQUMHMe3abMBaP/Gx22LLV9/SZlrfwfyiz6mtkcV2keT8yeFUg9hMYU0bn5YQ18+qncP3nRbEoq5q9rZNaxs3ue0ez3jo7o1x950th/okWz3z9q18KWZX9TPxBsVduiIl16+pTClqUzX/5q1A1f5KL/uV//0q4lo0iX1Kxv3qrcp35gNgOIwbzujCc0DgRbBye3aR0cF5W1eqX9ZVXkupPzve/avSTaS9Yqo7BA2WWl9kQbs3bvst8vEiRzNj9g1wCcX/+JFrXfcZfcP35Rfc3N6q74kWa/+TejBkaNMTT2+QNKz8+z36Njw0al5+cpu6xUYctSf3NL1LXizNXXKnf/XmUUFtgBcXh7JEiOFhojXVIzb/iacv7yIbMZmFR0T00BkS6pyfyEcbjI7IEa6sqRXVaq9Lx5dneuPn/A7v6R5vNq1u5dURPlpPm8UV27XJ5z4yEjF/3h3cbCljXiSUOyGT6GMWP+fLMZwCRL83k1+/2j8hx+XZd8+Aul+bx2l9PIdSdz2RJ7/4zCAruLWrrPN2KCHSbBAS5OpEtq9oPnuqTmbH8kZmAcq4zCgqj3MH82v1wyh7+E20ZOSmgeI2MM42Q/YQRGQ2h0OKeMYRzO5XHr7J5noqalDlvt535uGxznaI4XilzIu3bsVHvJuenu+5oCURPppOfNixpz0FNTP2I8UTJh0htg+nWXV6inssp+IhGqqVfGsC+vMgqvjxrHOBBstb/cSp+fpz7/MfuaFrYs9TY0KmtYyAQQWyQwuvc/p/6PT58bwzgrx9z1ogwEW/XZnLlR9yN9TQGlD90z9DY06szV10Z9dvtbTtr3FGk+n0LDZncP1dQrzTtyJtThgZExjJguhEYHc2Jg1FD4y1y6WJ2bt6p7aL2ygdZW+1v6jAWD3/p1bNio7vIKdWzYqDTvuaeLM9ffpf4TLerccu74SJcwScp5dJu6yyvstlBt/YjxksmCwAgkhswFg2MTeyqr7C+thl93It1Qh193IqEwPT9PmUsXq33NWvualj4/j8lwgDEYHhj7mpsVeutwzDGMFysyk3Hn5q3qGVoTOmxZ9uzuw+9Heiqr1L5mbdRMyDnbv6vehkb7fqRrx84R9xsERiQKQqODpc/Pc1xgjJi1e9fQ1NQBhS1L7uqX7Yuwy+OR+7WDSvP51OcPKM3nk/u1c2MQ0nxe5e7fq7Blqc8f0Iz166Kmus8oLNCs3bvU5w8MjTk6997JZuDfPyUwAnE2fPzSaEbrzp5RWKCc7dvU6w/Y1yizffh1J/eFZ6NC4azdu5Q+P9++puXu2xt1PIDRDViW3Pufsyd0GW+X1HSfb9QvaiL3I6Ejgz0F3MMC6fD7kdCRRqXPz9es3efuy1weT9T9SM72bSOW9ghblrLLSgmMmHZMhJNCepsCUeuEJaPp/HV1uVxmKSmdrayKCskAzm86rzsX4pTrEjBVht8LXei+aDo/++f7bF/ovxuYDDxpBAAAAADERGhEUnG5XNO2AUhN5rUgkTYAk8f8vE3lBiQaQiMAAAAAICZCIwAAAAAgJkIjAAAAACAmQiMAAACAhNR/osUsYRoQGgEAAAAkpAHLMkuYBoRGAAAAAEBMhEYAAAAAQEyERgAAAABATIRGAAAAAEBMhEYAAAAAQEyERgAAAABATIRGAAAAAEBMhEYAAAAAQEyucDgcNou4OA8/+KAyMmcoPT3dbJqw/v7+uL2v7//8m4Jf+C9meUx+ffpjvfSTH5tlR9n5+F8pOzvbLDvKh//8j3ruhhs1c/06s8kRSlYV67/l5ZllRznx4T+r/m//xiw7xvHjx7XnqT36r1ddZTY5xn/8x2/1+3N/Tw9s3mw2Ocaf3Xa7rvyv/9UsO8qvfvVLvfLXr5hlx3h+71790z9/qM9//jKzKakNvxc609ysO/5yq6677jpzt4R1/Ngx/fh/PaFL8vPNprj43S9+UVmZmWb5orW0NGv3U7vN8rj0NgWUuaDALGOKERrj4Lv/93d1XcECs5xwLjn1S52Z+3tmeUx+cfyYHt/5mFl2lN1PluuquXPNsqO897Ojejz/aseGxjvW3q6Va75llh3l9fo6HXjpRbPsGAG/X1VVP9aym75hNjnGr06d0uc+N1t33X232eQYf/Hnf6HFS5ebZUd558jb+uGPfmiWHePFAwf0n//Z5rh/F4ffCzUcfkvr1t2hgsJCc7eElSzXyIbDb2nvc8+a5XEhNCYGuqcCAAAAAGIiNAIAAAAAYiI0AgAAAABiIjQCAAAAAGIiNAIAAAAAYkqZ0Hi28kV1bn7YLMfF//V3/6DcYKtZBgAAAICklzKhceb6uyRpUoJj0zVXK39fJcERAAAAgOOkTGiUpFlPPSFNQnD890svUfOG9QRHAAAAAI6TUqFRkxgcO3xegiMAAAAAx3GFw+GwWXSK/hMtGrAssyxJOvvscwqf7VH25gfMpjHpb26xfz70t3+rtPQMuVwu5XZ36cun/l/97Kv/XWfc7qhjIrJzcvSlL80xy5Pqpz99R5e7XPr02q+YTWPyya9/raofV5llR9n5+F8pOzvbLDvKqwd/oi3eL6m16AazyTGumjvXLDlKa2tQZ7u6zbKjXPr5z+lzn/u8WXaM7u5u/SYYNMuOMjMnW16vzyw7Sip8Fr/o8znu38XOd4/qlZMn9LnPXapPP/2tHv+r7+u6664zd0tYx48d067/9YTy8vPNpgkLhXq1YNEiszwuDYff0t7nnjXL49LbFFDmggKzjCnm6NB4Ie1/dpfSLr/cfvoYLz1//Zq6K34k9/7nlD4/z2zWnX92h765eo1ZnlQ/+XGVOixLDY1HzCakkBcPHNAXfvoz9axZbTYBAOB4ne8eVeiafN11991649Ah3bJihblLwgv4/SooLDTLE7bv+Rd0+Re+aJbHZSKhsevRnZpRvMq+h55IaOy45z7NeuoJuTweswkXKaVDY29TQKGaOmlYt9V46G0KKM3jUfs9940aHJMxNAaDQbU6/Jvx7u5ux32javrggw905XvHCI0AgJQ0PDS+9eab+sbNN5u7JDynh8b+Ey1R99ATCY09NXU6W1klz2sHCY4TlPKhMXNBgT2+MV7BMfK+5i99RDKGRjgDTxoBAKmM0BhbooRGGcFxwLLGHRpFcIwbQuPQL2Hn5oeVPj/PXppjIoa/b+SX3lNzUGm+wfEdhEZMl73PPiu9Uq13/svlZhMAAI73++0duuJ/3KqN3/mOjh8/nlTjGSNSITRq2D10dumfa8afTuy+meA4cYTGYd9cDASDdrCbiNHe1+Xx2L+khEZMlwf+4i+U+e7P9E8XERrDYcnlMqsXLx7vkyjvoQR7n3i8h+L0PvF4DyXY+yTKeyhO7xOP91CCvU+ivIcS8H3iIR7/LYnyHp//7X9ozoIC7Vx3t9mUNFqamydlIpw3Dx3SJZ+7zCyPy7GAX2Wby8zyRRv4+LS6/up/aca31ijtC18wmyVJaZdfJtflF76v6T36M4Vef0M5jz8q16wcs1mSlDE/j1AZA6FxAo+7Y7nQ+xIaAQAAMB6p8qQxItZwr/Ho+p8/UO/f/YwnjuOQcus0AgAAAEgO6fPz5N7/nNrvuU/9J84teTcemUVf08z162StWatwjGX5MDpCIwAAAFLS8ePHzRISUDyD44ziVQTHcSA0AgAAICV1dnSYJSSo4cFxYILLwBEcLx6hEQAAACmpq6vLLKWsUChklhJO+vw8eWriMx5xRvEq5e6Oz3J7qYDQCAAAgJT0jZtv1ltvvmmWU1JWVpZZSkhpPl9cQqOGQmi83svpCI0AAABIWb/zO79jlgAYCI0AAABIWX943XVmCYCB0AgAAAAAiInQCAAAAACIidAIAACAlMZkOMD5ERoBAACQ0q75gz/Q8WPHzDKmUDgcHteGqUFoBAAAQErz+XxqPnHCLGOa9FRWqbu8Qu0la9VeslYdGzaqu7xCff6AuSumCKERAAAAKe/zl12mYDBoljGF+ptb1LawSGcrqyRJGYUFmnn3OqXn5ylsWeq4Z6PaS9aah2EKEBoBAACQ8m5ZsUI+n88sYwp1l1coY0GBZr9/VNllpcouK1XmsiXKLitVzvZtmv3+UfWfaFGopt48FJOM0AgAAACkuFAoZJam3MAnQWUWFphlm8vjUfr8PPXzRHjKERoBAACAFJeVlWWWplz6/HydrXxRA8FWs0mS1NvQqD7/MWUuiB0sMTkIjQAAAMCQkydPMrZxmuRs/67S5+erbVGRPQlOZGtbWKTOLVuV+8KzyjjP00hMDkIjAAAAMGTevHl689Ahs4wp4PJ4NGv3Ls1+b3BM48y71ymjsEDZZaWa9dQuzX7/qDKXLTEPwxQgNAIAAADD/OnatXrrzTfNMqZIms+rjMICexKcjMICZRQWyOXxmLtiihAaAQAAgGE8Ho9ycnLU2jr62DpMnoFgqzq3bFV7yVqdufpafTZnrtoWDnZX7S6vUNiyzEMwBQiNAAAAgKHoxhvl9XrNMiZRb0Oj2hYVSZKyy0qVu3+vZr93VLOe2qWZd69Tnz+gtoVFBMdpQGgEAAAAMO3OHqjSzE33a9buXXaX1OFdVd3VB+XyeFincRoQGgEAAIDzsBL4ydbRd991zMQ94TZL6T6fWY6SdoVXAwl8PpyK0AgAAACcx29+8xv9/PhxszxlzNBqWZbeOHRIR999V9d+9au67PLLo9qTVeayJerasXPUJ4kDwVZ1l1eo/0SLZhSvMpsxyQiNAAAAwHnMmzdP//7v/67jUxgcLcvS0Xff1RtvvKGGw4ej2jwej25ZsUJFN94oj4NmFM0uK1XO9m3qLq/QZ3PmRm1ti4rU5w/I/dpBpfkYazrVCI0AAADABXzj5pvV2dGh48eOmU2TouHtt1V044265ZZbVFxSYjbHXSgUMkvTIqt4pWa/f1SXnj6l2e8dlbv6ZV3y4S906elTclcfVHp+nnkIpgChEQAAABiDohtv1HXXX2+WJ0XxmjVmaVJlZWWZpWkXmQSH9RmnH6ERAAAAmEZvvPGGjr77rllOOe0la9Xf3GK/7m1olLV8hd1F1Vq+Qr0NjVHHYGoQGgEAAIBxOHnypFm6KCdPntRrr76qr3zlKyq68UazOeX0+Y/ZazAOBFvVce93NKN4lWa/d1Sew68rc9kSddz7HfX5A+ahmGSERgAAAGCcfvzSS2ZpzHJzc7XmW9+S18vELqaBYFBpXq9mrF+nNJ9X6fl5yi4rVXrePPU2ERqnGqERAAAAGId58+bpf3zzm3rpxRfHNUGO7wJrEqYyl8ejgdZWDQRbo+phq11pjHGccoRGAAAAYJw8Ho/uvOuuMU+QY665iGhdj+5Ue8lade3YKZfbrfY1ayVJff6A2hYWKWxZyipeaR6GSUZoBAAAAKbAG4cOERrP45IPf6GcR7cpu6xU2WWlmrV7lx0QBz5ptZfjYDbVqUdonIBwODzqllF4/Yja8A0AAADO1draquf27o2aKOf4sWP671/5Cl1Sz8Pl8SijsMDeMpctUXZZqTS0fmN2WSmBcZoQGuMobFnq8wfsDQAAAKnH6/Xqvo0b9X/+9V/146qX9PPjx/Xpp58SGJG0CI1x0FNZpTNXX6szX/6qOjdvVXd5hTru2ajP5sxV28IiAiQAAEAKKrrxRt2x7k79t9//fX3j5pvNZiBpuMIp3F+ytymgzAUFZnnMwuGwussrFKqpV8727ypz2ZLodstSb8M76nxwq9zVLyujcPDPWnfHnfrm6jVR+062n/y4Sh2WpYbGI2ZTUtj3wgu65ppromoFhYX2z8FgUK3BIO0J3v53R/9ONxTdELN9ONrPtVuWpZbm5oRo//jjj3XllVfGbI+gPXHbP/74Y335mmuUn58/arsucDzt09+el5+v6ldf1YZ7742qIzlYlqWGhgZdftll41qbMeD3R/2OxKpdrH3Pv6DLv/BFszwuDYff0t7nnjXL5xUOh8f8oCXN51Oab3CZEpfLZTbHNNF7/1RGaJzAL044HFZ7yVrNWL3qvLM4dWzYaK8tI0LjuDxdvkcPlG0yy0gynMfkF48bE0yvgN8vGcEEyYfrafILBoNqeu89SVJxSYnZHNNo1+HRahfrR8/8UN4vXWmWx2W8obG9ZK36/BdeumTmpvvt+2pC49Sge2oc9F7gW5H+Ey1mCQAAAAko8sVKxBuHDo1rDUZJevenPzVLNp/Pp+KSkhGB0bIs1VRX660331RNdbWOvvtuVPtkycrKMktTzl19UGler2Zuul+Xnj4Vc4sERkwdQuMEZZeVqrehUe0laxWqqY+aCKenskptC4vk8rg1c/0681BchFXFq80SkhDnMfnlDXVpRPLKy8/nPDoA19Opc8uKFfrdL35Rr/71X+uNQ4fM5ph+fvy4vnrddWb5gjwej4pLSvSNm29WcUnJiC6sTv/8ZpeVKp0JgxIOoXGCMgoLNPv9o8ooLFBPbZ09CU53eYVCRxqVXVYqz9uHmB54gphtzBk4j8nPw7Us6Xk8Hs6jA3A9nVo+n0/f+tM/1S0rVphNMZ346KNJ+axNxnsmkqzilecd9oXpQWiMA5fHo+yyUrmrD8pdfVCXfPSB/TO/9AAAAKnl58eP65urVpllnIfL5RrXhqlBaIyTgWCr/fPw9Rr7mxnPCERYlmWWkGQ4h87AeUx+QWPGZUyPWOMN//C66xz/RBCphdA4Qf3NLWpbWKTOLQ9LknobGtW2sEjtJberu7xC1k23qr1krcL8Az0hT5fvMUtIQi9WHjBLSDLm1P9IPgG/n/PoAHU1tWYJ02BWbq6OHz9ulgHHITROUHd5hdKu8GrW7ickSV07vq+s4pW69PQpuasPavZ7R9V/okWhmnrzUAAAACSx6667Tp0dHWptPdfjDHAiQuMEhS1LWUuX2AuMDrS2akbxuT7saT6vMhYUaIAnjQAAAI5TdOONOvUv/2K//jlPHuFAhMYJSs/PU09NnT2mMaPwenWXV9jdUfv8AfUeeYepgwEAABxq+LIYHR0dUW2AExAaJyi7rFTp8/PVtqhocOxim6XeI++obWGRrOUr1HHPRs3cdD+zqE4Q61E5A+cx+Tl9fbBUwDqNzsD1NHF1dXWZJSDpERonyOXxaNbuXZr93lFll5VqRvEqzdx0v7LLSpXz6DbNfn+wjolhPSpn4DwmP2YDTH6s0+gMXE8T08mTJ3XNH/yBWU4KoVDILE2L0KE3zRISAKExTtJ8XmUUFmjG+nWD4XH9OmUUFsjFP8wAAAAp4efHjidtoM/KyjJL06L72efV9sdfN8uYZoRGAFOGteGSH+fQGTiPyY91GhPT5z7/ObOEizT78OuSRHBMMIRGJAXWaXQG1mlMfqzvl/xYp9EZWKcxMQ0MDJgljMPsv/+pRHBMKITGCQrV1Ku7vOKCW58/YB4KAAAAB8nNzTVLGCeCY2JxhcPhsFlMFb1NAWUuKDDLYxYOh9Xb0KiOe7+jjMLrlVEY+70yFxTY7evuuFPfXL3G3GVS/eTHVeqwLDU0HjGbksLT5Xv0QNkms4wkw3lMfgG/XwWFhWYZSSTg90sS5zHJOfV6+p0/WayrLv8dfeF3v2g2TZnf/NM/6v7bbzfLY3L2bLdmzsw2y5Pu9b/9W7nds83yRbv88svN0ri0tDSreE2xWR6X7h/slmbOVPb9f242SZIyrrlaGdf9oVke1UTv/VMZoXECvziRv7qODRuVnp835llSCY0Xz6n/OKYazmPyIzQmP0KjMzj1erpq1WotXLBIV82dazZNmTf+9m+0/8B+s5zQvvfI93TtH15vlqdNw+G3tPe5Z83yuJytrFJP1U+kYU8fx2ui9/6pjO6pcTBz/Tp+AScZ61E5A+cx+bG+X/JjnUZn4Ho6edLT081SwsvMzDRLjkJX1elHaIyDjMJzXU8xOZJ1+mpE4zwmP9b3S36s0+gMXE8nT39/v1lKeL29vWbJcQiO04vQCAAAAAxJS0++2+NUmYBn9t//VMqdpdChN80mTDLGNE6gW2nkr67PH1Bv0+DsqDOKV8nlcetsZZX6/AG5PB7NXL8u6kkkYxqRqizL4glHkuMcOgPnMfkFg0FHPm0cbUxjd3e3fjOF61J++M//qKofv2SWE9oPn/mhenom/rQxXmNJ4z2mceb6dWZ5XCZ675/KCI0T+MUJh8PqqaxS12PfV+bSxZKkvqaA0nxeha12ZRWv1ECwVaHaenkOv670/DyJ0DguTh3wn2o4j8mPiXCSHxPhOINTr6ejhcZfnTolj3uWNnz73qh9EV8/euaH8n7pSrM8LoRG50m+5+8JJnSkUTM33a/cfXuVu2+vMpctUX/LSblfO6jsslLN2r1LmUsXK9TQaB4KAAAAJISsrCyzBNgIjXGQNqyLz2BX1OuV5vPatbBl2T8DAAAAQDIhNE7QjNWr1F1eoc4tWxW2LKXn58ldfVCS1N/cos4tW9XnP6asZUvMQwEAAAAg4REaJyireKVy9++VJA0EW6Paunbs1EAwKHf1y/Z4RowP61E5A+cx+bG+X/JjnUZn4HoKYCoRGuMgo7BAs3bvGhEM3dUH5a4+yBqOceDEGeJSEecx+THjZvJjnUZn4HoKYCoRGifA5XKNuvX5j42oDd8AAAAAIFkQGgFMGYtJoZIe59AZOI/JLziF6xYCAKERSeHp8j1mCUnoxcoDZglJpqW52SwhyQT8fs6jA9TV1JolAJg0hEYAAAAAQEyERgAAAABATIRGAAAAAEBMhEYkBdajcgbOY/Jjfb/kxzqNzsD1FPEWCoXMEmAjNCIpsB6VM3Aekx/r+yU/1ml0Bq6niLesrCyzBNgIjQAAAACAmAiNAKYMa8MlP86hM3Aekx/rNAKYSoRGJAXWaXQG1mlMfqzvl/xYp9EZWKcRwFQiNAIAAAAAYiI0AgAAAABiIjROgnBnl1kCAAAAgKTk+NAYDodjbhmF14+oRbaJGDh92ixhgliPyhk4j8mP9f2SH+s0OgPXU6QKV06OWcI0cHxojAhblrrLK9ReslbW8hX6bM5ctS0sUnvJWnVu2aqBYKt5CBII61E5A+cx+bG+X/JjnUZn4HqKVJF25RyzhGmQEqExbFlqW1ikPn9AM+9ep5xHt8ld/bJmPbVL2WWlkqS2RYPtAAAAAJKT2XtwKnoZpoKUCI1nK6vk8njkrj6ozGVLlFFYELXN2r1LWatXqru8wjwUAAAAcLxQKGSWHKPPH4ja6GF48VIiNEpS+vw8sxQlzec1S0ggrNPoDJzH5Bfw+80SkkzA7+c8OgDXU8RbVlaWWUpqYctS146d+mzOXHXcs1Hd5RXqLq9Q16M71baoSNbyFfQyvAgpERozFxSo98g76i6vUNiyzGaFaurVU1mlrKVLzCYAAAAASaZrx/fV1xTQ7PeO6pKPPpC7+qDc1QflefuQLvnwF5pRvErtJbfz1HGMUiI0ZhQWyF39svr8AZ358lf12Zy59mQ4n82Zq+7yCuVs36YZ69eZhwIAAABIMqHaemWXlY7am9Dl8WjG+nVKz5un3oZGsxmjSInQKDs4HtSlp09p9ntHlfPoNnkOvz74+v2jyipeaR4CAAAAIAml581TX3OLWbaFLUsDwdZRQyVGSpnQOFyaz6uMwgKl559/nCMSB+tROQPnMfmxvl/yY51GZ+B6Cpxfdlmpeiqr1F6yVt3lFfYkOKGaenXt2Km2hUXKWFCgzGUMTxuLlAmNvQ2N6tiwUe0la9VTWaWwZalzy1adufpanbn6WnXt2GkeggTCelTOwHlMfqzvl/xYp9EZuJ4C55e5bMlgb8KlS9Tf3GJPhNNTWydJyt2/V7n79pqHIYaUCI19/oA67v2O0nxeZS1dop6aOrWvWauBYHDwF2b/XvU2DE6UAwAAACD5RcYu5u7ba0+E464+qJzt25RRWGDujvNIidDY2xRQ5tLF9mQ3M9ffpf6Wk/YvTEZhgWauX8e0uwAAAICD9PkD9lPGyNbb0DjqigqILSVCo4YGu0b0B4Mxa0hMrEflDJzH5Mf6fsmPdRqdgespcH79zS1qL1mrjns2Rj0YGgi2qru8Qm0Li+hleBFSIjRmLVuiPv8xdWzYqM4tW9VTWaWMwuvVuXmrvUZjqKaedRoBAAAAB+gur5DL47HXaMwuK1V2Walm7d4lz9uHlLt/r87ueUb955lhFeekRGhMz8+T5/DrSs/PU5rPq9z9g/2as4pXqqe2TqEjjcouK2WdRgAAAKSkUChklpJa75F3NPM89/aDQ9SuV4h1GsckJUKjhoJj5BuGyMDX7LJSe0AsgREAAACpKisryywltcyli3W2ssos2waX4DimLJbcGJOUCY2xDARbGQibBFiPyhk4j8mP9f2SH+s0OgPXU+D8sstKNfBJUGeuvlYdGzbak+B07dgpa/kKddyzUTM33c+67WOUMqGxa8dOnbn6Wn02Z646t2xVf3OLrOUr1LaoSGe+/FVZy1doINhqHoYEwXpUzsB5TH6s75f8WKfRGbieAueXnp9nj10cHgxdHo9mrr9Ls98/quyy0qhjEFtKhMZQTb1CNfXK2b5N7uqXNRAMyrrpVrlmezT7vaOa/d5RuWZ71LVjp3koAAAAgCSVUVhgD1GLbFnFK+Xiy7OLkhKhsT8YVOayJcoqXqmMwgLN2v2EJCln+zal+bxK83mVtXQJ3VQBAAAAhwjV1Ku7vEI9lVWjzpIaqqlnnfYxSonQmObxqK8pYHc/TfN5R/RhDh1p5BuHBMZ6VM7AeUx+rO+X/Fin0Rm4ngLn17Vjp7p27FR/c4t6/QG1r1k7oldhT22depsIjWOREqFxxvp1SrvCq7ZFRQrV1EtDg2MlqbehUWeuvlb9J1rG3a85dOhNswQAAABgmvQceEmzdu9S7r69yt23V+7XDqq34R11bNhI78JxSInQKEnu6oPyHH5dGQsGl9uIcM32KLusVLPfPzru2ZO6n31ebX/8dbMMAAAAYBq43G6FrXb79eDEOK9r4JOg2tesJThepJQJjRr6ZUnzeaNqGYUFmrF+3YS6ps4+/LokERwBAACABDBj/Tp17dipzi1b7SFqLo9HnrcPKX1+vtoWFmngE1ZOGKuUCI0DwdYRy2kMBFvtwbF9/sCEv22Y/fc/lQiOk4b1qJyB85j8WN8v+bFOozNwPQXOL7usVDnbt2kgGFRvQ2NU26zduwbXcWwlNI5VSoTGnpo69dTUnXtdWaW2RUXqqa1Tnz+gzs1bZS2/ddRZlS5GJDh2P/MjswkTxHpUzsB5TH6s75f8WKfRGbieAheWVbxS7uqDmrF+ndmkGevX6dLTp8Y9p0mqcYXD4bBZdJJwOKzu8gpp2OQ3n82Zq1lP7lJW8Up7v44NGyVJufv2SpJcLpfdNpqzlVVmyda95xkpPU3Z9/+52SRJeuXll3XNH3zFLI/ql7/8F+Xm5prlCzp79qz6+/rs1+3t7fo/vb1a8tQPovYzFRQW2j9blqWW5uao9tHk5edH3YBcaFY+t8ejfL7lBgAAhlWrVmvhgkW6au5cu/arU6fkcc/Shm/fG7Uv4utHz/xQ3i9daZbHpeHwW9r73LNmeVx6mwLKNOYkOZ/xRpsL3funupQNjZ7Dr0dNfNNTWaXQkUa5qw9KcfjFiXRTjTx9HO7OP7tD31y9xiyP6hfHj+nxnY+Z5XEJ+P1RoXC6nDx5UvPmzTPLAAAgxREap8++51/Q5V/4olkel0QIjd3lFVFPEfv8AZ2trLKHpLk8HnvNdsXh3t/pUqJ7qobGMPb5B9dqzCi8Xt3lFfYvzUCwVWcrq5QWx64ejHGM7f/71f9rli6I9aicgfOY/C7UkwCJj3UanYHrKXB+Z/c8Y/88EGxVe8ntSs/PU3ZZqWbePdhd1Vq+YsS8JxhdSoTGdJ9PA8Ggussr1LnlYfX5j6n3yDt2F9O2RUVKu8KrnO3fNQ+dEILj6Lq6u8wSAAAAMCn6mgJK83qVXVaqjMICZS5botx9e+XyeNTXFDB3xyhSIjRGBsFGtktPn4oa+Oo5/Lrc1QcntOxGLLP//qdS7iyFDr1pNqUsh/eIBgAAwEUKh8Ojbun580bUhm9j4fK4FbasCa+WkMocHxpdLlfMrc9/TC6XSxnz80e0xdPsw68ra8XNZjllXXbZZWYJAAAAUJ8/oPaStfpszlx9Nmeuznz5q4P/e/W1UWsujkV7ydrB5fWaWxRub7cnvuxvblF7yVqFLUuZyxabh2EUjg+NSDxFN95oli6I9aicgfOY/FjfL/mxTqMzcD2FE/VUVqnjno3KWrpEs987avcOvPT0KblfG5yscqzjEN3VLyu7rFRpQz0JZ266XxmFgxPq9J9oUZrPJ8/bhyalp6ETERqRFFiPyhk4j8mP9f2SH+s0OgPXUzhRT02dsstKNWP9OntW04j0/DzN2r1LaT5v1PrrsWQUFiijsEAz1q9TdlmpvWlo6FrkvTA2hEYAAAAACWHgAuMOw1a7/fRwNOaQs9GGpo224fwIjZhSJ0+eNEsAAACAZhSvUk9l1eA4RH/Anrimv7lFvQ2N6tyyVWHLUlbxSvNQTDJCI6bM0XffNUtjxnpUzsB5TH6s75f8WKfRGbiewolmrF+n3P171d/cos7NW+1JcKybblV3eYVcHrdmv3+UcYjTgNCIKdPd1a158+aZZQAAAEyzUChklqZFRmGBcvft1ez3oyfC8bx9SDnbtxEYpwmhEVOmq7vLLAEAACABZGVlmaVp1ecPRG39zS3mLphChEZMiZMnT2rJ0qVmGQAAAJAkhS1L3eUVOnP1teq4Z6O6yyvszbrpVrUtLFJvQ6N5GKYAoRFTYt68eROa4p31qJyB85j8WN8v+bFOozNwPYUTdZdXKFRTr9z9e3XJRx/IXX3Q3i49fUrZZaXquPc76vMHzEMxyQiNSAqsR+UMnMfkN5Evf5AYWKfRGbiewol6G95RdlmpMgoLzCZpaH3F9Lx56m0iNE41QiMmnXWB9XYAAAASRWPDEfvngN+vFysP2PXhbcMFg0E9Xb5HwWBQklRXU6vHdzwmSbqtpER1NbXGESPV1dTqtpIS+z1SUdoVXvVe4CniQLBV6XxpMuUIjZhUtTU1fKMNAACSQl1Nre67917dsvwmSdJDm7eo8UiDAn6/HtqyRf6hJWvMZWtaTjSrYs8etQaDCvj98vubFGhqGto3MPja77cDYSRkDt/qamsU8AdUV1M7oi1VZJeVqrehUe0la9VdXqHehkb1+QMK1dSra8dOtS0sUvr8PGUuW2weiklGaJyAcDg8ri1VWJYll8tllscllS6YTsZ5TH7mjRKSz2g3vEg+XE8nR8GCQj33wgu6a/16vVh5QK2trZKkxx/dofb2drU0n9DT5eV6urw86ji/36+CwgLdVvIt3VbyLdXX1qmlpUW3lXxLklRfW6fbSr5lP3FsDQZVsWePAv4me5OkgsKCqFpjQ4Mq9qTOuc4oLNDs948qa+kS9Te36OyBKnWXV6intk4aCpXu6oMsuzENCI1xMhBstb8JGf7NSDiFu2a++td/rVWrGagPAACSwy3Lb9LT5eWyLEs7HxvsXlpQuEB58wcnjyooXKCCwgV6oKws6rhAU5Py8ufr7977B71S/apWrl6lvLw8vVL9qiRp5epVeqX6VRUuKIw6btXqYvs9R9vuWr8+av9U4PJ4NGP9OuXu2xs1EU7O9m3KKl5p7o4pQmicoLBlqXPLVrUtKrK/CenzB3T2QJW6Hh18jN5dXmEe5niWZelrN9xglgEAABLWD3bvloYmGiqIMRmLKeD3q6WlRR6PZ2hcYuwnjZHXXp9PpZs2qbm5WQF/k16srLSfPNbV1Ng/ezwelW7aZPyJzsV6jImL0DhB3eUV6msKaPZ7R6O+DXFXH5Tn7UPK3b9XZ/c8k3Jryng8Hs2bN88sAwAAJKwly5ZqVXGxHtqyRatWF0uSKvbsUf1Q98iKPXtUsWeP/E3nung/tHmL/bOGupg+8eSTKt20acT2d+/9gzQUSh8o26RHtn9P27ZvlySVbtqkV6qr9cj27XK73bLaLHmvGNwvVbSX3G6vx9i1YycBMoEQGieov7lFM9evU5rPazZJQ32zM5cuVh+/9BPCelTOwHlMfqzvl/xYp9EZuJ7Gn2VZemjLFu187DEtWbZUvisGZ+h8pfpVbfve9+yfX6l+1f77DwaDsixLXm/0fWBdbY3qamrU2NCgFysrFfA32RPl2PvU1OqqOVdqxU3fUHt7uyr27NFVc67UfffeOzh+sqVFK276RswZW+MtFAqZpWnhrn5ZOdu/q7DVToBMIITGCXJ5POedGjhsWeprCigtBQbstra26ui775rluGA9KmfgPCY/ZkNOfqzT6AxcT+MvGAyqvrZOK1evsrupStJtJd+yxzdGupjesOiPFPD75fP59Mbbh+2AeTEKFhTqiSeftIPo8GD6vz/8Z/3vD/9ZpZs2qcAYBzlZsrKyzNK0yVy2RLN279IlH/5C2WWlGgi2RgXIgeDgBEWYOoTGCcouK1X/iRZ77GJ3eYV6Kgdneho+NfCM9evMQx2ltbVVP33nHRXdeKPZBAAAkPA8Ho/W3X23VhcX2zMMRyay2fa979nhLrK5h758GR7gg8FP7J99V/iUNz9fHo9HBYUL7HpEazCoYDAof5Nf/ia/mptPSJL8TYNrQ0bWh0zlL3lcHo+yilcqd9/eqADZUzPYXRhTh9A4Qen5eZr9/lFll5VKQ91VQ0caNRBslcvjUe7+wZmfnOzkyZOqq63VHXfeaTYBAAAkhbqaWlUdOGA/TRw+cc3Oxx4bUd+5Y4f5FmoNBu0wGfAHVF9bp9bW1lGXzQh+EoxaXqPlRPPQcedqkaU4EB0gI/fdmDqExjjJKl6p7LJSe3rgWbt3KbusVBljnHkrlqs+Caq3KTCmrbviR+bhUyI3N1elDzxgluOK9aicgfOY/FjfL/mxTqMzcD2NvwfKNulXpz8esWnoiaNZf6W6Our4YPATBfwB5efPl+yJbV5VQWGB/T7DrSperVeqq+3tkUcHJ8QZXjP/DKdzV7+s9Pw8s4wEQGiMg7Blqc8fUN+wsY39zS3qqaxSb0PjhNZq7MnMVOaCggtu6Vd4lXblHPPwKcG4CgAAkOpaTjTL7XaPOknR4zsGx0RGnkLeVlKiq+ZcGbVFnmqa9avmXJkyX/RkFBbIlcLdcRMZoXGC+psHxzN23LNxcJrg5SvUtWOnrJtuVU9N3eAajguLJhQcx6L/k1alXX65WZ4Ux48d08mTJ80yAACA45Ru2iTvBb4gX7W6WI88un1wUhyfT6tWF6twQaHy8vO1bfv2oaeKryp/aObibdu3jxgjeb4tlWY8Hgi2KlRTH/XgJVRTb88dwiQ404PQOEHd5RXKWFCg2e8f1SUf/kKu2R71HHhJ7uqX5Xn7kC756AO5PB6drawyD006lmXpheefV2dnJ2swAgCAlPBA2aYL9qpaVbxaBYWF9n6R1x6PR/n5+crPz1dB4blZUCOvx7qlymQ4vQ2Nals0OLlk55atspbfqo4NG+0ZU3sbGmUtX0FwnAaExgkKW5ayli6Ry+ORy+PRzLsHZ0kdPpYxY8HExjVeyEAwqPQrRl8nMl4sy9Krr/y17v32t6dlhtTRunog+XAek18qfdvtVKzT6AxcT+FEZw9Uaeam+wcfxnz0gdKu8Kr3yDvyvH1Is3bvkuftQ4PL3TU0modikhEaJyg9P09nK1+0f3kzFhTIXf2y3d7b0KhQbb3SL/AN1UT0f9KqtEl8fw1N93zvfd82y1PmQt/wITlwHpNfqnzb7WSs0+gMXE/hROE2K+qeeebd65SeN09pvnMPR9Ku8Gpgkod9YSRC4wRll5UqY0GBOrdsVZ8/IJfHYz9l7NiwUR33fkcz7r5TWcUrzUMT0i9+/nPVvPaant+7VxYfSAAAAEyRzGVL1F1eoVBNvcKWpcxlS+R5+5A01Luvp7JKff5jylq2xDwUk4zQOEEuj0c527fpko8+GLG8RnZZqS758BfK2b4tqh5PYctS2ji/MQ4Gg1Gv3/3pTzUwMKDiNWv07Y0b+SYaAAAAUya7rFRZxSt1tvJF9Te3RLV1bNio7vIKzXpyF8tyTANC4yRKz8+b9GmD+060KH3+2D44v/71r/XWm2/qkW2P6C8f3qr/p65edbW19hPFG7/+dV13/fXmYQmB9aicgfOY/FJl2ncnY51GZ+B6ingLhUJmaVpkl5XK8/ahEQ9jcvft1SUffZA0vfechtAYB/3NLfY0wGHLsh+ft5esVeeWrSO+KZkuX/rSl/SNm2/W4zsf1/98Ypfuf6BUq1avjnqi2NraqprqapbUAAAASCFZWVlmKaFM9oMYnB+hcYJ6Gxpl3XSr+ptb1OcPqG1hkTq3bFVPTZ1mrF4lSWpfszZppgb2er0qLinRv/3bv+nHL72kNw4N9iMHAAAAJovL5Rp16/MfG1EbvmFqEBon6OyBKs24+07l7tsrd/VBZSwoUO+Rd+R+7aCyildq1u5dSvN51VNTZx46Yb1NAWVO0nIeN9xwg+64807dsmKF2QQAAAAghRAa4yBj2HpXLo9HaV5v1CP0tCucMy320XffNUtTgvWonIHzmPxY3y/5sU6jM3A9BTCVCI0TlJ6fZ08N3FNZpVDt4BTBXTt2KmxZ6m1oVO+Rd5ThkFmerv3qV/Xjl16a8vDIelTOwHlMfsyqnPxYp9EZuJ4CmEqExgnKLitV5rLF6qmtU+hIo3JfeFbu1w6qt+EdnfnyV9Vx73c0c9P9yozzejL9J1qUMcZZU+PJ4/HojjvvlCTV1NSYzQAAAAAchtA4QZF1Gt3VB+WuPqjMZUuU5vNq9vtHdenpU7r09Clll5Wah03YgGVN6yxSRTfeqOLiYrMMAAAAwGEIjZMgUZbYcBLWo3IGzmPyY32/5Mc6jc7A9RTAVCI0JqGBYFDpV3jN8rQ6fuyYjh87ZpYBAAAAJDlXOBwOm8VUMdElK2L91fX5A8oojP2+6+64U99cvcYsj+rfDh3St/c/H1WL9d8dqx4R8PtVUFholuOmtqZGV3/5y5o3b57ZNGGP73hMD5RtsidvsCxLLc3NUfvk5ecnTLtGeSJDe75erDygB8o2xWy/0PG0T397YOg6Eqs9ItXavT5f1MQkidwe8PvV3Nys/GEzqF7M8bQnRvuh1w9p5199P2o/J1i1arUWLlikq+bOtWu/OnVKHvcsbfj2vVH7Ir72Pf+CLv/CF83yuDQcfkt7n3vWLI/Lhe5vL0Y83yvVEBon8IsTDofVXrJWff4LP2Gbuel+e2yjU0OjJNW89pq+fM01kxIcAQCAsxEap8+PnvmhvF+60iyPC6HReeieOkG5+/YqzetV1uqVcle/LHf1y8rZ/l3758g2o3iVeei4hC1LacO+7U40xWvGFoYBAACQOLKysswSYCM0TpDL41HmssVK83mVUVigjMICpefn2T9HtjRffMYg9p1oUfo0LLVxMXjKCAAAADgHoTEOcrZvm5RlNQAAAABguhEaMWmCwaBOnjxplgEAAAAkEULjBLhcrlE3aWQtun18km3wrs/nYxkOAAAAIMkRGjGp/uTrX1fNa6+ZZQAAAABJgtCISeX1etXd3W2WAQAAACQJQmOS6D/RoowEnzU1ljvuvNMsAQAAAEgShMYkMWBZciXw+owAAAAAnInQCAAAAACIidCYBAaCQaVf4TXLSYeZVAEAABJTKBQyS4CN0JgE+j9pVZrPZ5aTzq9//WuzBAAAgASQlZVllgAboRFTZsnSpXrrzTfNMgAAAIAERmhMcJl9fUpzyAQ4Ho9Hv/3tb80yAAAAgARGaExwl1jtSk/SpTZG8ydf/7pZAgAAAJDACI0J7pPf/YJ6mwJj2pJhshyfA8ZmAgAAAKmE0JjgfnvpJcpcUDCmzQmT5QAAAABILITGOAgdYnIXAAAAAM5EaIyD7mefV9sfM1ZvrJhBFQAAAEgehMY4mH34dUkiOI6RSy6zBAAAACBBERrjZPbf/1QiOI7Jp7/91CwBAAAASFCExjiKBMfO0s1mE4a57LLLzBIAAACABOUKh8Nhs5gqepsCylxQYJbH5GxllVmyde/eI2VlKvv+PzebJEmvvPyyrvmDr5jlUX366af6bRyezJ0585k+tiyteXG/2RSloLDQ/tmyLLU0N0e1jyYvP18ej8d+HfD7o9pNaWlpuu76680yAABIcatWrdbCBYt01dy5du1Xp07J456lDd++N2pfxNePnvmhvF+60iyPS8Pht7T3uWfN8rhM5H7dFM/3SjWExgn84oz3r27dHXfqm6vXmOVJ9ZMfV6nDstTQeMRsAgAASAiExumz7/kXdPkXvmiWx4XQ6Dx0T42DPn9AHRs26szV1+qzOXPtrW1hkTq3bNVAsNU8BAAAAACSAqFxgkI19eq4Z6PS8/OUu3+vLj19SpeePqVLPvyFZj21S5JkLV9BcAQAAACQlAiNE9RTW6cZ69cpu6xUGYXnHne7PB5lFBZo1u5dSvN51VNTF3UcAAAAACQDQuMUcM0+N0kMAAAAACQTQuMEzVi9Sj2VVeour1CfP2DXw5alPn9AnVu2qv9Ei2YUr4o6DgAAAACSAaFxgrKKVyp3/171N7eo456N9iQ4Z778VXVu3ipJ8rx9SGk+r3koAAAAACQ8QmMcZBQWKHffXl3y0Qf2RDiXnj6l2e8ftcc0AgAAAEAyIjQCAAAAAGIiNMZBZJ3GtoVFUes0WstXqLu8QmHLMg8BAAAAgKRAaJygnsoqddyzUVlLl8j92kHNenKXXG63Zm66X9llperzB9S2sIh1GgEAAJCwQqGQWQJshMYJCh1pVHZZqbKKVyrN51VW8UrlbN+mUE29Mpctkbv6oFweD+s0AgAAIGFlZWWZJcBGaIyD/mDQLEV1SU27wqs0D2s1AgAAAEg+hMYJyi4rVaimXp1btqq7vEJdO3aqa8dOzVi/TpLUtrBI/SdalLlsiXkoAAAAACQ8QuMEZRQW2Osw9vkDkqRZu3cpu6xUGgqVl3z0ActuAAAAAEhKhMY4SPN5lV1WKnf1QeVs3xb1VDGreGXUvgAAAACQTAiNcTIQbI0axzgQbFWfP2A/fQQAAACAZJQyobGnpk79J1rM8oQNBFtlLV+htkVFOvPlr6pjw0b1VFapbVGROu7ZqPaS22UtX8FajQAAAMAFxHON84577ovbe6W6lAmNGfn5ar/nvrgHx64dO5V2hU+z3zsqz+HX1X+iRV2PfV8zN92vSz76QJd8+AuFrXaFaurNQwEAAAAMk+bzylqzNi5hL3PZkri9V6pLmdCYPj9P7v3PxT04hi1LWUuXKM3nVXp+XtQEOJLk8niUPj9PA/yyAgAAAOc1o3iVZq5fF5ewF8/3SnUpExo1ScExzedTT22dBoKtkqTMZYvlrn7Zbh8ItqqvKcA6jQAAAMAYRIW9zi6z+aLE871SmSscDofNolP0n2gZ9QnfwMen1f3kU8pa+U1l/kmR2Twm/c0tSs+fp3Bnl7qffEr9zSeVs/27Ss/PG3y6mJ+nzi1bFaqtV0bh9XJXH7SPfeyWW3XDjV+Per/JduTI2/qP//xP/XbOl8wmAACAhLDot/+pPN+XdPnll9u1Tz/9VP/5n7+V94tfjNp3uL7+fmWkp5vlUV3MvrrI/SdrX13k/hezr4b2/9ff/EZ5+VebTePS0tKs4jXFZvmi9f3jP6n3Z/+gmRvWy5U902yWJKVdfplcw35fYuk9+jOF6v9GOf9zp1yzcsxmSVLG/MH7eIzk6NB4Pv0nWtR+z31y739O6fPzzOYxGf5XF3nkPfwXrbehUWlX+JSeH/3+d/7ZHVpZXBJVm2wvVu6X9ze/0VXf+lOzCQAAICH866FDumTxYl19zTVmE5JIw+G3tPe5Z83yuPTU1OlsZZU8rx2ccKCL53ulmpQNjYpDcBzvX926O+7UN1evMcuT7pJTv9SZub9nlgEAABIC9yrOEM/QqDiHvXi+VypJqTGNpomOcXS5XKNuPQdeksvlUqi2XtZNt0rt7VHtAAAAAMYmnhPaxPO9UklKh0bFITiOxpUz2E+aX0oAAABg4uJ5Xx3P90oVKR8aNSw4jjZpznikXTnH/nlG8Spll5XyCwkAAABMQDzvq+P5XqmA0DgkfX6eMhcUmOW4yFq2RGk+n1kGAAAAcBHieV8dz/dyOkIjAAAAACAmQiMAAAAAICZCIwAAAAAgJkIjAAAAACAmQiMAAAAAICZCIwAAAAAgJkIjAAAAACAmQiMAAAAAICZCIwAAAAAgJkIjAAAAACAmQiMAAAAAICZCIwAAAAAgJkIjAAAAACAmQiMAAAAAICZCIwAAAAAgJkIjAAAAACAmQiMAAAAAICZCIwAAAAAgJkIjAAAAACAmQiMAAAAAICZC4yRIv8JrlgAAAAAgKREaJ0Gaz2eWAAAAACApERoBAAAAADERGgEAAAAAMREaAQAAAAAxERoBAAAAADERGqeB2+MxSwAAAACQkAiN02DGjBlmCQAAAAASEqERAAAAABAToREAAAAAEBOhEQAAAAAQkyscDofNIibXrTev0Nzf/29mOe66OrvU1dVpv/69M2365SWzo/YBUlU4HFZfb59ZnhKutDRlZKSbZQBIedyrTK9LL/2c0uPw79PJ5ma9+fZhs4wkRmhMIb1NAWUuKDDLAAAACYF7FSAx0T0VAAAAABAToREAAAAAEBOhEQAAAAAQE6ERAAAAABAToREAAAAAEBOhEQAAAAAQE6ERAAAAABAToREAAAAAEBOhEQAAAAAQE6ERAAAAABAToREAUkg4HE7YDQAAJCZCIwAAAAAgJkIjAKSwzi1b1ecPmGVbqKZen82ZG1Xr8wf02Zy5UVt3eYXdHrYsde3YqbaFRWovWTvi/QeCrerYsFFtC4vUsWGjBoKtUe0AACCxEBpTVP+JFn02/ytmGUCK6PMH1LawSKHaerPJFgl/o8kovF7u6pftbUbxKrvtbGWV+poCyi4rVZrPp457NipsWXZ755aHJUnZZaUKW5b9GgCG6z/RojMLbjDLAKYBoTEF9Z9okbXmNuU8us1sApBCsopXKs3rNcu2s5VVZkmS1NsUUEZhQdSW5jv3Pmf3PKNZTz2hrOKVmrV7l9Ln5ylUMxhO+5tb1H+iRbN271JW8Url7tur/hMt6m9uGfYnAEh1/Sda1H7PfXLvf85sAjANCI0pZnhgHP5kAEBqySgsGHwSeMXooXEg2Kqze57RjPXrzCZbnz+gPn8g6ilinz+gNK9X6fl5di2jsEB9Q6Ew1NCojAUFcnk8kiSXx6P0+Xnqa4rdRRZAahkeGNPnn7uWAJg+hMYUMvDxaQIjgDHp3PKwslavVOaCArNJktRTWaX2ktvVuXmr2hYWRT0pNINoRn6eBoJB+/XwQKmhUDkwLHgCSF0DH58mMAIJyBVmnvOU0H+iRdbKYs1Yd6cyi75mNgNIERmF10e9bi9Zq+yyUmUUnguHff6AOu7ZqNnvH1V/c4vaS27XpadP2e3d5RXq8weUu2+vXB6POjZslCTl7tur3oZGnT1QJXf1waj36y6vkLv6oD1hTnZZadT7SVLmgkK7BiD1DHx8Wl27npTn4EsERiDBEBpTQKRL6ozbb1POXz5kNgNIIeYlf7TQ2LawSOnz8zRz/Tr1n2hR12Pfl7v6ZaX5fFFjFyOGh8LhP0eEaurVU1sXMzR2btmqNJ9XOZsfsGsAUkukS2p26Z9rxp+uMZsBTDO6pzrc8DGMPGEEMBZpV3gVtix1l1eop6ZOijxdHBp32FNZFdUdNdx2rmupy+NRn/+Y/VqS+pqb7S6p6T7fiCU4+k80K8PosgogdQwfw5h25RyzGUACIDQ6GJPeABgPd/VBe4vMsuyuPqis4pWSpN6hp4kRoSPv2BPbpOfnKc3rtWdLDVuWQjX1yhx6kpmxoEB9/mP22oz9zS3qbzmp9Pn59vsBSB1MegMkB0KjgxEYAUyG7LJS9TUNrvNoLV+hUG29crafW8InZ/t31fngVlnLV9hdXTOXLZEkpfm8mnH3nWpbVKT2krWybrpVMzfdP2q3VwDONhAMEhiBJMGYRgfrP9ESdRHubQrEnAkRQGowL/mhmnplLIheZ3G4gWCremrqosYgRuq9DY0asCzNKF414vj+5haFGhqV7vPZTyiH621oVF9zizIXDK7zKEkul8vcDYCDhS1LYctSms9n17hXARIToTGFcCEGkMiXfEIjAO5VgMRE91QASCEulythNwAAkJh40phCwpZlT1YBAACQaLhXARIToREAAAAAEBPdUwEAAAAAMREaAQAAAAAxERoBAAAAADERGgEAAAAAMREaAQAAAAAxERoBAAAAADERGgEAAAAAMREaAQAAAAAxERoBAAAAADERGgEAAAAAMREaAQAAAAAxERoBAAAAADERGgEAAAAAMREaAQAAAAAxERoBAAAAADERGgEAAAAAMREaAQAAAAAxERoBAAAAADERGgEAAAAAMREaAQAAAAAxERoBAAAAADERGgEAAAAAMREaAQAAAAAxERoBAAAAADERGgEAAAAAMREaAQAAAAAxERoBAAAAADH9/3BqgJKHO1NDAAAAAElFTkSuQmCC;movable=0;resizable=0;rotatable=0;deletable=0;editable=0;locked=1;connectable=0;clipPath=inset(18% 7% 3.33% 4.33%);" vertex="1" parent="1">
          <mxGeometry x="136.78" y="190" width="811.52" height="360" as="geometry" />
        </mxCell>
        <mxCell id="rOtj6O_n3d21wUyPrb-H-2" value="" style="endArrow=none;dashed=1;html=1;dashPattern=1 3;strokeWidth=4;rounded=0;fillColor=#3333FF;strokeColor=light-dark(#FF3399,#FFFFFF);" edge="1" parent="1">
          <mxGeometry width="50" height="50" relative="1" as="geometry">
            <mxPoint x="220" y="270" as="sourcePoint" />
            <mxPoint x="220" y="270" as="targetPoint" />
            <Array as="points">
              <mxPoint x="220" y="480" />
              <mxPoint x="610" y="480" />
              <mxPoint x="610" y="270" />
            </Array>
          </mxGeometry>
        </mxCell>
        <mxCell id="rOtj6O_n3d21wUyPrb-H-3" value="&lt;font style=&quot;color: rgb(255, 255, 255);&quot;&gt;ワーク・上演の間&lt;/font&gt;" style="text;html=1;align=center;verticalAlign=middle;whiteSpace=wrap;rounded=0;strokeColor=#3333FF;fillColor=#FF3399;" vertex="1" parent="1">
          <mxGeometry x="362" y="430" width="103" height="30" as="geometry" />
        </mxCell>
        <mxCell id="rOtj6O_n3d21wUyPrb-H-4" value="" style="endArrow=none;dashed=1;html=1;dashPattern=1 3;strokeWidth=4;rounded=0;fillColor=#3333FF;strokeColor=light-dark(#00CC00,#FFFFFF);" edge="1" parent="1">
          <mxGeometry width="50" height="50" relative="1" as="geometry">
            <mxPoint x="619" y="270" as="sourcePoint" />
            <mxPoint x="619" y="270" as="targetPoint" />
            <Array as="points">
              <mxPoint x="619" y="480" />
              <mxPoint x="780" y="480" />
              <mxPoint x="780" y="330" />
              <mxPoint x="870" y="330" />
              <mxPoint x="870" y="270" />
            </Array>
          </mxGeometry>
        </mxCell>
        <mxCell id="rOtj6O_n3d21wUyPrb-H-5" value="&lt;font style=&quot;color: rgb(255, 255, 255);&quot;&gt;展示の間&lt;/font&gt;" style="text;html=1;align=center;verticalAlign=middle;whiteSpace=wrap;rounded=0;strokeColor=#3333FF;fillColor=light-dark(#00CC00,#FFFFFF);" vertex="1" parent="1">
          <mxGeometry x="650" y="430" width="103" height="30" as="geometry" />
        </mxCell>
        <mxCell id="rOtj6O_n3d21wUyPrb-H-6" value="" style="ellipse;whiteSpace=wrap;html=1;aspect=fixed;fillColor=light-dark(#FFFFCC,var(--ge-dark-color, #121212));" vertex="1" parent="1">
          <mxGeometry x="510" y="290" width="20" height="20" as="geometry" />
        </mxCell>
        <mxCell id="rOtj6O_n3d21wUyPrb-H-7" value="" style="ellipse;whiteSpace=wrap;html=1;aspect=fixed;fillColor=light-dark(#FFFFCC,var(--ge-dark-color, #121212));" vertex="1" parent="1">
          <mxGeometry x="540" y="420" width="20" height="20" as="geometry" />
        </mxCell>
        <mxCell id="rOtj6O_n3d21wUyPrb-H-8" value="" style="ellipse;whiteSpace=wrap;html=1;aspect=fixed;fillColor=light-dark(#FFFFCC,var(--ge-dark-color, #121212));" vertex="1" parent="1">
          <mxGeometry x="570" y="390" width="20" height="20" as="geometry" />
        </mxCell>
        <mxCell id="rOtj6O_n3d21wUyPrb-H-9" value="" style="ellipse;whiteSpace=wrap;html=1;aspect=fixed;fillColor=light-dark(#FFFFCC,var(--ge-dark-color, #121212));" vertex="1" parent="1">
          <mxGeometry x="570" y="340" width="20" height="20" as="geometry" />
        </mxCell>
        <mxCell id="rOtj6O_n3d21wUyPrb-H-10" value="" style="ellipse;whiteSpace=wrap;html=1;aspect=fixed;fillColor=light-dark(#FFFFCC,var(--ge-dark-color, #121212));" vertex="1" parent="1">
          <mxGeometry x="570" y="290" width="20" height="20" as="geometry" />
        </mxCell>
        <mxCell id="rOtj6O_n3d21wUyPrb-H-11" value="" style="ellipse;whiteSpace=wrap;html=1;aspect=fixed;fillColor=light-dark(#FFFFCC,var(--ge-dark-color, #121212));" vertex="1" parent="1">
          <mxGeometry x="540" y="320" width="20" height="20" as="geometry" />
        </mxCell>
        <mxCell id="rOtj6O_n3d21wUyPrb-H-12" value="" style="ellipse;whiteSpace=wrap;html=1;aspect=fixed;fillColor=light-dark(#FFFFCC,var(--ge-dark-color, #121212));" vertex="1" parent="1">
          <mxGeometry x="540" y="370" width="20" height="20" as="geometry" />
        </mxCell>
        <mxCell id="rOtj6O_n3d21wUyPrb-H-13" value="" style="ellipse;whiteSpace=wrap;html=1;aspect=fixed;fillColor=light-dark(#FFFFCC,var(--ge-dark-color, #121212));" vertex="1" parent="1">
          <mxGeometry x="570" y="440" width="20" height="20" as="geometry" />
        </mxCell>
        <mxCell id="rOtj6O_n3d21wUyPrb-H-14" value="" style="ellipse;whiteSpace=wrap;html=1;aspect=fixed;fillColor=light-dark(#FFFFCC,var(--ge-dark-color, #121212));" vertex="1" parent="1">
          <mxGeometry x="465" y="290" width="20" height="20" as="geometry" />
        </mxCell>
        <mxCell id="rOtj6O_n3d21wUyPrb-H-15" value="" style="ellipse;whiteSpace=wrap;html=1;aspect=fixed;fillColor=light-dark(#FFFFCC,var(--ge-dark-color, #121212));" vertex="1" parent="1">
          <mxGeometry x="413.5" y="290" width="20" height="20" as="geometry" />
        </mxCell>
        <mxCell id="rOtj6O_n3d21wUyPrb-H-16" value="客席は各上演に合わせて移動予定" style="shape=callout;whiteSpace=wrap;html=1;perimeter=calloutPerimeter;position2=0.38;" vertex="1" parent="1">
          <mxGeometry x="540" y="170" width="200" height="70" as="geometry" />
        </mxCell>
      </root>
    </mxGraphModel>
  </diagram>
</mxfile>
